<?xml version="1.0" standalone="no"?>
<svg version="1.1" id="Layer_1" xmlns="http://www.w3.org/2000/svg" xmlns:xlink="http://www.w3.org/1999/xlink" x="0px" y="0px" width="595.28px" height="595.28px" viewBox="0 0 595.28 595.28" enable-background="new 0 0 595.28 595.28" xml:space="preserve">
<path id="color_x5F_2" fill="#4a90e2" d="M256.714,372.35l0.058,0.37l-19.28,0.166c-7.201-0.034-14.402-0.071-21.604-0.124
	c-0.177-0.032-0.367-0.034-0.561-0.004c-24.698-0.18-49.396-0.412-74.095-0.423c-0.201-0.062-0.479-0.063-0.805-0.014l-0.665-2.7
	c-0.1-0.542-0.191-1.035-0.264-1.354c-0.913-3.995-1.821-7.992-2.729-11.988c-2.972-13.084-5.938-26.17-8.906-39.255
	c-0.93-4.101-1.861-8.202-2.791-12.303h34.345c-10.521,0.574-21.057,1.034-31.49,0.479c-1.373-0.073-2.981,1.95-1.018,2.055
	c17.034,0.904,34.347-0.946,51.375-1.457c9.718-0.292,19.617-0.613,29.506-0.485c3.065,0.113,6.1,0.247,8.981,0.407
	c5.195,0.289,9.886,0.619,13.938,0.943c4.498,0.516,8.963,1.204,13.376,2.118c2.546,11.279,4.888,22.606,7.048,33.971
	c1.477,7.77,2.829,15.563,4.372,23.32C255.77,367.405,255.966,370.299,256.714,372.35z M170.776,271.368
	c4.956,0.998,10.01,1.602,14.438,1.657c10.534-0.902,20.219-6.565,24.173-17.77c0.196-0.557,1.001-0.871,1.701-0.864l0.684-1.171
	l-0.201-1.107c-2.4-4.287-4.051-8.97-5.174-13.816l-0.022-0.047c-0.547,0.116-1.118,0.073-1.442-0.24
	c-11.215-10.848-29.137-15.622-43.463-7.859c-7.279,3.944-11.857,10.992-11.705,18.416c0.718,3.752,2.196,7.8,4.29,11.395
	C158.24,265.414,164.224,269.287,170.776,271.368z M204.271,233.72c0,0-0.145-0.063-0.388-0.167c0.165,0.128,0.328,0.259,0.491,0.39
	L204.271,233.72z M173.802,224.68c1.709-0.172,3.42-0.237,5.123-0.192c-1.114-0.228-2.026-0.331-2.653-0.268
	C175.647,224.282,174.804,224.438,173.802,224.68z M451.461,165.403c1.726,0.709,4.156-1.01,4.444-2.725
	c0.258-1.543-0.439-2.779-1.553-3.601c-1.205,0.627-2.217,1.862-2.826,2.993c-0.078,0.145-0.174,0.346-0.27,0.567
	c-0.356,1.287-0.241,2.171,0.138,2.72C451.421,165.37,451.434,165.392,451.461,165.403z M456.271,157.22c0,0-0.143-0.026-0.38-0.01
	c0.138,0.073,0.272,0.152,0.405,0.233L456.271,157.22z M432.333,160.961c0.103,0,0.206-0.01,0.309-0.019
	c0.961-0.333,1.884-0.735,2.701-1.127c1.058-0.846,1.813-2.077,1.808-3.414c-0.008-2.148-1.645-3.153-3.471-3.583
	c-0.034,0.018-0.065,0.033-0.088,0.043c-0.569,0.252-1.387,0.524-2.02,0.392c-1.518-0.318-3.286-0.629-4.504,0.564
	c-0.69,0.676-1.214,1.643-1.108,2.64C426.263,159.303,429.754,160.969,432.333,160.961z M436.271,151.72
	c0,0-0.125,0.008-0.343,0.026c0.129,0.032,0.257,0.07,0.384,0.108L436.271,151.72z M152.32,216.552
	c1.508,2.469,4.065,4.059,7.045,5.01c2.336,0.4,5.27,0.863,8.101,1.198c2.565,0.036,5.052-0.199,7.144-0.583
	c4.409-0.811,8.342-2.796,11.752-5.54c0.256-0.255,0.409-0.417,0.409-0.417l-0.097-0.039c-3.813,0.855-10.867,2.707-13.199-0.085
	c-1.815-2.175,2.077-12.985-1.457-14.251c-0.65,0.401-1.213,0.881-1.514,1.155c-1.162,2.118-2.352,4.219-3.755,6.192
	c-3.907,5.492-9.943,10.283-15.154,5.897c0.137,0.351,0.288,0.691,0.46,1.013L152.32,216.552z M184.271,215.22
	c0,0-0.011,0.002-2.735,0.497c0.978-0.097,1.956-0.244,2.93-0.419L184.271,215.22z M426.27,262.969l4.57,1.747
	c2.577,0.87,5.205,1.599,7.778,2.254c0.471,0.12,0.963,0.244,1.455,0.368c6.438,1.27,17.444,3.147,25.61,3.003
	c2.766-0.368,5.378-1.091,7.69-2.33c3.33-1.785,5.376-4.187,6.458-6.926c0.185-0.697,0.293-1.315,0.355-1.797
	c-3.204-7.935-8.308-15.155-14.851-20.403c-4.953-3.216-10.334-5.779-12.951-6.958c-0.903-0.278-1.822-0.517-2.753-0.725
	c-3.937,0.039-7.865-0.079-11.786-0.293c-0.041,0.072-0.087,0.154-0.13,0.23c0.325,0.03,0.538,0.133,0.489,0.335
	c-1.962,8.173-8.386,13.896-16.063,17.937c-1.552,0.878-3.104,1.586-4.562,2.156c-2.114,0.897-4.27,1.691-6.414,2.389
	c4.035,2.296,7.686,5.222,11.763,7.413C424.008,261.948,425.128,262.476,426.27,262.969z M438.771,229.22
	c0,0-0.06,0.112-0.147,0.275c0.821,0.043,1.642,0.077,2.464,0.111L438.771,229.22z M406.165,264.215
	c6.592,5.276,13.852,9.854,21.542,13.3C420.221,273.605,412.268,268.431,406.165,264.215z M485.781,277.884
	c-2.635,2.633-6.006,4.644-10.174,5.844c-29.196,8.412-58.466-4.66-79.495-24.704c-0.569-0.542,0.02-1.15,0.817-1.432
	c-0.022-0.017-0.044-0.033-0.067-0.05c-19.427,3.701-40.606,3.53-59.277-3.246c-0.388-0.141-0.13-0.416,0.341-0.667
	c-21.304-10.389-20.762-36.083-21.84-57.676c-2.661,1.335-5.257,2.787-7.813,4.311c0.296,0.045,0.529,0.169,0.614,0.399
	c1.374,3.703,0.372,8.726,0.487,12.591c0.2,6.721,0.965,13.605,3.466,19.902c0.615,1.548,1.325,3.031,2.114,4.458
	c0.903-0.073,1.759,0.056,0.95,0.572c-0.152,0.097-0.305,0.193-0.457,0.291c7.432,12.685,21.384,20.728,33.975,27.706
	c14.379,7.969,29.448,14.757,44.868,20.453c5.789,2.139,11.629,4.199,17.574,5.868c2.914,0.818,6.221,2.023,9.293,1.935
	c1.39-0.04,0.728,0.749-0.133,1.217c0.06,0.019,0.121,0.034,0.182,0.053c0.601-0.418,1.668-0.755,2.19-0.553
	c27.849,10.816,29.297,50.625,30.871,75.62c1.367,21.718,1.503,43.346,2.127,65.077c0.246,8.567,1.465,17.703-0.437,26.16
	c-0.396,1.764-0.826,3.548-1.604,5.192c-0.022,0.048,0.055,0.096,0.183,0.144l10.683,0.791c3.527-0.042,7.053-0.164,10.58-0.236
	c0.417-0.112,0.863-0.128,1.205-0.021c0.551-0.009,1.102-0.024,1.653-0.028c0.173-0.001,0.307,0.015,0.422,0.039
	c1.056-7.418,2.399-14.787,3.625-22.18c1.296-7.811,1.719-15.763,3.003-23.548c2.538-15.39,4.285-30.753,5.316-46.343
	C493.19,343.071,492.641,310.088,485.781,277.884z M395.771,256.72c0,0-3.26,0.581-7.863,1.183c2.649-0.314,5.278-0.703,7.87-1.178
	C395.778,256.725,395.771,256.72,395.771,256.72z M386.769,258.049c0.382-0.042,0.758-0.101,1.139-0.146
	C387.536,257.951,387.158,258,386.769,258.049z M354.617,257.057c-3.122-0.71-6.245-1.562-9.167-2.503
	c0.077,0.089,0.03,0.202-0.103,0.324C348.386,255.758,351.48,256.487,354.617,257.057z M478.899,469.155
	c0.006-0.041,0.012-0.082,0.018-0.122c-0.051,0.039-0.105,0.075-0.16,0.111L478.899,469.155z M322,123.301
	c0.105-0.978,1.914-1.536,2.613-1.089c0.092-0.01,0.178-0.015,0.244-0.005c0.356,0.051,0.708,0.114,1.063,0.169
	c0.118,0.01,0.227,0.028,0.324,0.051c11.173,1.788,21.383,5.778,29.06,13.705c0.533-0.019,1.043-0.056,1.536-0.11
	c1.022-0.5,2.318-0.979,3.931-1.302c0.583-0.117,1.181-0.286,1.777-0.496c8.021-4.915,4.963-18.057-1.292-25.459
	c-5.096-6.032-10.792-7.349-18.325-5.155c-3.758,1.095-7.457,2.308-11.296,3.019c3.866,2.982,7.931,5.453,13.245,5.664
	c1.441,0.057-1.26,1.214-1.877,1.189c-7.101-0.282-12.047-4.105-17.342-8.468c-3.047-2.51-6.23-5.153-10.186-6.044
	c-3.853-0.869-7.71-0.91-11.602-0.865c-0.063,0.014-0.125,0.027-0.187,0.036c-5.391,0.73-16.296,2.417-18.442,8.389
	c-1.078,2.999-0.873,5.96,0.413,8.486c0.132,0.244,0.26,0.488,0.405,0.728c0.951,1.548,2.33,2.906,4.097,3.965
	C298.462,124.683,312.121,125.75,322,123.301z M319.271,125.22c0.895,0,1.864,0.052,2.831,0.129c-0.02-0.348-0.04-0.696-0.06-1.044
	c-1.791,0.404-3.617,0.691-5.462,0.871C317.699,125.206,318.624,125.22,319.271,125.22z M330.196,105.495
	c1.272-0.173,2.527-0.429,3.772-0.728c-0.064-0.042-0.118-0.091-0.143-0.159c-1.075-2.925-3.146-3.469-5.697-2.463
	c0.27,0.883,1.147,1.349,1.262,2.354c0.011,0.095-0.023,0.187-0.086,0.274C329.602,105.015,329.899,105.255,330.196,105.495z
	 M336.686,104.05c2.247-0.636,4.478-1.342,6.73-1.924c-2.879,0.302-5.59,0.695-7.042,0.919c0.126,0.245,0.245,0.502,0.35,0.787
	C336.75,103.902,336.731,103.976,336.686,104.05z M325.826,101.973c2.732-1.31,6.211-2.322,8.635-0.963
	c-0.635-0.963-1.748-1.775-3.689-1.29c-4,1-4,1-4,1s-1.653-0.354-4.066-0.819c0.935,0.506,1.853,1.092,2.749,1.781
	C325.579,101.777,325.702,101.876,325.826,101.973z"></path>
<path id="color_x5F_1" d="M301.017,163.487c-0.829,2.581-3.414,4.456-6.174,3.779c-0.614-0.15-0.756-0.705-0.306-1.141
	c0.505-0.491,1.367-0.716,2.049-0.549c0.122,0.03,0.169,0.045,0.195,0.056c0.178-0.085,0.33-0.204,0.466-0.348
	c0.4-0.423,0.683-0.925,0.861-1.478c0.212-0.66,0.997-0.971,1.631-1.041C300.111,162.725,301.23,162.822,301.017,163.487z
	 M301.303,150.644c1.944,0.251,3.74-1.058,4.653-2.657c0.713-1.247-2.211-0.997-2.713-0.118c-0.543,0.951-0.699,1.217-1.687,0.699
	c-0.943-0.495-1.648-1.438-2.237-2.295c-0.592-0.862-3.396,0.126-2.683,1.164C297.789,149.115,299.239,150.377,301.303,150.644z
	 M300.801,136.738c2.992,0.152,5.467,1.868,7.875,3.488c0.864,0.582,3.516-0.654,2.285-1.482c-2.802-1.886-5.611-3.611-9.069-3.786
	C300.701,134.897,298.836,136.638,300.801,136.738z M497.295,217.584c-5.114,5.013-11.861,8.21-19.124,10.237
	c9.8,9.287,15.988,19.872,14.646,33.811c-0.535,5.556-2.287,10.454-5.325,14.321c0.521-0.025,0.972,0.123,1.057,0.519
	c6.873,31.872,7.65,64.667,5.504,97.109c-0.546,8.257-1.232,16.504-2.07,24.738c-0.448,4.405-0.796,8.851-1.426,13.234
	c-0.495,3.447-1.575,6.821-1.946,10.279c-1.756,16.354-4.937,32.423-7.055,48.722c-0.136,1.045-3.064,1.559-2.905,0.336
	c0.075-0.58,0.168-1.156,0.247-1.734c0.006-0.041,0.012-0.082,0.018-0.122c-0.051,0.039-0.105,0.075-0.16,0.111
	c-0.364,0.242-0.799,0.424-1.164,0.438c0.227,9.011,1.851,17.96,1.966,26.977c0.01,0.822-1.799,1.36-2.567,0.905
	c-0.159,0.047-0.313,0.076-0.451,0.076c-22.306,0.077-45.244,3.379-67.323-1.034c-0.926-0.185-0.539-0.716,0.141-1.113
	c-0.223-0.055-0.414-0.136-0.551-0.237l-0.702-0.104l0.494-0.2c-0.021-0.196,0.138-0.424,0.577-0.669
	c14.969-8.335,35.045-11.324,46.757-24.626c-1.446-0.116-2.892-0.259-4.337-0.474c-0.492-0.073-0.677-0.458-0.479-0.879
	c3.769-7.97,2.957-17.522,2.585-26.069c-0.4-9.234-0.177-18.479-0.353-27.72c-0.323-16.974-1.21-33.955-2.535-50.881
	c-1.79-22.876-4.69-57.204-29.71-66.922c-0.544-0.211-0.358-0.58,0.102-0.9c0.601-0.418,1.668-0.755,2.19-0.553
	c27.849,10.816,29.297,50.625,30.871,75.62c1.367,21.718,1.503,43.346,2.127,65.077c0.246,8.567,1.465,17.703-0.437,26.16
	c-0.396,1.764-0.826,3.548-1.604,5.192c-0.022,0.048,0.055,0.096,0.183,0.144c0.501,0.187,2.009,0.371,3.566,0.516
	c0.364-0.043,0.728-0.015,1.002,0.088c1.482,0.123,2.798,0.203,3.031,0.205c1.028,0.008,2.056-0.005,3.083-0.018
	c3.527-0.042,7.053-0.164,10.58-0.236c0.417-0.112,0.863-0.128,1.205-0.021c0.551-0.009,1.102-0.024,1.653-0.028
	c0.173-0.001,0.307,0.015,0.422,0.039c1.056-7.418,2.399-14.787,3.625-22.18c1.296-7.811,1.719-15.763,3.003-23.548
	c2.538-15.39,4.285-30.753,5.316-46.343c2.167-32.753,1.618-65.736-5.242-97.941c-2.635,2.633-6.006,4.644-10.174,5.844
	c-29.196,8.412-58.466-4.66-79.495-24.704c-0.569-0.542,0.02-1.15,0.817-1.432c0.641-0.226,1.417-0.242,1.836,0.158
	c2.354,2.244,4.827,4.406,7.398,6.464c6.592,5.276,13.852,9.854,21.542,13.3c13.989,6.269,29.402,8.79,44.821,4.925
	c11.844-2.969,17.49-11.515,17.493-23.544c0.004-12.583-5.683-21.467-14.576-29.873c-0.157-0.148-0.218-0.302-0.219-0.453
	c-1.805,0.422-3.631,0.771-5.463,1.072c8.059,6.384,15.571,19.012,13.414,29.105c0.12,0.301,0.243,0.602,0.358,0.905
	c0.09,0.238-0.289,0.519-0.799,0.73c-1.084,3.268-3.291,6.202-6.986,8.466c-9.571,5.864-24,3.282-34.22,1.001
	c-6.302-1.407-13.05-3.05-18.872-5.912c-5.037-2.476-9.424-6.082-14.351-8.779c-0.136-0.074-0.221-0.156-0.279-0.241
	c-2.987,0.862-5.891,1.553-8.546,2.111c-0.867,0.182-1.743,0.346-2.618,0.513c-19.427,3.701-40.606,3.53-59.277-3.246
	c-0.388-0.141-0.13-0.416,0.341-0.667c-21.304-10.389-20.762-36.083-21.84-57.676c-2.661,1.335-5.257,2.787-7.813,4.311
	c0.296,0.045,0.529,0.169,0.614,0.399c1.374,3.703,0.372,8.726,0.487,12.591c0.2,6.721,0.965,13.605,3.466,19.902
	c0.615,1.548,1.325,3.031,2.114,4.458c0.903-0.073,1.759,0.056,0.95,0.572c-0.152,0.097-0.305,0.193-0.457,0.291
	c7.432,12.685,21.384,20.728,33.975,27.706c14.379,7.969,29.448,14.757,44.868,20.453c5.789,2.139,11.629,4.199,17.574,5.868
	c2.914,0.818,6.221,2.023,9.293,1.935c1.39-0.04,0.728,0.749-0.133,1.217c-0.348,0.189-0.727,0.328-1.019,0.336
	c-3.307,0.096-6.803-1.089-9.936-1.987c-5.742-1.647-11.411-3.548-17.014-5.618c-15.768-5.824-31.288-12.617-45.954-20.854
	c-12.261-6.887-26.798-14.891-34.221-27.423c-16.95,10.745-34.556,21.092-54.318,25.521c-6.561,1.47-14.38,2.351-21.865,1.624
	c6.826,24.216,12.397,48.753,17.094,73.468c1.467,7.716,2.818,15.456,4.332,23.164c0.307,1.563,0.747,8.244,2.311,9.17
	c0.502,0.297,0.218,0.688-0.309,0.984c-0.094,0.545-0.646,1.092-1.487,1.092c-13.755-0.003-27.51-0.086-41.266-0.184
	c2.231,5.26,3.011,11.821,4.338,17.163c3.25,13.086,6.383,26.202,9.463,39.329c3.067,13.073,6.101,26.155,8.968,39.273
	c0.972,4.446,1.946,8.895,2.801,13.365c0.303,1.581,1.061,3.745,0.78,5.381c-0.229,1.334-3.195,1.695-2.939,0.206
	c0.285-1.659-0.591-4.082-0.917-5.728c-0.873-4.413-1.823-8.811-2.789-13.205c-1.962-8.93-4.003-17.842-6.068-26.748
	c-0.127,0.504-0.677,0.998-1.477,1c-21.729,0.028-43.446,0.931-65.175,1.027c-2.065,7.929-4.161,15.851-6.333,23.751
	c-1.119,4.073-2.239,8.148-3.468,12.19c-0.485,1.596-0.826,3.891-1.925,5.225c-0.86,1.044-3.613,0.534-2.436-0.895
	c0.653-0.792,1.412-4.106,1.856-5.604c1.276-4.303,2.469-8.63,3.647-12.96c1.965-7.224,3.876-14.463,5.766-21.708
	c-1.66-0.168-1.043-2.047,0.518-2.049c0.004,0,0.008,0,0.012,0c1.204-4.626,2.407-9.253,3.593-13.884
	c3.194-12.472,6.349-24.955,9.392-37.464c1.378-5.668,3.785-12.034,4.136-17.94c-9.8-0.068-19.601-0.111-29.401-0.135
	c-0.402,6.208-3.112,12.962-4.644,18.887c-3.271,12.65-6.641,25.274-10.067,37.882c-3.305,12.162-6.641,24.317-10.142,36.424
	c-1.208,4.176-2.413,8.355-3.74,12.495c-0.481,1.5-0.84,3.609-1.878,4.864c-0.862,1.042-3.615,0.531-2.436-0.895
	c0.804-0.972,1.482-4.137,1.966-5.694c1.303-4.195,2.531-8.414,3.743-12.636c3.562-12.411,6.98-24.863,10.353-37.327
	c3.282-12.13,6.527-24.271,9.656-36.441c1.419-5.521,3.925-11.798,4.254-17.57c-2.252-0.004-4.504-0.022-6.756-0.023
	c-0.623,0-0.993-0.22-1.157-0.518c-0.147,0.023-0.292,0.037-0.426,0.034c-3.336,0.489-8.857,0.867-9.342-1.123
	c-0.868-3.559-1.654-7.138-2.462-10.709c-6.931-30.64-13.737-61.308-20.648-91.953c-3.368-14.933-6.737-29.865-10.202-44.775
	c-1.083-4.663-2.166-9.327-3.313-13.975c-0.54-2.188-1.023-3.455,0.708-5.256c1.537-1.599,3.838-2.904,5.976-3.73
	c0.088-0.056,0.188-0.107,0.292-0.156c0.244-0.36,0.695-0.643,1.297-0.643c22.212,0,44.425,0,66.637,0
	c0.04,0,0.072,0.006,0.11,0.008c0.115-0.144,0.342-0.301,0.735-0.464c0.184-0.076,0.358-0.136,0.537-0.203
	c1.284-2.347,2.605-4.672,4.221-6.807c6.11-8.07,13.875-10.847,23.755-9.044c0.239-0.449,0.816-0.744,1.393-0.833
	c3.651-4.103,7.179-8.32,10.645-12.58c1.792-2.202,3.587-4.404,5.302-6.667c0.508-0.67,1.025-1.338,1.5-2.033
	c0.155-0.22,0.304-0.444,0.446-0.672c0.013-0.03,0.03-0.049,0.044-0.076c-0.019-0.093-0.014-0.191,0.023-0.294
	c-3.885,0.675-8.91,0.216-8.614-4.595c-0.238,0.146-0.528,0.248-0.862,0.262c-1.273,0.054-2.86,0.015-4.221-0.445
	c-2.117,0.326-5.19,0.772-7.028-0.654c-1.178-0.915-1.372-2.369-0.685-3.671c1.501-2.842,4.669-4.38,7.932-5.056
	c3.043-2.309,7.326-2.716,11-1.415c0.298,0.105,0.469,0.244,0.551,0.396c0.854-0.576,1.751-1.068,2.678-1.454
	c0.016-0.006,0.032-0.01,0.047-0.016c-0.444-0.428,0.329-1.404,1.39-1.523c4.08-0.458,11.21,0.074,11.133,5.291
	c4.195-5.126,8.363-10.493,13.632-14.485c2.956-2.239,8.801-5.887,12.449-2.75c4.179,3.593-0.614,10.731-2.903,14.04
	c-2.898,4.189-6.272,8.609-10.287,11.882c5.333,0.779,11.34,4.879,8.912,10.888c-2.783,6.889-10.195,12.277-9.672,20.266
	c0.06,0.919-2.853,1.464-2.897,0.776c-0.282-4.31,1.734-8.021,4.098-11.492c2.203-3.234,7.216-8.435,6.014-12.807
	c-1.863-6.772-11.575-8.305-16.146-3.419c-3.413,3.648-2.798,7.569,3.058,6.693c2.028-0.303,0.766,1.085-0.484,1.272
	c-4.365,0.653-9.986-0.441-6.751-5.946c2.249-3.827,7.353-6.265,11.779-6.363c2.932-2.516,5.479-5.662,7.743-8.714
	c2.504-3.375,6.278-8.121,6.252-12.579c-0.01-1.839-0.69-3.559-2.617-4.165c-3.658-1.151-8.071,3.795-10.323,6.098
	c-3.952,4.041-7.437,8.453-11.083,12.76c-0.212,0.251-0.709,0.406-1.229,0.496c-1.474,4.451-5.723,8.124-10.123,9.708
	c0.158,0.125,0.262,0.299,0.233,0.534c-0.144,1.188-1.581,2.553-2.262,3.44c-1.621,2.111-3.277,4.195-4.958,6.26
	c-0.768,0.944-1.541,1.885-2.313,2.826c0.019,0.077,0.033,0.158,0.034,0.247c0.057,3.262,1.723,5.722,5.02,6.339
	c0.392,0.073,0.64,0.22,0.783,0.402c0.462-0.405,0.931-0.802,1.392-1.208c3.563-3.131,7.066-7.085,11.067-9.663
	c0.26-0.168,2.745-0.974,2.534-0.229c-0.028,0.098-0.22,0.264-0.293,0.339c-0.092,0.094-0.269,0.183-0.488,0.261
	c-5.442,3.646-10.767,9.596-15.859,13.996c-2.119,1.832-6.713,7.341-10.47,8.313c-3.398,13.699-13.538,27.914-28.146,30.6
	c-9.154,1.684-26.543,1.301-27.125-11.33c-0.045-0.976,1.86-1.567,2.605-1.197c0.613-0.166,1.268-0.138,1.519,0.228
	c2.442,3.562,5.574,4.889,8.902,1.35c1.832-1.947,3.38-4.129,4.755-6.419c0.5-0.833,0.977-1.68,1.448-2.532
	c-0.025,0.001-0.049,0.006-0.075,0.006c-21.636,0-43.272,0-64.908,0c0.495,1.68,0.676,3.67,1.032,5.199
	c1.356,5.83,2.694,11.664,4.029,17.498c5.96,26.04,11.868,52.091,17.775,78.143c0.93,4.101,1.861,8.202,2.791,12.303
	c2.968,13.085,5.934,26.171,8.906,39.255c0.908,3.996,1.815,7.993,2.729,11.988c0.073,0.319,0.164,0.812,0.264,1.354
	c0.18,0.983,0.387,2.126,0.563,2.711c0.007,0,0.013,0,0.02,0c0.029-0.005,0.054-0.007,0.082-0.011
	c0.326-0.049,0.604-0.047,0.805,0.014c24.699,0.012,49.396,0.243,74.095,0.423c0.187,0.001,0.374,0.002,0.561,0.004
	c7.201,0.052,14.402,0.09,21.604,0.124c6.492,0.031,12.983,0.062,19.475,0.066c-0.09-0.191-0.174-0.391-0.252-0.603
	c-0.748-2.051-0.944-4.945-1.209-6.277c-1.543-7.757-2.895-15.551-4.372-23.32c-2.16-11.365-4.502-22.692-7.048-33.971
	c-4.413-0.915-8.878-1.602-13.376-2.118c-7.576-0.87-15.244-1.25-22.918-1.35c-9.889-0.128-19.788,0.193-29.506,0.485
	c-17.027,0.51-34.341,2.36-51.375,1.457c-1.963-0.104-0.355-2.127,1.018-2.055c10.433,0.554,20.969,0.094,31.49-0.479
	c7.774-0.424,15.541-0.91,23.251-1.097c20.13-0.488,41.001-1.073,60.885,2.798c-3.033-13.273-6.366-26.478-10.084-39.586
	c-7.842-1.297-15.042-4.591-19.664-11.143c-0.814-1.154-1.549-2.354-2.235-3.579c-2.4-4.287-4.051-8.97-5.174-13.816
	c-0.004-0.016-0.008-0.033-0.012-0.049c-0.003,0-0.007,0.001-0.01,0.001c-0.547,0.116-1.118,0.073-1.442-0.24
	c-11.215-10.848-29.137-15.622-43.463-7.859c-7.279,3.944-11.857,10.992-11.705,18.416c0.072,3.485,1.181,7.052,3.55,10.421
	c0.235,0.334,0.492,0.651,0.74,0.974c4.186,5.453,10.17,9.326,16.722,11.408c4.683,1.487,9.647,2.067,14.438,1.657
	c10.534-0.902,20.219-6.565,24.173-17.77c0.196-0.557,1.001-0.871,1.701-0.864c0.718,0.007,1.326,0.353,1.052,1.128
	c-9.232,26.16-50.078,25.506-62.806,2.52c-6.784-12.251,0.834-25.356,12.804-30.386c3.813-1.602,7.735-2.576,11.664-2.973
	c1.709-0.172,3.42-0.237,5.123-0.192c8.945,0.233,17.681,3.416,24.959,9.064c0.165,0.128,0.328,0.259,0.491,0.39
	c0.456,0.364,0.904,0.738,1.347,1.121c-1.032-5.614-1.446-11.365-1.578-16.888c-0.179-7.487-0.447-15.849,1.186-23.234
	c0.178-0.805,2.217-1.183,2.794-0.749c0.001,0.001,0.001,0.001,0.002,0.002c0.115,0.086,0.115,0.197,0.036,0.316
	c0.015-0.004,0.029-0.008,0.044-0.012c-1.422,6.43-1.285,13.642-1.212,20.172c0.127,11.584,1.148,24.155,6.401,34.686
	c2.653,5.318,6.531,10.474,12.069,13.04c2.839,1.315,5.89,2.236,9.038,2.827c0.742-0.216,1.575-0.199,1.709,0.275
	c0.001,0.003,0.002,0.006,0.002,0.009c6.417,0.956,13.149,0.616,19.265-0.501c20.732-3.787,39.141-14.973,56.691-26.152
	c-0.655-1.211-1.25-2.46-1.766-3.757c-2.672-6.728-3.78-13.851-3.928-21.066c-0.078-3.785,0.838-8.744-0.436-12.412
	c-5.691,3.52-11.192,7.371-16.718,11.148c-8.416,5.753-17.057,12.006-26.767,15.384c-4.53,1.577-9.628,2.1-11.31-3.459
	c-3.036-10.038-2.609-21.499-2.611-31.866c0-1.324,2.938-1.752,2.938-0.213c0.003,9.841-0.581,20.879,2.302,30.411
	c1.01,3.338,2.678,4.84,6.257,3.731c3.556-1.102,7.005-2.64,10.24-4.475c17.297-9.811,32.396-23.467,50.944-31.036
	c-0.838-0.953-1.723-1.858-2.676-2.691c-3.076-2.691-6.66-4.993-10.735-5.803c-4.164-0.827-7.897-0.113-12.051,0.045
	c-5.624,0.214-9.679-1.457-10.27-7.47c-0.551-5.619,0.91-11.244,1.359-16.821c-0.387,0.1-0.75,0.132-0.978,0.024
	c-0.906-0.428-7.63-2.947-6.47-5.074c1.018-1.865,3.735-2.609,5.438-3.624c8.339-4.972,6.879-16.805,7.56-25.227
	c0.036-0.446,0.833-0.74,1.582-0.867c-3.353-0.858-6.46-2.23-8.551-4.535c-1.611-1.776-4.361-4.655-4.156-7.274
	c0.255-3.255,1.041-6.161,3.737-8.206c4.375-3.319,9.909-5.109,15.37-6.146c0.572-0.305,1.427-0.619,1.739-0.622
	c0.768-0.006,1.534-0.015,2.298-0.023c0.102-0.001,0.204-0.002,0.306-0.003c6.275-0.066,12.395-0.004,17.888,2.969
	c0.935,0.506,1.853,1.092,2.749,1.781c0.125,0.096,0.248,0.195,0.372,0.292c2.732-1.31,6.211-2.322,8.635-0.963
	c0.76,0.425,1.418,1.078,1.913,2.036c0.126,0.245,0.245,0.502,0.35,0.787c0.026,0.07,0.007,0.144-0.038,0.219
	c2.247-0.636,4.478-1.342,6.73-1.924c2.729-0.705,5.492-1.225,8.357-1.199c7.304,0.066,12.888,6.297,15.988,12.347
	c2.798,5.46,4.71,13.117,0.326,18.396c-2.997,3.609-7.094,5.252-11.55,5.777c1.063,1.202,2.078,2.478,3.028,3.851
	c10.115,14.628-1.191,27.779-13.822,35.719c-0.212,0.133-0.694,0.238-1.186,0.287c0.299,1.452,0.585,2.906,0.868,4.362
	c15.441-3.385,33.114,2.954,47.891,6.622c3.538,0.878,7.094,1.755,10.664,2.605c-1.905-0.621-3.741-1.538-5.457-2.833
	c-5.237-3.949-7.437-10.305-5.886-16.699c4.174-17.212,22.898-26.37,39.196-27.629c0.339-0.026,0.587,0.003,0.77,0.065
	c4.95-1.198,10.036-1.226,15.119-0.705c9.951,1.021,20.683,4.466,28.853,10.351c5.833,4.201,14.875,11.997,8.44,19.442
	c-7.746,8.963-19.21,2.611-28.743,2.752c-11.78,0.175-21.461,9.023-32.03,13.355c4.708,2.53,9.936,5.828,15.283,6.44
	c8.65-4.371,15.295-13.442,24.591-16.459c0.247-0.423,1.32-0.979,1.916-0.972c11.923,0.133,25.393,4.177,32.844,14.139
	C505.066,200.423,504.788,210.239,497.295,217.584z M200.679,156.288c-0.205-0.19-0.392-0.401-0.552-0.642
	c-1.036-1.555-0.857-3.518,0.084-5.088c0.263-0.439,0.563-0.837,0.879-1.215c-1.685,0.634-3.132,1.735-3.727,3.495
	C196.524,155.321,198.597,156.143,200.679,156.288z M212.263,148.366c-0.121-0.005-0.239-0.02-0.345-0.057
	c-1.188-0.42-2.497-0.625-3.763-0.55c-0.017,0.101-0.091,0.214-0.279,0.33c-0.577,0.358-1.369,0.579-2.049,0.549
	c-0.243-0.011-0.494-0.012-0.749-0.008c-0.927,0.534-1.713,1.324-2.248,2.421c-1.564,3.209,1.104,4.81,4.087,4.684
	c0.344-0.015,0.603,0.036,0.795,0.125C208.376,153.005,210.06,150.382,212.263,148.366z M217.055,160.194
	c4.011-1.199,8.623-4.937,9.306-9.325c0.759-4.881-3.969-5.657-7.785-5.357c0.418,0.292,0.425,0.781-0.554,1.188
	c-3.512,1.461-6.636,5.062-7.417,8.833C209.661,160.088,213.029,161.397,217.055,160.194z M186.991,216.112
	c-0.106,0.023-0.205,0.044-0.317,0.069c-3.813,0.855-10.867,2.707-13.199-0.085c-1.815-2.175,2.077-12.985-1.457-14.251
	c-0.237-0.085-0.507-0.128-0.815-0.122c-0.233,0.426-0.466,0.852-0.699,1.277c-1.162,2.118-2.352,4.219-3.755,6.192
	c-3.907,5.492-9.943,10.283-15.154,5.897c0.137,0.351,0.288,0.691,0.46,1.013c0.083,0.154,0.174,0.302,0.265,0.45
	c1.508,2.469,4.065,4.059,7.045,5.01c2.53,0.808,5.358,1.16,8.101,1.198c2.565,0.036,5.052-0.199,7.144-0.583
	c4.409-0.811,8.342-2.796,11.752-5.54C186.574,216.465,186.783,216.288,186.991,216.112z M207.018,177.421
	c-2.465,2.954-4.966,5.878-7.542,8.736c-0.173,2.398,0.509,4.766,3.421,4.828c0.408,0.009,0.702,0.111,0.905,0.263
	c0.227-0.18,0.456-0.357,0.68-0.541c1.119-0.915,2.229-1.841,3.329-2.778c1.874-1.597,3.723-3.222,5.579-4.84
	C210.024,182.389,207.84,180.386,207.018,177.421z M171.965,200.34c3.075-0.075,4.813,2.072,4.64,6.504
	c-0.1,2.554-2.842,8.478,1.317,8.908c1.197,0.124,2.406,0.084,3.614-0.036c0.978-0.097,1.956-0.244,2.93-0.419
	c1.359-0.245,2.71-0.529,4.037-0.757c0.09-0.016,0.167-0.023,0.244-0.032c5.919-5.798,9.944-13.915,11.748-21.619
	c-1.174-0.262-2.273-0.789-2.983-1.814c-0.925-1.335-1.111-2.916-0.995-4.486c-0.453,0.216-0.955,0.352-1.288,0.289
	c-9.459-1.791-15.912,1.646-20.99,9.591C173.432,197.73,172.69,199.031,171.965,200.34z M137.198,372.507
	c-0.548-1.675-0.688-3.858-1.022-5.324c-1.368-6.002-2.73-12.005-4.093-18.008c-6.848-30.174-13.682-60.352-20.546-90.522
	c-2.969-13.05-5.938-26.101-8.937-39.144c-0.912-3.966-1.823-7.933-2.754-11.895c-0.249-1.061-0.378-2.438-0.741-3.58
	c-2.204,1.02-4.726,2.717-4.187,4.852c0.297,1.178,0.587,2.356,0.873,3.537c0.876,3.622,1.729,7.25,2.573,10.879
	c7.43,31.936,14.535,63.949,21.704,95.944c3.063,13.672,6.117,27.347,9.207,41.014c0.804,3.553,1.599,7.109,2.435,10.655
	c0.118,0.5,0.219,1.027,0.367,1.529c0.114,0.005,0.258,0.008,0.439,0.008c0.871-0.003,1.741-0.006,2.612-0.015
	C135.767,372.433,136.478,372.477,137.198,372.507z M214.132,374.927c-10.697-0.079-21.395-0.154-32.093-0.23
	c-0.408,6.09-2.879,12.645-4.303,18.477c-3.153,12.916-6.406,25.808-9.715,38.685c-1.036,4.03-2.077,8.06-3.124,12.088
	c21.64-0.103,43.268-0.998,64.909-1.026c0.511,0,0.846,0.14,1.037,0.346c-0.854-3.683-1.702-7.367-2.566-11.048
	c-3.023-12.872-6.087-25.736-9.274-38.568C217.592,387.969,216.618,379.991,214.132,374.927z M446.568,479.533l6.204-2.481
	l1.39-2.78C451.811,476.265,449.257,477.991,446.568,479.533z M406.909,189.612c4.893,1.214,9.572,0.517,14.075-1.049
	c0.276-0.123,0.578-0.235,0.867-0.308c4.992-1.865,9.767-4.732,14.368-7.202c6.793-3.646,14.619-7.868,22.62-7.013
	c4.985,0.532,10.092,2.337,15.117,2.132c6.295-0.256,13.031-5.482,9.404-12.054c-4.361-7.903-14.035-13.028-22.247-15.891
	c-9.427-3.286-20.295-5.432-30.063-2.412c-0.791,0.245-1.281,0.059-1.438-0.257c-14.88,1.796-34.077,11.715-34.525,28.72
	C394.895,181.608,399.714,187.826,406.909,189.612z M407.364,191.688c9.51,2.2,19.12,4.116,28.794,5.149
	c0.368-0.12,0.731-0.25,1.091-0.389c-5.551-0.759-10.732-3.843-15.67-6.457C417.001,191.526,412.058,192.37,407.364,191.688z
	 M329.391,104.499c0.011,0.095-0.023,0.187-0.086,0.274c0.297,0.242,0.595,0.482,0.892,0.722c1.272-0.173,2.527-0.429,3.772-0.728
	c-0.064-0.042-0.118-0.091-0.143-0.159c-1.075-2.925-3.146-3.469-5.697-2.463C328.399,103.027,329.276,103.493,329.391,104.499z
	 M286.062,115.743c0.951,1.548,2.33,2.906,4.097,3.965c8.304,4.976,21.962,6.042,31.842,3.594c0.105-0.978,1.914-1.536,2.613-1.089
	c0.092-0.01,0.178-0.015,0.244-0.005c0.356,0.051,0.708,0.114,1.063,0.169c0.108,0.017,0.216,0.034,0.324,0.051
	c11.173,1.788,21.383,5.778,29.06,13.705c0.533-0.019,1.043-0.056,1.536-0.11c2.322-0.253,4.21-0.88,5.708-1.798
	c8.021-4.915,4.963-18.057-1.292-25.459c-5.096-6.032-10.792-7.349-18.325-5.155c-3.758,1.095-7.457,2.308-11.296,3.019
	c3.866,2.982,7.931,5.453,13.245,5.664c1.441,0.057-1.26,1.214-1.877,1.189c-7.101-0.282-12.047-4.105-17.342-8.468
	c-3.047-2.51-6.23-5.153-10.186-6.044c-3.853-0.869-7.71-0.91-11.602-0.865c-0.063,0.014-0.125,0.027-0.187,0.036
	c-5.391,0.73-16.296,2.417-18.442,8.389c-1.078,2.999-0.873,5.96,0.413,8.486C285.783,115.262,285.916,115.505,286.062,115.743z
	 M333.909,206.622c0.705,1.435-2.03,2.561-2.643,1.315c-1.146-2.332-2.314-4.751-3.587-7.131
	c-0.994,8.871,2.945,21.583,13.538,18.276c9.12-2.847,16.519-23.099,6.154-27.803c0.54,2.417,1.136,4.821,1.846,7.198
	c0.254,0.851-2.634,1.657-2.897,0.776c-3.358-11.233-4.233-23.043-8.059-34.151c-0.043-0.125-0.006-0.25,0.078-0.37
	c-2.089-1.209-3.811-3.118-5.03-5.417c-0.335-0.632,2.444-1.632,2.897-0.776c1.515,2.855,5.813,7.705,9.667,6.045
	c3.409-1.468,4.411-6.531,3.333-9.746c-0.965-2.88-2.916-5.554-5.553-7.132c-1.161-0.696-3.602-2.072-4.786-0.708
	c-1.15,1.326-1.517,2.911-1.749,4.611c-0.028,0.206-0.229,0.395-0.513,0.548c-0.127,1.271-0.167,2.228-0.167,2.228l-1.333,0.667
	c0,0-6.667-2-10.333-11.333c-0.456-1.161-0.792-2.541-1.04-4.026c-1.142-4.503-1.353-9.417-1.63-14.345
	c-0.02-0.348-0.04-0.696-0.06-1.044c-1.791,0.404-3.617,0.691-5.462,0.871c-3.618,0.353-7.29,0.333-10.82,0.098
	c-3.028-0.201-6.789-0.455-10.384-1.226c-0.567,7.376,0.208,16.172-4.14,22.563c-1.524,2.241-4.376,3.456-6.69,4.679
	c-4.609,2.435,0.463,4.596,3.428,5.93c0.883-0.309,2.01-0.078,1.935,0.911c-0.446,5.847-2.669,12.643-1.16,18.447
	c1.813,6.976,14.652,2.538,20.125,3.943C321.963,183.882,328.331,195.273,333.909,206.622z M466.131,230.173
	c-3.581,0.454-7.14,0.727-10.56,0.875c10.825,3.617,19.558,11.94,25.038,22.174C479.412,244.319,472.388,234.585,466.131,230.173z
	 M495.265,217.019c6.769-7.141,6.721-16.951,0.404-24.429c-7.28-8.619-18.441-12.691-29.505-13.105
	c-6.382,1.386-12.619,7.514-17.661,11.18c-2.297,1.671-4.623,3.412-7.101,4.854c0.225-0.002,0.448,0.004,0.673-0.01
	c1.907-0.116-0.557,1.05-1.274,1.094c-0.494,0.03-0.984,0.036-1.471,0.024c-0.309,0.149-0.623,0.287-0.937,0.424
	c7.705,0.71,15.447,0.846,23.21,0.075c1.993-0.198,1.192,1.709-0.327,1.86c-21.541,2.14-43.027-2.392-63.848-7.494
	c-9.563-2.344-19.095-4.933-28.768-6.797c-7.379-1.422-15.418-2.889-22.897-1.279c0.351,1.811,0.706,3.622,1.083,5.427
	c0.042,0.003,0.087,0.004,0.126,0.012c15.131,3.169,7.083,28.032-4.14,31.535c-6.506,2.031-13.245,0.93-16.109-5.943
	c-2.045-4.907-2.89-11.591-1.259-16.768c0.042-0.133,0.124-0.255,0.233-0.366c-0.92-1.517-1.906-2.987-2.98-4.375
	c-1.271,0.517-2.523,1.068-3.763,1.642c1.172,22.885,0.04,51.263,26.333,59.873c0.084,0.027,0.132,0.063,0.165,0.101
	c0.077,0.089,0.03,0.202-0.103,0.324c3.039,0.88,6.133,1.609,9.27,2.179c10.54,1.917,21.514,2.142,32.152,0.992
	c3.039-0.329,6.044-0.78,9.009-1.324c0.593-0.109,1.188-0.209,1.777-0.326c13.77-2.734,34.002-8.674,37.786-24.431
	c0.127-0.529,1.587-0.9,2.373-0.829c0.325,0.03,0.538,0.133,0.489,0.335c-1.962,8.173-8.386,13.896-16.063,17.937
	c-1.482,0.779-3.009,1.496-4.562,2.156c-2.114,0.897-4.27,1.691-6.414,2.389c4.035,2.296,7.686,5.222,11.763,7.413
	c1.081,0.581,2.201,1.108,3.342,1.602c1.49,0.644,3.019,1.223,4.57,1.747c2.577,0.87,5.205,1.599,7.778,2.254
	c0.471,0.12,0.963,0.244,1.455,0.368c7.474,1.885,17.258,4.115,25.61,3.003c2.766-0.368,5.378-1.091,7.69-2.33
	c3.33-1.785,5.376-4.187,6.458-6.926c0.189-0.479,0.355-0.967,0.486-1.466c-0.044-0.11-0.086-0.221-0.131-0.332
	c-3.204-7.935-8.308-15.155-14.851-20.403c-3.851-3.089-8.198-5.497-12.951-6.958c-0.903-0.278-1.822-0.517-2.753-0.725
	c-3.937,0.039-7.865-0.079-11.786-0.293c-17.674-0.966-35.225-3.876-52.998-3.136c-1.942,0.081,0.248-1.401,1.182-1.439
	c17.681-0.737,35.023,2.242,52.595,3.162c0.821,0.043,1.642,0.077,2.464,0.111c0.542,0.022,1.084,0.048,1.627,0.066
	c0.565-0.294,1.348-0.574,1.657-0.567c2.173,0.045,4.289,0.28,6.345,0.674c4.948-0.041,9.923-0.323,14.824-0.976
	c0.533-0.541,1.78-0.911,2.365-0.522c0.067,0.044,0.134,0.096,0.202,0.142c2.202-0.358,4.39-0.781,6.542-1.324
	C481.907,225.267,489.958,222.618,495.265,217.019z M407.175,179.742c1.676-0.308,3.295-1.174,4.678-2.374
	c-2.971,0.167-6.809-0.483-6.916-4.078c-0.11-3.698,3.184-6.661,6.472-7.741c2.413-0.793,6.209-1.228,6.496,2.262
	c0.015,0.178,0,0.351,0.001,0.527c0.562,0.048,1.023,0.334,0.998,0.937c-0.235,5.689-5.694,11.416-11.204,12.427
	C405.909,182.031,405.338,180.079,407.175,179.742z M412.968,176.264c0.207-0.23,0.406-0.468,0.596-0.713
	c-0.888,0.285-2.935,0.496-1.899-0.191c1.868-1.24,3.303-3.583,3.366-5.862c0.037-1.333-0.667-4.091-2.629-3.325
	c-2.439,0.952-5.058,3.833-4.531,6.676C408.341,175.395,410.618,176.374,412.968,176.264z M423.611,155.1
	c1.838-2.735,5.692-3.446,8.902-3.128c0.044-0.025,0.082-0.045,0.104-0.055c0.62-0.275,1.338-0.455,2.02-0.392
	c0.428,0.04,0.863,0.114,1.292,0.221c0.129,0.032,0.257,0.07,0.384,0.108c2.712,0.805,4.976,2.929,3.058,5.999
	c-1.977,3.163-6.448,4.64-10.032,4.13C426.433,161.568,421.118,158.81,423.611,155.1z M433.68,152.818
	c-0.034,0.018-0.065,0.033-0.088,0.043c-0.569,0.252-1.387,0.524-2.02,0.392c-1.518-0.318-3.286-0.629-4.504,0.564
	c-0.69,0.676-1.214,1.643-1.108,2.64c0.303,2.846,3.794,4.512,6.373,4.503c0.103,0,0.206-0.01,0.309-0.019
	c0.945-0.078,1.908-0.493,2.701-1.127c1.058-0.846,1.813-2.077,1.808-3.414C437.143,154.253,435.506,153.249,433.68,152.818z
	 M448.554,162.496c0.887-1.804,2.295-3.295,4.008-4.296c-0.002,0-0.004-0.001-0.006-0.002c-1.654-0.467,0.807-1.887,1.763-1.617
	c0.542,0.153,1.074,0.366,1.572,0.629c0.138,0.073,0.272,0.152,0.405,0.233c1.994,1.218,3.291,3.304,2.197,5.798
	c-1.237,2.82-5.164,4.221-8.056,3.925C447.776,166.893,447.542,164.553,448.554,162.496z M451.395,165.357
	c0.026,0.013,0.039,0.035,0.066,0.046c1.726,0.709,4.156-1.01,4.444-2.725c0.258-1.543-0.439-2.779-1.553-3.601
	c-1.205,0.627-2.217,1.862-2.826,2.993c-0.078,0.145-0.174,0.346-0.27,0.567C450.862,163.543,450.487,164.9,451.395,165.357z
	 M207.711,192.799c-0.602,0.006-3.297,1.193-1.881,1.179c14.275-0.143,28.374-3.174,42.667-2.667
	c0.609,0.021,3.315-1.127,1.881-1.179C236.075,189.625,221.988,192.656,207.711,192.799z M341.554,156.665
	c-0.316-1.024-0.424-2.506,0.816-2.957c0.549-0.199,1.381-0.642,1.184-1.377c-0.179-0.667-1.164-0.8-1.714-0.601
	c-1.261,0.457-2.258,1.081-2.985,2.229c-0.646,1.019-0.537,2.385-0.198,3.481C339.066,158.771,341.959,157.979,341.554,156.665z
	 M325.279,153.13c-1.853-3.292-9.138-7.531-11.797-2.523c-2.101,3.958,1.553,8.108,5.684,7.063c1.793-0.454,1.273-2.359-0.511-1.908
	c-1.875,0.475-2.767-1.968-2.849-3.356c-0.154-2.616,3.239-1.583,4.321-0.994c1.373,0.749,2.219,2.36,2.782,3.723
	c1.211,2.928,0.107,6.013-2.683,7.494c-2.494,1.323-5.994-0.556-8.213-1.636c-5.966-2.903-11.42-5.525-17.569-1.555
	c-1.652,1.067,0.759,1.995,1.904,1.256c7.576-4.891,14.053,5.053,21.714,4.375C323.965,164.546,328.529,158.907,325.279,153.13z" fill="#000000"></path>
</svg>