<?xml version="1.0" standalone="no"?>
<svg version="1.1" id="Layer_1" xmlns="http://www.w3.org/2000/svg" xmlns:xlink="http://www.w3.org/1999/xlink" x="0px" y="0px" viewBox="0 0 595.3 595.3" enable-background="new 0 0 595.3 595.3" xml:space="preserve">
<path id="color_x5F_8" fill="#9b9b9b" d="M375.1,506.3l-3.8,0.1h-1l0.6,6.4c0.3,3.4-2,6.7-4.1,9.4l-4,5.2c-1.7,2.2-2.4,5.1-1.7,7.9
	l0.5,1.9c0.2,0.7,1,0.9,1.5,0.5l32.3-27.7c0.6-0.5,0.6-1.5,0-2.1c-4.1-3.8-11.1-7.1-11.1-7.1l-1,0.8l-4.4,3.4
	C377.7,505.8,376.5,506.2,375.1,506.3z M368.6,505.5l1-0.8l9.8-8.4l1.2-1c-1.1-2.4-2.4-4.8-3.7-7.1c-0.1-0.2-0.2-0.4-0.4-0.6
	c-2.6-4.5-5.5-8.9-8.7-13l-5.2,12.5l-3.7,9C362.5,499.4,365.8,502.6,368.6,505.5z M350,456.8c1.8,5.1,3.1,10.4,4,15.9l2-11
	c-2-1.8-4.1-3.6-6.2-5.3C349.9,456.5,349.9,456.7,350,456.8z M350.5,525.3l-1.3-0.1l-5.6-0.3c-1.3-0.1-2.6-0.6-3.6-1.4l-3-2.4
	l-0.8-0.6l-3.8,5.2c-2,2.7-5.9,3.8-9.2,4.5l-6.4,1.3c-2.8,0.6-5.1,2.4-6.4,4.9l-0.9,1.8c0,0.1,0,0.1-0.1,0.2h44.8c0-0.1,0-0.3,0-0.4
	C353.8,532.4,350.5,525.3,350.5,525.3z M275.7,259c0.2-0.5,1-0.3,1,0.2c-0.2,2.2-0.4,4.3-0.2,6.5v0.1c0.1-0.1,0.2-0.2,0.4-0.2
	c-0.4-2.8,0.2-5.9,1.3-8.4c0.2-0.5,1-0.3,1,0.2c-0.2,2.2-0.4,4.3-0.2,6.5c0,0.3,0.1,0.5,0.1,0.8l0,0c-0.1-2.5,0.4-5.1,1.4-7.3
	c0.2-0.5,1-0.3,1,0.2c-0.2,2.2-0.4,4.3-0.2,6.5c0,0.1,0,0.2,0,0.3c0.1,0,0.2,0,0.4,0c0-2.3,0.6-4.6,1.4-6.5c0.2-0.5,1-0.3,1,0.2
	c-0.2,2.2-0.4,4.3-0.2,6.5c1,1.5,1.9,2.9,2.5,4.4h8.8l-6.7-41.5h-27h-1.2L267,269h1.2h6.8C273.9,265.7,274.5,261.9,275.7,259z
	 M487.4,377.1v1.1v1.8v103.2v55.9h2.6h0.1v-0.7v-67.6v-93.7L487.4,377.1L487.4,377.1z M532.4,538.4H516h-9.1h-3.3h-5.2h-3.3h-4.7
	h-3.2h-5.9h-3h-7.2H468h-1.1h-3.2h-2.6h-2.9c-0.1-3.9-2.3-7.3-5.4-9.2c-1.6-0.9-3.4-1.4-5.4-1.4H447h-14.6v-74.5v-1v-17.5h17.9h1
	h2.9c5.8,0,10.4-4.7,10.4-10.4c0-1.6-0.4-3.1-1-4.5c-0.1-0.2-0.2-0.5-0.4-0.7c-1.8-3.1-5.2-5.3-9.1-5.3h-11.6
	c-2.9,3.1-6.3,5.8-10.2,7.7v-30.3v-11.8c0-0.9-0.1-1.7-0.2-2.4h-2.3c-0.1,0.7-0.2,1.5-0.2,2.4v12.2v31.1c-1.9,0.8-4,1.4-6.1,1.8
	c-9.5,1.9-19.5,2.4-28.1,2.3c1.4,2.5,2.7,5.1,3.8,7.8h15.9v30.9v0.9v43.6c1.1,1,1.6,2.4,1.7,3.7l0,0l1.9,18.9l-1.8,0.4l-1.8-5.5
	h-6.5l-6.2,8.9l-11.2,2.6l4.2-4.8l2.2-6.7h-7.9c-5.9,0-10.7,4.7-10.8,10.6h-24.7h-44.8h-22.7c-0.1,0.3-0.4,0.5-0.8,0.4l-12.4-0.4
	h-28.7v-20.7c0.7,0.9,1.4,1.8,2.2,2.7l1.3-0.6l10.9-4.8l1.1-0.5c-1.5-4.1-3-8.4-4.5-12.7c-0.1-0.2-0.2-0.5-0.2-0.7
	c-4-11.6-7.8-23.6-10.7-35.3v-34.4v-1v-51c0-0.9-0.1-1.7-0.2-2.4h12h54.5h3.6l3,59.5v0.9l0.4,7.1c0.5,9.9,5,19.3,12.5,25.8
	c0.1,0.1,0.2,0.2,0.3,0.3c-0.9-5.9-2-11.9-3.3-17.8c-5.2-23.1-6.6-50.3-7.3-75.8h39.8h36.9h30.6V372h-29.5H394h-32l-9.9-42.7h-34.9
	h-28.6h-1.9l9.9,42.7h-25.3l9.9-42.7h-1.9h-63.6l-9.9,42.7h-32h-33.5v4.8h41.3h60.7c-0.1,0.7-0.2,1.5-0.2,2.4v75.4
	c-0.3-0.4-0.6-0.7-0.8-1.1c-7-9.5-15.5-19-24.5-28.2c-1.7,5.4-4.5,14.7-7.8,25.5c6,4,11.4,8.2,15.6,12.8c0.2,1.3,0.4,2.5,0.5,3.8
	c0.7,9.4,3.1,18.9,6.9,27.8c0.1,0.3,0.3,0.6,0.4,0.9c2.7,6.2,6,12.1,9.7,17.6v24.4h-30.3c0.2,0.7-0.4,1.3-1,1.2l-6.9-1.2h-5.2
	c0-0.3,0-0.6-0.1-0.9l-27.8-4.8c-0.8-0.1-1.3-1-1-1.8c0.3-1,0.6-2.1,1.1-3.1h-8.5v-5.1v-8.5v-7.2v-7.2v-8.2v-5.7v-6.2v-18.9v-1
	v-24.9H180c3.1,1.6,6.3,3.3,9.4,5c0.9-0.9,1.8-1.6,2.8-2.2c-13.6-3.8-28.1-5.6-42.4-8.3c-4.4-0.8-8.4-2.6-11.8-5V395v-15.5
	c0-0.9-0.1-1.7-0.2-2.4h-2.3c-0.1,0.7-0.2,1.5-0.2,2.4v14.8v28c-2.7-2.4-4.9-5.2-6.6-8.4h-5.3c-1.5,0-2.9,0.3-4.1,0.9
	c-0.2,0.1-0.5,0.2-0.7,0.3c-3.3,1.7-5.6,5.2-5.6,9.2c0,5.8,4.7,10.4,10.4,10.4h11h0.9v1v34.9v5.5v16.1v35.5H131h-0.8
	c-0.8,0-1.5,0.1-2.3,0.2c-3.8,0.8-6.8,3.5-8,7.1c-0.3,1-0.5,2.1-0.6,3.2h-1.9h-1.1h-3.2h-2.6H107h-5.8H81.7c-2,0-3.6,1.6-3.6,3.6
	s1.6,3.6,3.6,3.6h450.7c2,0,3.6-1.6,3.6-3.6S534.3,538.4,532.4,538.4z M138.2,478.1v-39.5v-1.1v-2.7h17.7v19.5v1v20.2v5.8v8.2V514
	v7.5v6.2h-2.8h-3.4h-6.9h-3.2h-1.5L138.2,478.1L138.2,478.1z M421.9,461.8v-0.9v-26h7.8v19.8v1v72.2h-7.8V461.8z M442.6,344.8
	c-0.2,5.3,2.2,11.2,4.9,19.4h8.9c6.1,0,11-4.9,11-11v-23c0-6.1-4.9-11-11-11h-6.7c-1.7,6.3-3.4,10.7-5,16.1
	C444.1,338.4,443.3,341.5,442.6,344.8z M428,392c-12,1.4-24.6,0.4-34-3.6l-27.6,16.8L428,392z M286.9,537.6l-0.8-1.7
	c-1.1-2.4-3.2-4.1-5.7-4.7l-5.9-1.4c-3-0.7-6.6-1.8-8.4-4.4l-3.3-5l-1.3,1l-2.3,1.7c-1,0.7-2.1,1.1-3.4,1.1l-5,0.1h-1.3
	c0,0-3.2,6.4-3.9,11.5c-0.1,0.8,0.5,1.5,1.2,1.5l26.8,1l12.4,0.4c0.3,0,0.6-0.2,0.8-0.4C286.9,538.2,287,537.9,286.9,537.6z
	 M181.4,392c-5.1,1.9-10.3,3.2-15.7,4c13.2,5.4,26.6,11.3,38.7,17.4C196.7,406,188.9,398.8,181.4,392z M120.8,362
	c-2.5-11.2-3.7-23.5-4.4-35.6c-0.1-2-0.2-3.9-0.3-5.9c-3.4,1.9-5.7,5.5-5.7,9.6v23c0,6.1,4.9,11,11,11h7c0-0.5,0-0.9-0.1-1.4
	C124.2,362.7,121.4,362.4,120.8,362z M211.4,536.4c-0.7-2.8-2.6-5-5.1-6l-5.8-2.3c-3-1.2-6.5-2.9-7.9-6l-2.6-5.9l-0.9,0.5l-3.2,1.9
	c-1.1,0.7-2.4,0.9-3.6,0.8l-5.3-0.6l-1.2-0.1c0,0-2.8,4.4-4.7,9.1c-0.4,1-0.8,2.1-1.1,3.1c-0.2,0.8,0.2,1.7,1,1.8l27.8,4.8l5.3,0.9
	l6.9,1.2c0.6,0.1,1.2-0.5,1-1.2l0,0L211.4,536.4z"></path>
<path id="color_x5F_7" fill="#9b9b9b" d="M397.5,191.3c-0.2,0.2-0.2,0.5,0,0.7c0.9,0.9,1.7,1.8,2.5,2.7c0.1,0.1,0.2,0.1,0.3,0.1
	c0.1,0,0.2,0,0.3-0.1c0.2-0.2,0.2-0.5,0-0.7c-0.8-0.9-1.7-1.8-2.5-2.7C398,191.2,397.7,191.2,397.5,191.3z M176.7,204.2
	c-0.8,1-1.5,2-2.2,3c-0.1,0.2-0.1,0.5,0.1,0.6c0.1,0.1,0.2,0.1,0.3,0.1s0.3-0.1,0.4-0.2c0.7-1,1.5-2,2.2-3c0.2-0.2,0.1-0.5-0.1-0.6
	C177.2,204,176.9,204,176.7,204.2z M314.3,437.6c0,0.2,0.2,0.4,0.5,0.4c0,0,0,0,0.1,0c1-0.1,2-0.3,3-0.5v-0.9
	c-1,0.2-2.1,0.3-3.1,0.5C314.4,437.1,314.2,437.3,314.3,437.6z M353.6,426.4c0.1,0,0.1,0,0.2,0c1.1-0.5,2.2-1,3.4-1.6
	c0.2-0.1,0.3-0.4,0.2-0.6c-0.1-0.2-0.4-0.3-0.6-0.2c-1.1,0.5-2.2,1.1-3.3,1.6c-0.2,0.1-0.3,0.4-0.2,0.6
	C353.3,426.3,353.5,426.4,353.6,426.4z M390.2,184.3c-0.2,0.2-0.2,0.5,0,0.7c0.9,0.8,1.8,1.7,2.7,2.5c0.1,0.1,0.2,0.1,0.3,0.1
	c0.1,0,0.2,0,0.3-0.1c0.2-0.2,0.2-0.5,0-0.7c-0.9-0.9-1.8-1.7-2.7-2.5C390.6,184.1,390.4,184.1,390.2,184.3z M248,432.5
	c0.2,0,0.4-0.1,0.4-0.3c0.1-0.2-0.1-0.5-0.3-0.6c-1.1-0.3-2.1-0.7-3.2-1.1v1c1,0.3,1.9,0.7,2.9,1C247.9,432.5,247.9,432.5,248,432.5
	z M382.4,177.8c-0.2,0.2-0.1,0.5,0.1,0.6c1,0.8,1.9,1.5,2.9,2.3c0.1,0.1,0.2,0.1,0.3,0.1c0.1,0,0.3-0.1,0.4-0.2
	c0.2-0.2,0.1-0.5-0.1-0.6c-1-0.8-1.9-1.6-2.9-2.3C382.8,177.5,382.5,177.6,382.4,177.8z M232,160c-1.1,0.5-2.2,1-3.3,1.6
	c-0.2,0.1-0.3,0.4-0.2,0.6c0.1,0.2,0.2,0.3,0.4,0.3c0.1,0,0.1,0,0.2,0c1.1-0.5,2.2-1.1,3.3-1.6c0.2-0.1,0.3-0.4,0.2-0.6
	C232.5,160,232.2,159.9,232,160z M277.9,437.9c-1.2-0.1-2.5-0.3-3.7-0.4c-0.2,0-0.5,0.1-0.5,0.4s0.1,0.5,0.4,0.5
	c1.2,0.2,2.5,0.3,3.7,0.4l0,0c0.2,0,0.4-0.2,0.5-0.4C278.3,438.1,278.1,437.9,277.9,437.9z M267.8,436.5c-1.2-0.2-2.4-0.4-3.6-0.7
	c-0.3-0.1-0.5,0.1-0.5,0.4s0.1,0.5,0.4,0.5c1.2,0.2,2.4,0.5,3.7,0.7h0.1c0.2,0,0.4-0.2,0.5-0.4C268.2,436.8,268,436.5,267.8,436.5z
	 M294.4,439.6L294.4,439.6c1.2,0,2.5,0,3.7-0.1c0.3,0,0.5-0.2,0.4-0.5c0-0.3-0.2-0.4-0.5-0.4c-1.2,0-2.5,0.1-3.7,0.1
	c-0.3,0-0.5,0.2-0.5,0.5C294,439.4,294.2,439.6,294.4,439.6z M257.9,434.4c-1.2-0.3-2.4-0.6-3.6-0.9c-0.2-0.1-0.5,0.1-0.6,0.3
	s0.1,0.5,0.3,0.6c1.2,0.3,2.4,0.6,3.6,0.9h0.1c0.2,0,0.4-0.1,0.4-0.4C258.3,434.7,258.1,434.4,257.9,434.4z M304.6,439.1
	L304.6,439.1c1.3-0.1,2.5-0.2,3.7-0.3c0.3,0,0.4-0.3,0.4-0.5c0-0.3-0.3-0.4-0.5-0.4c-1.2,0.1-2.4,0.2-3.7,0.3
	c-0.3,0-0.4,0.2-0.4,0.5C304.2,438.9,304.4,439.1,304.6,439.1z M165.4,221.3c-0.6,1.1-1.2,2.2-1.8,3.3c-0.1,0.2,0,0.5,0.2,0.6
	c0.1,0,0.1,0.1,0.2,0.1c0.2,0,0.3-0.1,0.4-0.2c0.6-1.1,1.2-2.2,1.8-3.2c0.1-0.2,0-0.5-0.2-0.6C165.8,221,165.6,221,165.4,221.3z
	 M170.8,212.5c-0.7,1-1.4,2.1-2,3.1c-0.1,0.2-0.1,0.5,0.1,0.6c0.1,0,0.2,0.1,0.2,0.1c0.2,0,0.3-0.1,0.4-0.2c0.7-1,1.3-2.1,2-3.1
	c0.1-0.2,0.1-0.5-0.1-0.6C171.2,212.3,170.9,212.3,170.8,212.5z M362.3,421.6c0.1,0.2,0.2,0.2,0.4,0.2c0.1,0,0.2,0,0.2-0.1
	c0.1-0.1,0.3-0.1,0.4-0.2l0.2-1.2c-0.3,0.2-0.7,0.4-1,0.6C362.3,421.1,362.2,421.4,362.3,421.6z M288,439.5c0.2,0,0.5-0.2,0.5-0.4
	c0-0.3-0.2-0.5-0.4-0.5c-1.2,0-2.5-0.1-3.7-0.2c-0.2,0-0.5,0.2-0.5,0.4s0.2,0.5,0.4,0.5C285.5,439.4,286.7,439.4,288,439.5
	L288,439.5z M404.4,198.9c-0.2,0.2-0.2,0.5-0.1,0.7c0.8,0.9,1.6,1.9,2.3,2.9c0.1,0.1,0.2,0.2,0.4,0.2c0.1,0,0.2,0,0.3-0.1
	c0.2-0.2,0.2-0.4,0.1-0.6c-0.8-1-1.6-1.9-2.4-2.9C404.9,198.7,404.6,198.7,404.4,198.9z M216.6,418.1c1.1,0.6,2.1,1.3,3.2,1.9
	c0.1,0,0.2,0.1,0.2,0.1c0.2,0,0.3-0.1,0.4-0.2c0.1-0.2,0.1-0.5-0.2-0.6c-1.1-0.6-2.1-1.2-3.2-1.9c-0.2-0.1-0.5-0.1-0.6,0.2
	C216.3,417.7,216.4,418,216.6,418.1z M225.5,423.1c1.1,0.6,2.2,1.1,3.3,1.7c0.1,0,0.1,0,0.2,0c0.2,0,0.3-0.1,0.4-0.3
	c0.1-0.2,0-0.5-0.2-0.6c-1.1-0.5-2.2-1.1-3.3-1.7c-0.2-0.1-0.5,0-0.6,0.2C225.2,422.7,225.3,423,225.5,423.1z M211.1,414.6
	c0.1,0.1,0.2,0.1,0.3,0.1s0.3-0.1,0.4-0.2c0.1-0.2,0.1-0.5-0.1-0.6c-1-0.7-2-1.4-3-2.1c-0.2-0.1-0.5-0.1-0.6,0.1s-0.1,0.5,0.1,0.6
	C209.1,413.2,210.1,413.9,211.1,414.6z M187.7,394.9c0.1,0.1,0.2,0.1,0.3,0.1s0.2,0,0.3-0.1c0.2-0.2,0.2-0.5,0-0.7
	c-0.9-0.9-1.7-1.8-2.5-2.7c-0.2-0.2-0.5-0.2-0.7,0s-0.2,0.5,0,0.7C186,393.1,186.8,394,187.7,394.9z M202.9,408.5
	c0.1,0.1,0.2,0.1,0.3,0.1s0.3-0.1,0.4-0.2c0.2-0.2,0.1-0.5-0.1-0.6c-1-0.8-1.9-1.5-2.9-2.3c-0.2-0.2-0.5-0.1-0.6,0.1
	c-0.2,0.2-0.1,0.5,0.1,0.6C200.9,407,201.9,407.8,202.9,408.5z M234.8,427.5c1.1,0.5,2.3,1,3.4,1.4c0.1,0,0.1,0,0.2,0
	c0.2,0,0.4-0.1,0.4-0.3c0.1-0.2,0-0.5-0.3-0.6c-1.1-0.5-2.3-0.9-3.4-1.4c-0.2-0.1-0.5,0-0.6,0.2
	C234.4,427.2,234.5,427.4,234.8,427.5z M195,402c0.1,0.1,0.2,0.1,0.3,0.1s0.3-0.1,0.3-0.2c0.2-0.2,0.2-0.5,0-0.7
	c-0.9-0.8-1.8-1.7-2.7-2.5c-0.2-0.2-0.5-0.2-0.7,0s-0.2,0.5,0,0.7C193.2,400.3,194.1,401.1,195,402z M291.4,147.7
	c0.3,0,0.5-0.2,0.5-0.5s-0.2-0.4-0.5-0.5c-0.8,0-1.6,0-2.4,0.1v0.9C289.8,147.7,290.6,147.7,291.4,147.7z M410.7,206.9
	c-0.2,0.1-0.3,0.4-0.1,0.6c0.7,1,1.4,2,2.1,3c0.1,0.1,0.2,0.2,0.4,0.2c0.1,0,0.2,0,0.3-0.1c0.2-0.1,0.3-0.4,0.1-0.6
	c-0.7-1-1.4-2-2.1-3C411.2,206.8,410.9,206.7,410.7,206.9z M181.5,199.7c0.1-0.1,0.2-0.3,0.3-0.4l-0.7,0.6
	C181.3,199.9,181.4,199.8,181.5,199.7z M219.9,167.3c0.1,0,0.2,0,0.2-0.1c1.1-0.6,2.1-1.2,3.2-1.8c0.2-0.1,0.3-0.4,0.2-0.6
	c-0.1-0.2-0.4-0.3-0.6-0.2c-0.2,0.1-0.3,0.2-0.5,0.3l-2.8,2.4C219.7,167.3,219.8,167.3,219.9,167.3z M437.4,275.8
	c0.1,0.3,0.2,0.5,0.3,0.8c0.1,0,0.1,0.1,0.2,0.1c0,0,0,0,0.1,0c0.3,0,0.4-0.3,0.4-0.5c-0.1-0.8-0.2-1.5-0.3-2.3h-0.9
	C437.3,274.5,437.4,275.2,437.4,275.8z M296.1,268.9l-6.7-41.5h-1.2l6.7,41.5H296.1z M353.6,508.9L353.6,508.9l-11.5,3l-4.6-2.7
	l4.6,2.7L353.6,508.9z M339.9,518.6h10h1.5c0.2-0.7,0.4-1.4,0.5-2.1l0.8-4L339.9,518.6z M334.4,501.1c0.3,3.4,0.5,6.8,0.8,10.2
	l2.4-2.2l12.6-14.9l1.8-10l2.1-11.6c-0.9-5.5-2.2-10.8-4-15.9c-0.1-0.1-0.1-0.3-0.1-0.4c-3.1-8.9-3.2-18.1-1.9-27.5
	c0.2-0.1,0.3-0.3,0.2-0.6c0-0.1-0.1-0.1-0.1-0.1c2.4-16.7,9.3-34,12-51.1h-39.8c0.7,25.5,2.2,52.7,7.3,75.8
	c1.3,5.9,2.4,11.9,3.3,17.8c1.5,9.9,2.6,19.8,3.4,29.8C334.3,500.7,334.3,500.9,334.4,501.1z M451.3,385.5c-0.9,0.4-1.8,0.9-2.8,1.3
	l-3.4-9.7h-0.6l-0.8,11.5c-3.6,1.2-7.4,2.1-11.3,2.8v30.3c3.9-1.9,7.3-4.6,10.2-7.7C449.4,406.5,452.8,396.2,451.3,385.5z
	 M366.4,405.1l0.1,0.2l0.1-0.1l5.4,3.4c6.3,4,10.5,10.7,11.3,17.9c3.5,0.2,7.7,0.4,12.3,0.4c8.6,0,18.6-0.5,28.1-2.3
	c2.1-0.4,4.2-1,6.1-1.8v-31.1c-0.6,0.1-1.2,0.2-1.8,0.2L366.4,405.1z M363.2,369.3l-0.9-4.2l-2.7-11.3l-5.6-24.2h-1.9l9.9,42.7h32
	l-0.7-3H363.2z M427.5,377.1h2.4h2.3h12.3h0.6h6.1h36.2h2.7h7.1v-4.8h-6.4h-0.7h-2.7H450h-22.5V377.1z M204.4,413.4
	c-12.1-6-25.5-11.9-38.7-17.4c-9.2,1.3-18.6,1-27.6-1.1v29.4c3.4,2.4,7.4,4.1,11.8,5c14.3,2.7,28.8,4.5,42.4,8.3
	c-1,0.6-1.9,1.3-2.8,2.2c-5.7,5.7-8.6,17.8-10.4,31.6c0,0.3-0.1,0.6-0.1,0.8c-0.9,7.6-1.5,15.7-2,23.6c-0.3,4.2-0.5,8.3-0.7,12.2
	c-0.1,1.3-0.2,2.6-0.2,3.8l1,0.2l0.4,0.1l12.1,2.1l1.2,0.2c1.6-6.8,4.8-18.2,8.5-30.8c0.1-0.3,0.1-0.5,0.2-0.8
	c3.1-10.5,6.4-21.7,9.5-31.7c3.3-10.8,6.2-20.1,7.8-25.5c1-3.1,1.5-4.9,1.5-4.9C214,418.3,209.3,415.8,204.4,413.4z M135.5,422.3
	v-28c-3.1-0.8-6.1-1.9-9-3.2c-2.3,7.9-1.2,16.1,2.4,22.8C130.6,417.1,132.8,419.9,135.5,422.3z M204.7,369.3h-23.2h-6.9l-0.7,3h32
	l9.9-42.7h-1.9l-5,21.6l-2,8.4L204.7,369.3z M138,377.1h2.4v-4.8h-12.1H70.7v4.8h57.1h7.9H138z"></path>
<path id="color_x5F_5" fill="#FFD2BB" d="M359.6,353.8l2.6,11.3c2.2,0.4,4.3,0.3,6.3-0.5c0.8-0.3,1.4-0.9,1.8-1.6
	c1.7-0.4,3.4-0.8,5.1-0.9c3.5,1.6,6.9,2.8,10.2,1.7c1.3-0.4,2.3-1.4,2.7-2.7c4.3-0.3,8.3-0.5,12.1-0.6c3.7-0.1,7.3-0.2,10.7-0.3
	c-0.7-4-0.6-8.1-0.1-12.1c-6.4,1.7-13.1,3.6-18.6,4.9c-0.3-2.3-0.5-4.7-0.5-7c-5.1,2.1-10.4,4.2-15.1,6c-2.5,0.1-5,0.9-7.2,2
	c-1.6-0.3-3.2-0.4-4.8-0.4c-1.2,0-2.3,0.1-3.5,0.2C360.8,353.7,360.2,353.7,359.6,353.8z M372,408.6l-5.4-3.4l-0.1,0.1l-0.2,0.2
	l-2.7,14.9l-0.2,1.2l-7.3,40.1l-2,11l-2.1,11.6l-1.8,10l-12.6,14.9l4.5,2.7l11.5-2.9l1.4-0.4l3.9-8.8l-0.7-2.2l0.6-1.6l3.7-9
	l5.2-12.5l10.6-25.7c0.7-1.7,1.3-3.3,1.9-5l12.4,35.9l0.3,0.7l5.8,16.9l3.3,9.6l-3.6,19.1l5.3,0.1l9.6-9.2l-0.9-9.6l0,0l0,0
	l-1.7-1.6l-1.4-11.4l-2.7-22l-0.1-0.8l-2.2-18.3c-0.8-6.4-2.4-12.6-4.9-18.5c-1.1-2.7-2.4-5.3-3.8-7.8c-4.6,0-8.8-0.2-12.3-0.4
	C382.5,419.3,378.3,412.6,372,408.6z M423.2,289.1l1.5-0.2c0.4-2.8,0.7-5.6,1.1-8.4c3.8-1.5,7.4-3.6,10.5-6.3v-0.4l-0.7-10.8h-0.1
	c0.2-1.1,0.4-2.2,0.4-3.3l-2.9-2.3c-5.3-1.1-10.4-3.2-15-6.3c-5.3-3.6-10.2-8.3-12.9-13.9l2.4,26.8v0.1c0,6.2,5.1,11.2,8.8,11.2h4
	c0.7,0,1.5-0.1,2.2-0.2l0.4,6.1l0,0L423.2,289.1z M371.3,506.4l3.8-0.1c1.3,0,2.6-0.5,3.6-1.3l4.4-3.4l-3.8-5.4l-9.8,8.4
	L371.3,506.4z M337,520l0.1,1.1l3,2.4c1,0.8,2.3,1.3,3.6,1.4l5.6,0.3l0.6-6.6h-10L337,520z M336.1,252.1c4-4.3,8.5-8.1,13.7-10.6
	l-0.2-1.9l-0.9-10.6l-0.1-1.2c0.3-1.1,0.4-2.3,0.4-3.5c1.2-0.6,2-1.8,2-3.2v-2.5c0-2-1.6-3.6-3.6-3.6s-3.6,1.6-3.6,3.6v1.4h-2
	l-2.3-11.8l-3-1.5l-1-5.7h-15.9v8.4v19.1c0,5.9,4.8,10.7,10.7,10.7h2.5l0.4,5l0.7,8.1L336.1,252.1z M306.4,295.3
	c0.6,0,1.2-0.1,1.8-0.1c-0.1-0.2-0.2-0.4-0.3-0.5l-4.1-3.5l-17.6-14.9c1.2-2.6,0.9-5,0-7.4c-0.6-1.5-1.5-2.9-2.5-4.4
	c-0.2-2.1-0.1-4.3,0.2-6.5c0.1-0.5-0.7-0.7-1-0.2c-0.8,1.9-1.4,4.2-1.4,6.5c-0.1,0-0.2,0-0.4,0c0-0.1,0-0.2,0-0.3
	c-0.2-2.1-0.1-4.3,0.2-6.5c0.1-0.5-0.7-0.7-1-0.2c-0.9,2.1-1.5,4.8-1.4,7.3l0,0c0-0.3-0.1-0.5-0.1-0.8c-0.2-2.1-0.1-4.3,0.2-6.5
	c0.1-0.5-0.7-0.7-1-0.2c-1.1,2.5-1.6,5.6-1.3,8.4c-0.1,0.1-0.2,0.2-0.4,0.2v-0.1c-0.2-2.1-0.1-4.3,0.2-6.5c0.1-0.5-0.7-0.7-1-0.2
	c-1.3,2.9-1.8,6.7-1,9.9c0.1,0.4,0.2,0.8,0.4,1.2c0.5,3.3,1.6,6.4,3.3,9.3l8.9,16.5c-9.6,0.2-19.2,0.5-26.6,1.2l0,0
	c-3.3-0.2-6.6,0.3-9.7,1.4c-3.6,0.3-7.3,2.9-9.6,5.7c-0.3,0.4,0.2,1,0.6,0.8c1.8-1.2,3.6-2.4,5.6-3.2h0.1c0,0.1,0,0.3-0.1,0.4
	c-2.7,1-5.2,3-6.9,5c-0.3,0.4,0.2,1,0.6,0.8c1.8-1.2,3.6-2.4,5.6-3.2c0.2-0.1,0.5-0.2,0.8-0.3l0,0c-2.3,1.1-4.3,2.8-5.8,4.6
	c-0.3,0.4,0.2,1,0.6,0.8c1.8-1.2,3.6-2.4,5.6-3.2c0.1,0,0.2-0.1,0.3-0.1c0.1,0.1,0.1,0.2,0.2,0.3c-2,1.1-3.8,2.6-5.1,4.2
	c-0.3,0.4,0.2,1,0.6,0.8c1.8-1.2,3.6-2.4,5.6-3.2c4.5,0.5,8.6,0.4,11.5-3.2c15.4,5.6,31.6,9.3,47.9,10.8
	C307.8,309.4,305.9,302.2,306.4,295.3z M255.9,524.3c1.2,0,2.4-0.4,3.4-1.1l2.3-1.7l-2.2-6.4l-10.9,4.8l2.5,4.5L255.9,524.3z
	 M183.9,356.4c-2.8-1-6.2-2-9.8-3.2l0,0c-0.2-0.1-0.5-0.1-0.7-0.2c-0.5-0.2-1-0.3-1.5-0.5v0.1c-8.8-2.2-18.3-4.5-25.1-6.1l0,0l0,0
	c-1.3,3.4-1.8,6.8-1.9,10.3c0,0.7,0,1.4,0,2.1c0,1.4,0.1,2.8,0.3,4.2c10.6,0,19.5-2.4,23.1-2.9c3.8,3,10.4,1.7,12.5,1.2
	c0.7,0.2,1.5,0.5,2.2,0.8c0.6,0.3,1.3,0.6,1.9,1c0.2,1,0.5,1.9,0.7,2.9c3.1-0.5,6.1-1.3,8.8-2c0.4,0.2,0.9,0.4,1.3,0.6
	c0.7,0.4,1.4-0.5,0.9-1.1l-0.1-0.1c4.6-1.5,8.3-3,10.6-3.8l2-8.4c-8.7-0.7-18-1.3-24.6-1.7C183.8,351.8,183.7,354.1,183.9,356.4z
	 M182.3,519.4c1.2,0.1,2.5-0.1,3.6-0.8l3.2-1.9l0.6-2.5l-12.1-2.1l-0.6,6.7L182.3,519.4z M151.9,285.4l0.8-9.1h2.5
	c6.1,0,11-4.9,11-11v-19.9v-8.3h-16.3l-1,5.8l-3,1.6l-2.4,12.2h-2.1v-1.5c0-2-1.7-3.7-3.7-3.7l0,0c-2,0-3.7,1.7-3.7,3.7v2.6
	c0,1.4,0.8,2.7,2,3.3l0,0c0,1.2,0.2,2.4,0.4,3.6l-0.3,3.4l-0.7,8.7C141.3,278.7,146.9,281.6,151.9,285.4z"></path>
<path id="color_x5F_3" fill="#0c0c0c" d="M335.5,200.9l1,5.7l3,1.5l2.3,11.8h2v-1.4c0-2,1.6-3.6,3.6-3.6s3.6,1.6,3.6,3.6v2.5
	c0,1.4-0.8,2.6-2,3.2c0,1.2-0.2,2.4-0.4,3.5l0.1,1.2c2.8-5.8,4.8-12,5.8-18.4c0.3-2.2,0.6-4.5,0-6.7c-0.5-2.2-1.9-4.3-4-5.1
	c0.3-5.5-2.9-10.2-8.1-12.1s-11-1.3-16.4-0.3c-1.3,0.2-2.7,0.5-4,0.4c-1.3-0.2-2.7-0.8-3.3-2c-4.5,3.4-7.1,9.2-6,14.7
	c0.8,4,3.4,7.6,6.9,9.8v-8.4L335.5,200.9L335.5,200.9z M417.8,251.2c4.6,3.1,9.7,5.2,15,6.3l2.9,2.3c0,1.1-0.1,2.2-0.4,3.3h0.1
	l0.7,10.8h0.5h0.4h0.9h8c2.4-2.9,4.3-6.2,5.5-9.8c3.6-10,2.4-21.7-2.5-31.1c-5-9.6-14-16.8-24-18.3s-20.9,3.1-26.6,12.2
	c-5.7,9.1-5.5,22.3,1.2,30.6l7.5,6.6l-2.4-26.8C407.7,242.8,412.5,247.6,417.8,251.2z M136,261L136,261c-1.2-0.6-2-1.9-2-3.3v-2.6
	c0-2,1.7-3.7,3.7-3.7l0,0c2,0,3.7,1.7,3.7,3.7v1.5h2.1l2.4-12.2l3-1.6l1-5.8h16.3v8.3c1.1-0.7,3.5-7.8,4.4-8.7
	c2.5-2.5,2.5-5.5-0.2-7.9c-3.5-3.1-9-4.3-13.6-5.2c-7.8-1.4-20.1-2.3-23.5,6.2c-1.2,3-0.5,6.2-1.1,9.3c-0.5,2.4-1.7,4.7-2,7.2
	s0.1,5.2,0.7,7.7c1.1,4.8,3.1,9.4,5.3,13.9l0.3-3.4C136.2,263.4,136,262.2,136,261z"></path>
<path id="color_x5F_2" fill="#000000" d="M346.6,48.8c0-2.8-2.3-5.1-5.1-5.1c-2.8,0-5.1,2.3-5.1,5.1s2.3,5.1,5.1,5.1
	S346.6,51.7,346.6,48.8z M370.1,61.9c0-1.5-1.2-2.7-2.7-2.7s-2.7,1.2-2.7,2.7s1.2,2.7,2.7,2.7S370.1,63.3,370.1,61.9z M226.3,94.6
	c0-1.9,0.3-3.8,0.9-5.5c0.1-0.3,0.2-0.6,0.3-0.9c2.5-6.2,8.6-10.6,15.7-10.6c4.1,0,7.9,1.5,10.8,3.9c0.2,0.2,0.4,0.4,0.6,0.6
	c3.4,3.1,5.5,7.5,5.5,12.4H289v-9.3c-5.4,0-10.3-2.3-13.8-5.9c-0.2-0.2-0.4-0.4-0.5-0.6c-3-3.4-4.8-7.8-4.8-12.6
	c0-10.5,8.5-19.1,19.1-19.1V32.7h-73.7c-6.7,0-12.1,5.4-12.1,12.1v49.7h7.2h1.9h14L226.3,94.6L226.3,94.6z M248.8,45.2h7.5v25.6
	h-7.5L248.8,45.2L248.8,45.2z M238.3,41.8h7.5v29h-7.5V41.8z M227.8,52.3h7.5v18.5h-7.5V52.3z M260.5,124c0.6,1.3,1.6,2.4,3,3
	c0.1,0,0.2,0.1,0.3,0.1c0.7,0.3,1.4,0.4,2.1,0.4s1.4-0.1,2.1-0.4c0.1,0,0.2-0.1,0.3-0.1c1.3-0.6,2.4-1.6,3-3c0-0.1,0.1-0.2,0.1-0.3
	c0.3-0.7,0.4-1.4,0.4-2.1s-0.1-1.4-0.4-2.1c0-0.1-0.1-0.2-0.1-0.3c-0.6-1.3-1.6-2.4-3-3c-0.1,0-0.2-0.1-0.3-0.1
	c-0.7-0.2-1.4-0.4-2.1-0.4s-1.4,0.1-2.1,0.4c-0.1,0-0.2,0.1-0.3,0.1c-1.3,0.6-2.4,1.6-3,3c0,0.1-0.1,0.2-0.1,0.3
	c-0.2,0.7-0.4,1.4-0.4,2.1s0.1,1.4,0.4,2.1C260.5,123.8,260.5,123.9,260.5,124z M245.6,126.8c-0.9-2-2.4-3.5-4.4-4.4
	c-0.1-0.1-0.3-0.1-0.4-0.2c-1-0.4-2-0.6-3.1-0.6s-2.1,0.2-3.1,0.6c-0.2,0.1-0.3,0.1-0.4,0.2c-2,0.9-3.5,2.4-4.4,4.4
	c-0.1,0.2-0.1,0.3-0.2,0.4c-0.4,1-0.6,2-0.6,3.1s0.2,2.1,0.6,3.1c0.1,0.1,0.1,0.3,0.2,0.4c0.9,2,2.4,3.5,4.4,4.4
	c0.1,0.1,0.3,0.1,0.4,0.2c1,0.4,2,0.6,3.1,0.6s2.1-0.2,3.1-0.6c0.1-0.1,0.3-0.1,0.4-0.2c2-0.9,3.5-2.4,4.4-4.4
	c0.1-0.1,0.1-0.3,0.2-0.4c0.4-1,0.6-2,0.6-3.1s-0.2-2.1-0.6-3.1C245.8,127.1,245.7,126.9,245.6,126.8z M293,85.3v9.3h29l0,0
	c0,1.7,0.2,3.4,0.6,5H293v13.5c0.1,0,0.3,0,0.4,0c8.8,0,16,7.2,16,16s-7.2,16-16,16c-0.1,0-0.3,0-0.4,0v13.8h6.4l10.2,16.1l0.2-16.1
	h37.7l37.9,31.7l-10.1-31.7h0.7c6.7,0,12.1-5.4,12.1-12.1v-45.6v-0.8v-0.7h-1.4H385h-23c0.4-1.6,0.6-3.3,0.6-5l0,0h11.1h1.9H388
	V44.9c0-6.7-5.4-12.1-12.1-12.1h-83v14.4c-10.3,0.2-18.7,8.7-18.7,19.1c0,4.7,1.7,9,4.5,12.3c0.2,0.2,0.4,0.4,0.5,0.6
	C282.8,82.9,287.6,85.2,293,85.3z M318.3,146.5l20.8-20.8c0.6-0.6,1.4-0.6,2,0s0.6,1.4,0,2l-20.8,20.8c-0.6,0.6-1.4,0.6-2,0
	C317.7,148,317.7,147.1,318.3,146.5z M360,106.8c5,5,5,13,0,18s-13,5-18,0s-5-13,0-18C346.9,101.9,355,101.9,360,106.8z M367.4,57
	c2.7,0,4.9,2.2,4.9,4.9c0,2.7-4.9,8.5-4.9,8.5s-4.9-5.8-4.9-8.5S364.7,57,367.4,57z M341.5,39.5c5.2,0,9.4,4.2,9.4,9.4
	s-9.4,16.3-9.4,16.3s-9.4-11.1-9.4-16.3S336.3,39.5,341.5,39.5z M342.3,70.1c11,0,19.9,8.7,20.3,19.6c0,0.2,0,0.5,0,0.7l0,0
	c0,0.7,0,1.4-0.1,2.1c-0.1-0.8-0.2-1.5-0.4-2.3c-0.1-0.3-0.1-0.6-0.2-0.8c-2.3-8.7-10.2-15.2-19.6-15.2c-5.9,0-11.2,2.5-14.9,6.6
	c-0.2,0.2-0.3,0.4-0.5,0.6c-2.6,3-4.3,6.9-4.8,11.1c-0.1-0.7-0.1-1.4-0.1-2.1c0-3.4,0.8-6.6,2.3-9.4c0.1-0.2,0.2-0.4,0.3-0.6
	C328.1,74.2,334.7,70.1,342.3,70.1z M319.8,65.3c0,4-7.3,12.7-7.3,12.7s-7.3-8.7-7.3-12.7s3.3-7.3,7.3-7.3
	C316.5,58,319.8,61.2,319.8,65.3z M308.5,65.3c0,2.2,1.8,4,4,4s4-1.8,4-4s-1.8-4-4-4S308.5,63.1,308.5,65.3z M342.9,123.9
	c4.4,4.4,11.6,4.4,16.1,0c4.4-4.4,4.4-11.6,0-16.1c-4.4-4.4-11.6-4.4-16.1,0C338.5,112.2,338.5,119.4,342.9,123.9z M243.2,81.9
	c-4.8,0-9.2,2.1-12.3,5.3c-0.3,0.3-0.6,0.7-0.9,1c-2.3,2.9-3.7,6.6-3.7,10.6c0,0.3,0,0.5,0,0.8h-23.1v47.1c0,4,2,7.6,5,9.8
	l-30.4,46.3l3.4-2.9l0.7-0.6l37.8-32.1l2.8-2.4l7.1-6H289v-11.1v-0.9V145c0.4,0,0.9,0.1,1.3,0.1c8.8,0,16-7.2,16-16s-7.2-16-16-16
	c-0.5,0-0.9,0-1.3,0.1V99.6h-28.9c0-0.3,0-0.5,0-0.8c0-7.1-4.3-13.1-10.5-15.7c-0.4-0.2-0.8-0.3-1.2-0.4
	C246.8,82.2,245,81.9,243.2,81.9z M255,133.5h-3c-0.4,1.7-1,3.3-2,4.8l2.1,2.1l-4.4,4.4l-2.1-2.1c-1.4,0.9-3,1.6-4.8,2v3h-6.2v-3
	c-1.7-0.4-3.3-1-4.8-2l-2.1,2.1l-4.4-4.4l2.1-2.1c-0.9-1.4-1.6-3-2-4.8h-3v-6.2h3c0.4-1.7,1-3.3,2-4.8l-2.1-2.2l4.4-4.4l2.1,2.2
	c1.4-0.9,3-1.6,4.8-2v-3h6.2v3c1.7,0.4,3.3,1,4.8,2l2.1-2.2l4.4,4.4l-2.1,2.2c0.9,1.4,1.6,3,2,4.8h3V133.5z M263.8,112v-2h4.2v2
	c1.2,0.2,2.2,0.7,3.2,1.3l1.4-1.4l3,3l-1.4,1.4c0.6,1,1.1,2,1.3,3.2h2v4.2h-2c-0.2,1.2-0.7,2.2-1.3,3.2l1.4,1.4l-3,3l-1.4-1.4
	c-1,0.6-2,1.1-3.2,1.3v2h-4.2v-2c-1.2-0.2-2.2-0.7-3.2-1.3l-1.4,1.4l-3-3l1.4-1.4c-0.6-1-1.1-2-1.3-3.2h-2v-4.2h2
	c0.2-1.1,0.7-2.2,1.3-3.2l-1.4-1.4l3-3l1.4,1.4C261.6,112.7,262.6,112.3,263.8,112z"></path>
<path id="color_x5F_1" fill="#d8d5d5" d="M245.8,70.8h-7.5v-29h7.5V70.8z M254.6,82.1l-0.6-0.6c-1.8,0.5-3.7,0.8-5.6,1.2
	c0.4,0.1,0.8,0.3,1.2,0.4C251.3,82.8,252.9,82.4,254.6,82.1z M256.3,45.2h-7.5v25.6h7.5V45.2z M230.9,87.3c-1.2,0.3-2.3,0.6-3.4,1
	c-0.1,0.3-0.2,0.6-0.3,0.9c0.9-0.3,1.9-0.6,2.8-0.9C230.3,87.9,230.6,87.6,230.9,87.3z M235.3,52.3h-7.5v18.5h7.5V52.3z M327.4,80.8
	c-0.9-0.1-1.8-0.3-2.8-0.4c-0.1,0.2-0.2,0.4-0.3,0.6c0.9,0.1,1.7,0.3,2.6,0.4C327.1,81.2,327.2,81,327.4,80.8z M312.5,78
	c0,0-7.3-8.7-7.3-12.7c0-4.1,3.3-7.3,7.3-7.3s7.3,3.3,7.3,7.3S312.5,78,312.5,78z M312.5,69.3c2.2,0,4-1.8,4-4s-1.8-4-4-4
	s-4,1.8-4,4C308.5,67.5,310.3,69.3,312.5,69.3z M487.403,500.1H487.4v-16.9c-3.5,18.4-6.5,36.8-6,55.2h5.9
	c0.032-0.15,0.071-0.298,0.103-0.448L487.403,500.1L487.403,500.1z M104.1,483.9c1.1,3.2,2.1,6.4,3.3,9.6c0.7,1.9-2.3,2.7-3,0.8
	c-0.9-2.6-1.8-5.2-2.7-7.9c-0.5,0.6-1.1,1.2-1.6,1.8c6.2,16.5,11.4,33.3,16.5,50.1h1.1c-4.2-19.1-7.1-38.6-9.2-58.2
	C106.9,481.3,105.5,482.6,104.1,483.9z M341.5,65.1c0,0-9.4-11.1-9.4-16.3s4.2-9.4,9.4-9.4s9.4,4.2,9.4,9.4S341.5,65.1,341.5,65.1z
	 M341.5,53.9c2.8,0,5.1-2.3,5.1-5.1s-2.3-5.1-5.1-5.1c-2.8,0-5.1,2.3-5.1,5.1C336.4,51.7,338.7,53.9,341.5,53.9z M135.5,527.8v-35.5
	c-2.1,11.8-3.8,23.7-4.3,35.5H135.5z M212.3,94.6h-1.9c-25.2,10.6-48.4,26.1-68.3,46c-7.9,7.9-15.2,16.4-21.7,25.3
	c0.2,0.1,0.4,0.3,0.6,0.5C144,134.8,175.6,109.7,212.3,94.6z M94.7,496.7c2.2,4.1,4.3,8.2,6.3,12.4c0.8,1.8-1.8,3.4-2.7,1.6
	c-1.7-3.5-3.4-6.9-5.2-10.3c-0.4,1-0.8,2.1-1.1,3.2c6.5,11.3,12.5,22.9,18.6,34.4c0.1,0.2,0.2,0.3,0.3,0.5h2.6
	c-4.9-16-9.8-31.8-15.6-47.3C96.7,493,95.6,494.8,94.7,496.7z M90.9,507.9c-0.5,2.7-0.7,5.4-0.6,8.1c2.2,4.3,4.8,8.5,6.9,12.8
	c1.5,3.2,2.9,6.4,4.4,9.6h5.8c-0.2-0.3-0.3-0.6-0.5-0.8C101.7,527.6,96.5,517.7,90.9,507.9z M95.1,370
	c-9.6-24.3-14.9-50.7-14.9-78.4c0-40.5,11.4-78.4,31.1-110.7c-0.2-0.1-0.4-0.3-0.6-0.4c-20.3,33.1-31.1,71.3-31.1,111.1
	c0,27.3,5.1,53.9,14.9,78.6C94.6,370.1,94.8,370,95.1,370z M118.8,415.2c0.2-0.1,0.5-0.2,0.7-0.3c-6.5-9.3-12.4-19-17.4-29.1
	c-0.2,0.1-0.4,0.3-0.7,0.4C106.4,396.3,112.2,406,118.8,415.2z M448.5,386.8c1-0.4,1.9-0.8,2.8-1.3c0.5-0.2,0.9-0.5,1.4-0.7
	c-0.5-2.7-1-5.3-1.6-7.7h-6L448.5,386.8z M463.6,419.9C473,407.4,481,394,487.4,380v-1.8c-6.5,14.6-14.7,28.3-24.2,41
	C463.3,419.4,463.5,419.7,463.6,419.9z M445,496.7c2.2,4.1,4.3,8.2,6.3,12.4c0.9,1.8-1.8,3.4-2.7,1.6c-1.7-3.5-3.4-6.9-5.2-10.3
	c-0.4,1-0.8,2.1-1.1,3.2c6.5,11.3,12.5,22.9,18.6,34.4c0.1,0.2,0.2,0.3,0.3,0.5h2.6c-4.8-15.8-9.7-31.7-15.5-47.2
	C447,493,445.9,494.8,445,496.7z M483.5,196.7c0.2-0.1,0.5-0.2,0.7-0.3C474,176,460.5,157.2,444,140.6
	c-16.6-16.6-35.5-30.1-55.9-40.3v0.8C429.3,121.8,462.9,155.4,483.5,196.7z M506.5,291.6c0-27.6-5.2-54.4-15.2-79.3
	c-0.2,0.1-0.4,0.2-0.7,0.3c9.8,24.4,15.2,51.1,15.2,79c0,28.4-5.6,55.6-15.8,80.4v0.3h0.8C501.1,347,506.5,319.7,506.5,291.6z
	 M497.5,472.2c-2.4-0.7-4.9-1.1-7.4-1.4v26.778h0.151v1.052C491.958,489.604,494.583,480.853,497.5,472.2z M508.1,476.6
	c-2.5-1.4-5.1-2.5-7.8-3.5c-3.1,9.2-5.9,18.6-7.5,28.2c-0.211,1.407-1.754,1.375-2.549,0.574v24.656
	c3.057-10.928,6.926-21.692,10.749-32.13C503.2,488.4,505.6,482.5,508.1,476.6z M516.3,492.6c1.2-2.3,2.4-4.6,3.7-6.9
	c-0.7-0.7-1.4-1.4-2.1-2.1c-2.2,3.6-4.5,7.2-6.9,10.7c-1.1,1.6-3.8,0.1-2.7-1.6c2.5-3.7,4.8-7.5,7.2-11.2c-1.5-1.2-3-2.3-4.6-3.4
	c-2.4,5.6-4.7,11.3-6.8,17c-5.2,13.9-10.3,28.4-13.6,43.2h4.7c2.2-5.1,4.6-10.1,6.8-14.9C506.6,513.1,511.2,502.7,516.3,492.6z
	 M342,106.8c4.9-4.9,13-4.9,18,0c5,5,5,13,0,18s-13,5-18,0S337,111.8,342,106.8z M342.9,107.8c-4.4,4.5-4.4,11.7,0,16.1
	c4.5,4.4,11.7,4.4,16.1,0c4.4-4.5,4.4-11.7,0-16.1C354.6,103.3,347.4,103.4,342.9,107.8z M339.1,125.7l-20.8,20.8
	c-0.6,0.6-0.6,1.4,0,2c0.5,0.6,1.4,0.6,2,0l20.8-20.8c0.6-0.6,0.6-1.4,0-2S339.7,125.1,339.1,125.7z M124.9,508.6c0.2,2-2.9,2-3.1,0
	c-1.1-11.9-0.7-23.8,0.2-35.7c-3.7,1.3-7.2,3-10.5,5.1c1.9,19.2,4.7,38.2,8.8,57c1.1-3.4,4.1-6.2,7.9-7c0.7-17.3,4-34.6,7.3-51.9
	v-5.5c-3.5,0-7,0.5-10.4,1.4C124.2,484.2,123.7,496.4,124.9,508.6z M520.6,496.2c1-2,2-4.1,3-6.1c-0.5-0.6-1-1.2-1.5-1.8
	c-1.4,2.6-2.8,5.2-4.1,7.9c-4.6,9.1-8.7,18.4-12.8,27.7c-2.1,4.7-4.5,9.6-6.7,14.6h5.2c1.9-5.4,3.8-10.7,5.9-16
	C513,513.6,516.4,504.7,520.6,496.2z M531.8,507.2c0-0.2-0.1-0.3-0.1-0.5c-4.4,5-8.3,10.5-10.5,16.8c-0.7,1.9-3.6,1.1-3-0.8
	c2.6-7.4,7.2-13.6,12.5-19.3c-1.2-3.7-3-7.2-5.1-10.4c-4.6,9.3-8.5,18.8-12.3,28.5c-2.2,5.7-4.3,11.4-6.4,17.1h9.1
	c5.3-7.3,11.1-14,17-20.5C533.1,514.4,532.7,510.8,531.8,507.2z M367.4,70.4c0,0-4.9-5.8-4.9-8.5c0-2.7,2.2-4.9,4.9-4.9
	c2.7,0,4.9,2.2,4.9,4.9C372.3,64.6,367.4,70.4,367.4,70.4z M367.4,64.6c1.5,0,2.7-1.2,2.7-2.7s-1.2-2.7-2.7-2.7s-2.7,1.2-2.7,2.7
	C364.7,63.3,365.9,64.6,367.4,64.6z M453,288.4c-1.3-4.5-3.9-9-8.2-10.8c-1-0.4-2.1-0.6-3.2-0.7c-14.6,13.1-24.8,30.3-25.9,49.5
	c-3.5-12.3-4.9-26-1-38.3c-3.4,2.5-6.4,5.1-8.5,7.3c-16.7,17.8,0.1,24.1-2,40.7c-0.2,1.8-0.5,3.7-0.7,5.6c-3.5,1.2-7.5,2.8-11.5,4.4
	c0,2.3,0.2,4.7,0.5,7c5.5-1.2,12.2-3.1,18.6-4.9c-0.4,3.9-0.5,8.1,0.1,12.1c-3.4,0.1-7,0.2-10.7,0.3c-0.7,3.9-1.5,7.8-2.4,11.7H450
	c-0.8-2.9-1.6-5.6-2.5-8.1c-2.7-8.2-5.1-14.1-4.9-19.4c0.7-3.3,1.4-6.5,2.2-9.6c1.6-5.3,3.3-9.7,5-16.1c0.1-0.3,0.2-0.6,0.2-0.8
	C452.4,309,455.7,297.7,453,288.4z M365.3,241c-5.1-1.5-10.4-1.9-15.7-1.5l0.2,1.9c-5.2,2.5-9.7,6.3-13.7,10.6l-2.1,0.2l-0.7-8.1
	c-4.1,2-7.9,4.6-11.3,7.9c-1,0.9-1.6,2.1-1.9,3.3l-16.3,35.9l4.1,3.5c0.1,0.2,0.2,0.4,0.3,0.5c-0.6,0-1.2,0.1-1.8,0.1
	c-0.5,6.9,1.4,14.1,3.1,20.9c3.1,0.3,6.2,0.5,9.3,0.6c-0.5,4.3-1,8.5-1.6,12.8H354l5.6,24.1h1.7c1.2-0.1,2.3-0.2,3.5-0.2
	c8-33.5,10.4-68.1,7.7-102.7C372.1,246.1,369.3,242.1,365.3,241z M392.5,479.8c-5.3,2.8-10.6,5.4-16.1,7.7c0.2,0.1,0.3,0.4,0.4,0.6
	c5.4-2.3,10.8-4.9,16-7.6L392.5,479.8z M386.6,99.6c-3.6-1.8-7.3-3.4-11-5h-1.9c3.8,1.6,7.6,3.2,11.2,5H386.6z M334.3,500.4
	c-13.4,2.7-27.2,4.1-41.3,4.1c-2.7,0-5.4-0.1-8.1-0.2v0.6c2.7,0.1,5.4,0.2,8.1,0.2c14,0,27.9-1.4,41.4-4
	C334.4,500.9,334.4,500.7,334.3,500.4z M454.3,484c1.1,3.2,2.1,6.4,3.3,9.6c0.7,1.9-2.3,2.7-3,0.8c-0.9-2.6-1.8-5.2-2.7-7.9
	c-0.5,0.6-1.1,1.2-1.6,1.8c6.2,16.5,11.4,33.3,16.5,50.1h1.1c-4.3-19.2-7.2-38.6-9.2-58.2C457.2,481.3,455.8,482.6,454.3,484z
	 M274.8,78.8c0.2,0.2,0.4,0.4,0.5,0.6c1.3-0.1,2.7-0.2,4.1-0.3c-0.2-0.2-0.4-0.4-0.5-0.6C277.5,78.6,276.1,78.7,274.8,78.8z
	 M255.8,501.8c4.1,0.7,8.1,1.3,12.3,1.8c0-0.1,0-0.4,0.1-0.6c-4.2-0.5-8.4-1.1-12.6-1.9C255.7,501.3,255.8,501.6,255.8,501.8z
	 M275.5,119.5h2v4.2h-2c-0.2,1.2-0.7,2.2-1.3,3.2l1.4,1.4l-3,3l-1.4-1.4c-1,0.6-2,1.1-3.2,1.3v2h-4.2v-2c-1.2-0.2-2.2-0.7-3.2-1.3
	l-1.4,1.4l-3-3l1.4-1.4c-0.6-1-1.1-2-1.3-3.2h-2v-4.2h2c0.2-1.2,0.7-2.2,1.3-3.2l-1.4-1.4l3-3l1.4,1.4c1-0.6,2-1.1,3.2-1.3v-2h4.2v2
	c1.2,0.2,2.2,0.7,3.2,1.3l1.4-1.4l3,3l-1.4,1.4C274.8,117.3,275.3,118.4,275.5,119.5z M271.8,121.6c0-0.7-0.2-1.4-0.4-2.1
	c0-0.1-0.1-0.2-0.1-0.3c-0.6-1.4-1.7-2.4-3-3c-0.1,0-0.2-0.1-0.3-0.1c-0.7-0.3-1.4-0.4-2.1-0.4s-1.4,0.1-2.1,0.4
	c-0.1,0-0.2,0.1-0.3,0.1c-1.4,0.6-2.4,1.7-3,3c0,0.1-0.1,0.2-0.1,0.3c-0.2,0.7-0.4,1.4-0.4,2.1s0.1,1.4,0.4,2.1
	c0,0.1,0.1,0.2,0.1,0.3c0.6,1.4,1.7,2.4,3,3c0.1,0,0.2,0.1,0.3,0.1c0.7,0.3,1.4,0.4,2.1,0.4s1.4-0.2,2.1-0.4c0.1,0,0.2-0.1,0.3-0.1
	c1.4-0.6,2.4-1.7,3-3c0-0.1,0.1-0.2,0.1-0.3C271.7,123,271.8,122.3,271.8,121.6z M432.4,391.3c4-0.6,7.8-1.6,11.3-2.7l0.8-11.5
	h-12.3c0.1,0.7,0.2,1.5,0.2,2.4V391.3z M451.3,434.8h-1c-5.6,6.2-11.6,12-17.9,17.5v1c4-3.4,7.8-7,11.6-10.7
	C446.5,440,449,437.5,451.3,434.8z M440.6,516c2,4,4.4,7.8,6.3,11.8h0.4c2,0,3.8,0.5,5.4,1.4c-3.8-7.2-7.6-14.3-11.6-21.4
	C440.8,510.5,440.6,513.3,440.6,516z M415.3,465.8c-2.9,2-5.8,4-8.8,5.9l0.1,0.8c2.9-1.9,5.8-3.8,8.7-5.8L415.3,465.8L415.3,465.8z
	 M415.3,510.3l-2.9-2.9l0.9,9.6l-9.6,9.2l-5.3-0.1l-0.6,1.7l-2.2,6.7l-4.2,4.8l11.2-2.6l6.2-8.9l4.4-6.2l2.1,6.2l1.8,5.5l1.8-0.4
	L417,514C416.9,512.6,416.3,511.3,415.3,510.3z M421.9,461.8c2.6-2,5.2-4.1,7.8-6.2v-1c-2.6,2.1-5.2,4.2-7.8,6.3V461.8z
	 M396.9,377.1c-0.9,3.7-1.9,7.5-2.9,11.3c9.4,4,21.9,5,34,3.6c0.6-0.1,1.2-0.1,1.8-0.2v-12.2c0-0.9,0.1-1.7,0.2-2.4h-2.4
	L396.9,377.1z M358.9,499.7l-3.9,8.8l-1.4,0.4l-11.5,2.9l-4.5-2.7l-2.4,2.2l-4.2,3.8l-6,2.1l11.1,3.3l0.9-0.5l2.9-1.4l12.8-6.1
	l-0.8,4l-1.6,8.2l1.8,0.5l7.7-17.4c0.6-1.2,0.7-2.7,0.3-4.2L358.9,499.7z M162.6,485.8c0.9-1.4,1.8-2.8,2.6-4.2
	c-0.9-0.7-1.7-1.4-2.6-2V485.8z M142.9,527.8h6.9c0.7-1.5,1.3-2.9,2-4.4c1.4-3.1,2.8-6.2,4.2-9.4v-24.4c-0.7,1.9-1.5,3.7-2.2,5.6
	C149.8,505.8,145.9,516.7,142.9,527.8z M251.9,127.3h3v6.2h-3c-0.4,1.8-1.1,3.4-2,4.8l2.1,2.1l-4.4,4.4l-2.1-2.1
	c-1.5,1-3.1,1.6-4.8,2v3h-6.2v-3c-1.8-0.4-3.4-1.1-4.8-2l-2.1,2.1l-4.4-4.4l2.1-2.1c-1-1.5-1.6-3.1-2-4.8h-3v-6.2h3
	c0.4-1.8,1.1-3.4,2-4.8l-2.1-2.2l4.4-4.4l2.1,2.2c1.5-1,3.1-1.6,4.8-2v-3h6.2v3c1.8,0.4,3.4,1.1,4.8,2l2.1-2.2l4.4,4.4l-2.1,2.2
	C250.9,123.9,251.5,125.5,251.9,127.3z M246.4,130.4c0-1.1-0.2-2.1-0.6-3.1c-0.1-0.1-0.1-0.2-0.2-0.4c-0.9-2-2.4-3.5-4.4-4.4
	c-0.1-0.1-0.3-0.1-0.4-0.2c-1-0.4-2-0.6-3.1-0.6s-2.1,0.2-3.1,0.6c-0.1,0.1-0.3,0.1-0.4,0.2c-2,0.9-3.5,2.4-4.4,4.4
	c-0.1,0.1-0.1,0.2-0.2,0.4c-0.4,1-0.6,2-0.6,3.1s0.2,2.1,0.6,3.1c0.1,0.1,0.1,0.3,0.2,0.4c0.9,2,2.4,3.5,4.4,4.4
	c0.1,0.1,0.2,0.1,0.4,0.2c1,0.4,2,0.6,3.1,0.6s2.1-0.2,3.1-0.6c0.1-0.1,0.3-0.1,0.4-0.2c2-0.9,3.5-2.4,4.4-4.4
	c0.1-0.1,0.1-0.3,0.2-0.4C246.2,132.5,246.4,131.4,246.4,130.4z M153.1,527.8h2.8v-6.2c-0.3,0.7-0.7,1.5-1,2.2
	C154.4,525.1,153.7,526.4,153.1,527.8z M124.8,390.4c0.6,0.3,1.2,0.5,1.7,0.8c2.9,1.3,5.9,2.3,9,3.2v-14.9c0-0.9,0.1-1.7,0.2-2.4
	h-7.9C127.2,381.6,126.2,386,124.8,390.4z M155.9,455.3v-1c-6.2-5.3-12.2-10.9-17.7-16.8v1.1c1.3,1.3,2.5,2.6,3.8,3.9
	C146.5,447,151.1,451.3,155.9,455.3z M155.9,481.4v-5.8c-1.9-0.9-3.8-1.7-5.8-2.4c-3.1,9.2-5.9,18.6-7.5,28.2c-0.3,2-3.3,1.1-3-0.8
	c1.7-9.7,4.4-19.1,7.6-28.3c-2.5-0.7-5-1.2-7.6-1.4c-0.5,2.4-1,4.9-1.4,7.3v49.7h1.5c3.1-11.5,7.1-22.7,11.1-33.5
	C152.4,490,154.2,485.7,155.9,481.4z M162.6,499.7c1.1-2.4,2.3-4.7,3.5-7c1.1-2.4,2.3-4.7,3.6-7l-2.1-2.1c-1.6,2.6-3.3,5.3-5,7.9
	V499.7z M182.9,362.2c-0.7-0.3-1.5-0.6-2.2-0.8c-2.1,0.5-8.7,1.7-12.5-1.2c-3.6,0.5-12.4,2.9-23.1,2.9c-0.1-1.4-0.2-2.8-0.3-4.2
	v-2.1c0.1-3.5,0.6-6.9,1.9-10.3c6.7,1.6,16.3,3.9,25.1,6.1v-0.1c0.5,0.2,1,0.3,1.5,0.5c0.2,0.1,0.5,0.1,0.7,0.2
	c3.6,1.1,7,2.2,9.8,3.2c-0.1-2.3,0-4.6,0.5-7c-1.5-0.1-2.9-0.2-4.1-0.2c-0.2-2.2-0.5-4.4-0.8-6.6c-2.4-16.2-5.3-34.2-17.7-46.3
	c-1.3-1.2-2.7-2.4-4.1-3.4c0.1-0.8,0.4-1.5,0.4-2.4c-1.9-1.9-3.9-3.6-6-5.2c-5-3.8-10.5-6.7-16.4-8.7c-1-0.4-2.1-0.7-3.2-1
	c-1.2,2.3-2.5,4.7-3.7,7c-4.1,0.9-6.9,3.9-8.8,8.1c-0.7,0.8-1.3,1.7-1.8,2.7c-2.6,5.2-2.5,11.4-2.3,17.3c0.1,3.2,0.3,6.5,0.4,9.8
	c0.1,1.9,0.2,3.9,0.3,5.9c0.7,12,1.9,24.3,4.4,35.6c0.6,0.4,3.5,0.7,7.6,0.9c0,0.5,0,0.9,0.1,1.4c0.1,2.7,0.1,5.4-0.1,8.1h12.1
	l33.3-0.1l0.7-3h6.9c0-0.8,0-1.7-0.1-2.5c1.4-0.2,2.7-0.5,4.1-0.7c-0.3-1-0.5-1.9-0.7-2.9C184.2,362.9,183.6,362.5,182.9,362.2z
	 M199.6,482.8c-0.1,0.3-0.1,0.6-0.2,0.8c10.6,5.2,21.7,9.5,33.1,12.8c-0.1-0.3-0.3-0.6-0.4-0.9C220.9,492.1,210,487.9,199.6,482.8z
	 M486.8,470.7h-0.6c-3.7,0-7.3,0.5-10.9,1.4c-0.9,12.2-1.4,24.4-0.2,36.6c0.2,2-2.9,2-3.1,0c-1.1-11.9-0.7-23.8,0.2-35.7
	c-3.7,1.3-7.2,3-10.5,5.1c2.1,20.3,5,40.4,9.5,60.3h7.2C477.8,515.8,482.5,493.2,486.8,470.7z M162.5,514.2c2.4-6.1,4.9-12.1,7.7-18
	c1.1-2.1,2.1-4.2,3.1-6.2c-0.5-0.6-1-1.2-1.5-1.8c-1.4,2.6-2.8,5.2-4.1,7.9c-1.8,3.6-3.5,7.2-5.2,10.9V514.2z M171,523.4
	c-0.7,1.9-3.6,1.1-3-0.8c1.9-5.4,4.9-10.2,8.5-14.6c0.2-3.9,0.5-8,0.7-12.2c-0.6-1-1.1-2-1.8-3c-4.6,9.3-8.6,18.8-12.3,28.5
	c-0.2,0.4-0.3,0.9-0.5,1.3v5.1h8.5c1.9-4.6,4.7-9.1,4.7-9.1l1.2,0.2l0.6-6.7l-0.4-0.1C174.6,515.5,172.5,519.3,171,523.4z
	 M138,377.1c0.1,0.7,0.2,1.5,0.2,2.4V395c9,2.1,18.4,2.4,27.6,1.1c5.4-0.8,10.6-2.1,15.7-4c0.1,0,0.2-0.1,0.2-0.1
	c0.1-4.9,0.1-9.9,0-14.9H138z M162.6,460.7c5.3,4.1,10.9,8,16.5,11.6c0-0.3,0.1-0.6,0.1-0.9c-5.7-3.6-11.3-7.6-16.6-11.7V460.7z"></path>
</svg>