<svg xmlns="http://www.w3.org/2000/svg" xmlns:xlink="http://www.w3.org/1999/xlink" version="1.1" id="Слой_1" x="0px" y="0px" viewBox="0 0 3000 2000" style="enable-background:new 0 0 3000 2000;" xml:space="preserve">
<style type="text/css">
	.st0{fill:#CCE9FF;}
	.st1{fill:#2795F6;}
	.st2{fill:#FFBE55;}
	.st3{fill:#E5A13E;}
	.st4{opacity:0.5;fill:#FFFFFF;}
	.st5{fill:#AFCDFB;}
	.st6{fill:#CDE0FB;}
	.st7{fill:#10538C;}
	.st8{fill:#1D8CDD;}
	.st9{fill:#137CBC;}
	.st10{fill:#2B94F4;}
	.st11{fill:#FFB27D;}
	.st12{fill:#FFFFFF;}
	.st13{fill:#0C476F;}
	.st14{fill:#ED975D;}
	.st15{fill:#1C468A;}
	.st16{fill:#163560;}
	.st17{fill:#FFCC83;}
	.st18{fill:#0D4871;}
	.st19{fill:#2995F5;}
	.st20{fill:#FCECDB;}
	.st21{fill:#699DEE;}
	.st22{fill:#548EE2;}
	.st23{fill:#F4D2B8;}
	.st24{fill:#568CDB;}
	.st25{fill:#D39E7A;}
	.st26{fill:#EFCBAB;}
	.st27{fill:#F4A269;}
	.st28{fill:#2B478B;}
	.st29{fill:#6BB7BF;}
	.st30{fill:#8AD8DB;}
	.st31{fill:#ED9F4A;}
	.st32{fill:#FFB278;}
</style>
<path class="st0" d="M2617.3,1785.8l-952.4,0.2l-208.5,0.1l-68.9,0l-208.1,0.1l-780.6,3.7c-0.5-1.6-1-3.3-1.5-4.9  c-84.5-280.9,172-277.4,242.8-364.7c25.2-31.1,26.9-73.7-18.6-144.7c-0.2-0.3-0.4-0.7-0.7-1c-27.2-42.5-47-84.3-60-125.1  c-27.4-85.4-25.5-166.6-0.8-241.7c18.7-56.9,50.5-110.2,92.5-159.2c16.4-19.1,34.3-37.5,53.6-55.2  C1093.7,338,2038.9,270.6,2169.7,891.7c74.2,352.2,191.5,148.4,432.7,398.6c79.6,82.6,106.5,166.7,107.4,241.6  C2711.5,1675.9,2617.3,1785.8,2617.3,1785.8z"/>
<path class="st1" d="M1080.5,1305.8c0,0-113-18.6-189.8,44.4c-76.7,63-31.4,170.7-94.8,184.7c-91.3,20.1-301.4,48.9-279.5,246.4  c2.2,20,641.2,0,641.2,0l-27.4-425.5L1080.5,1305.8z"/>
<path class="st1" d="M2002.8,1448.8c0,0,135-24.7,228.7,52.1c93.7,76.7,51,139.8,101.2,156.2c50.2,16.4,121.2,48.6,105.3,129.8  h-453.6L2002.8,1448.8z"/>
<path class="st1" d="M2559.9,1780.6h-61c-3.3-2.8,2.3-9.1,8-9.5c2.5-0.2,5.7,0.3,9.3,1.1c0.8-11.1,5.6-61.3,23.7-59.2  c20.3,2.3,0,22.1-5.7,33.8c-4.3,8.7-8.7,21.2-10.8,27c1.6,0.4,3.4,0.7,5.1,1c2.7-8.3,12.7-36.1,25.4-34.5c15,1.9,8.9,13-1.7,19.7  c-7.8,4.9-17.3,11.8-21.9,15.1c3.8,0.6,7.9,1.1,11.9,1C2552.8,1775.8,2557.9,1778.9,2559.9,1780.6z"/>
<rect x="1080.5" y="246" class="st2" width="1075.1" height="1480.7"/>
<rect x="1066.3" y="918.5" class="st3" width="1103.4" height="47.5"/>
<rect x="1710.8" y="452.6" class="st4" width="293.7" height="390.4"/>
<rect x="1717.9" y="459.7" class="st0" width="279.3" height="376"/>
<g>
	<path class="st5" d="M1784.4,455.9V563c0,0.9,0,1.9,0,2.8c-0.2,8.4-1.2,14.8-2.3,14.8h-0.3c-1.1,0-2-5.5-2.3-13   c0-0.6,0-1.2-0.1-1.9c0,0,0-0.1,0-0.1c0-0.8,0-1.7,0-2.5V455.4C1781,455.6,1782.7,455.7,1784.4,455.9z"/>
	<path class="st5" d="M1780.5,567c-18.5,0-33.6,15.9-33.6,35.5h67.2C1814.1,582.9,1799,567,1780.5,567z"/>
	<path class="st6" d="M1783.2,567.4c-1-0.2-1.9-0.3-2.9-0.3c-12.1,0-21.9,15.8-21.9,35.4h5.9   C1764.2,584.6,1772.5,569.8,1783.2,567.4z"/>
</g>
<g>
	<g>
		<path class="st7" d="M1774.8,720.4c0,0-16.5-19.3-1-31.5c0,0,11.3-6.9,20.6-6.3c0,0-13.1,22-8.9,24.1c4.2,2.2,12.8-25.5,12.8-25.5    s25.8-2.5,34.1,1.5c0,0-22,18-17.4,19.1c4.6,1.1,28.5-16.6,28.5-16.6s24,4.1,22.7,18.7c-1.3,14.6-9.6,19.2-13.2,18.8    c-3.6-0.4-24.9-8.5-25.4-5.5c-0.5,3,12.3,12.7,21.3,13.2c0,0-16.9,18.7-28.2,13.3c-11.2-5.4-12.2-13.9-19.2-17.1    c-7-3.2-13-3.2-10.1,0.1c2.9,3.3,15.6,6.4,19.6,13.5c4,7.1,7.6,11.9-4,10.1c-11.6-1.8-30.6-10.3-31.4-20    C1774.8,720.4,1774.8,720.4,1774.8,720.4z"/>
		<g>
			<path class="st7" d="M1854.4,704.3c0,0-65.2-2.5-79.6,16.1c0,0-3.2,9.5-13,18.2l-1.5,4.2c0,0,11.3-11.9,15.3-12.6     C1775.7,730.1,1769.3,707,1854.4,704.3z"/>
			<path class="st7" d="M1761.9,738.6c0,0-14,10.4-15,28.8l2.5,0.2c0,0,4.5-19.1,12.5-26.6C1770.1,733.6,1761.9,738.6,1761.9,738.6z     "/>
		</g>
	</g>
	<g>
		<path class="st7" d="M1732.4,722.7c0,0,0,0-3.6,7.7c-0.2,0.4-0.3,0.7-0.5,1.1c0,0,0,0,0,0c-1.5,3.3-5.5,5.6-10.3,7v-63.2    c3.5,1.5,5.9,2.7,5.9,2.7s-1.5,28.8,3.2,28.2c4.7-0.6,0-25.6,0-25.6c8.8,2.6,17.1,12.9,17.1,12.9    C1754.4,710.4,1732.4,722.7,1732.4,722.7z"/>
		<g>
			<path class="st7" d="M1738.3,744.2v4.4c0,0-0.1-0.2-0.2-0.5c0,0,0,0,0,0c-0.2-0.5-0.4-0.9-0.6-1.3c0-0.1-0.1-0.2-0.1-0.3     c0-0.1-0.1-0.2-0.1-0.2c-0.4-0.8-0.9-1.9-1.4-3c0,0,0,0,0,0c-2.2-4.5-5.4-10.4-7.5-11.6c0,0,0,0,0,0c0-0.1,0.3-0.5,0.5-1.1     c0.9-2.6,1.5-9.7-10.8-20.4v-3.8c7.1,5.2,12.6,10.8,14.4,16.6C1732.4,722.7,1732.1,732.7,1738.3,744.2     C1738.3,744.2,1738.3,744.2,1738.3,744.2z"/>
			<path class="st7" d="M1738.3,744.2c0,0,9.5,14.5,4.1,32.1l-2.5-0.7c0,0,2.4-19.4-2.6-29.2     C1732.3,736.7,1738.3,744.2,1738.3,744.2z"/>
		</g>
	</g>
	<g>
		<path class="st7" d="M1758.8,691.2c0,0-29.1-16.3-15.5-38.4c0,0,10.9-13.6,22.5-17.1c0,0-6.2,33,0,33.7c6.2,0.8,4.3-37.2,4.3-37.2    s30.6-14.7,42.7-13.6c0,0-19,32.2-12.8,31.4c6.2-0.8,27.5-33.3,27.5-33.3s31.4-5.8,36.4,12.8c5,18.6-3.1,27.9-7.8,29.1    c-4.7,1.2-34.5,0.8-33.7,4.7c0.8,3.9,20.9,10.1,32.2,6.6c0,0-12.4,30.6-28.7,29.1c-16.3-1.6-21.3-11.6-31.4-12.4    c-10.1-0.8-17.4,1.9-12.4,4.7c5,2.7,22.1,0.9,30.2,7.8c8.1,6.9,14.7,11.2-0.4,14.3c-15.1,3.1-42.3,1.2-47.7-10.5    S1758.8,691.2,1758.8,691.2z"/>
		<g>
			<path class="st7" d="M1849.5,635.4c0,0-81.4,26.4-90.7,55.8c0,0,0.4,13.2-7.8,28.3v5.8c0,0,8.5-19.8,13.2-22.5     C1764.2,702.9,1746,677.3,1849.5,635.4z"/>
			<path class="st7" d="M1751,719.6c0,0-12.6,19.1-5.4,42.3l3.2-0.9c0,0-3.1-25.6,3.4-38.4C1758.9,709.7,1751,719.6,1751,719.6z"/>
		</g>
	</g>
</g>
<path class="st8" d="M1934.5,776.1c0,0,43-175.4,46.2-190.1c1.4-6.6,5.6-8.9,9.9-9.6c-7.6-0.8-13.1-0.8-13.1-0.8  c-14.9,0-28.1,10.7-32.9,26.5c-10.4,34.6-50.8,92.4-70.3,157.3C1875.3,759.4,1934.5,776.1,1934.5,776.1z"/>
<path class="st8" d="M1717.9,835.8v-32.9c7.8-15.1,15.7-28.7,22.5-39.4c1-1.6,2.1-3.2,3.1-4.7v0c0.3-0.5,0.6-1,1-1.4v0  c1.3-2,2.6-3.8,3.7-5.4c0,0,0,0,0,0c1.8-2.5,3.5-4.7,4.9-6.5c2-2.5,4.7-4.5,7.8-6c0,0,0,0,0,0c0.3-0.1,0.5-0.3,0.8-0.4  c1.2-0.5,2.4-1,3.7-1.5c0.1,0,0.3-0.1,0.4-0.1h0c3.6-1.2,7.5-1.9,11.8-2.3h0c9.3-0.9,19.9-0.2,30.4,1.3h0c1.3,0.2,2.7,0.4,4,0.6  c5.8,0.9,11.5,2.1,16.9,3.3c0,0,0,0,0.1,0c2,0.5,3.9,0.9,5.8,1.4c0.1,0,0.3,0.1,0.4,0.1h0c0.7,0.2,1.3,0.3,1.9,0.5  c2.9,0.7,5.6,1.5,8.2,2.2c10.5,3,17.5,5.4,17.5,5.4l0,1.4l0.1,5.3l0.1,2.6l0.2,7.6l0,0.3l0,1.1l0.2,6.6l0,0.5l1.5,60.3H1717.9z"/>
<path class="st9" d="M1920.9,773.3c-0.9-0.4-2.2-1.1-4-1.9h0c-0.3-0.2-0.7-0.3-1-0.5l0,0c-0.9-0.4-2-0.9-3.1-1.5  c-1.4-0.6-2.9-1.3-4.5-2.1c-2.2-1-4.7-2.1-7.3-3.3c-0.8-0.3-1.5-0.7-2.4-1h0c-0.8-0.3-1.5-0.7-2.3-1c0,0,0,0,0,0  c-3.1-1.3-6.3-2.7-9.8-4c0,0,0,0,0,0c-3.2-1.3-6.5-2.6-10-3.9l-0.5-0.2c-9.5-3.5-19.8-7-30.1-9.7c-3.2-0.9-6.4-1.7-9.6-2.4  c0,0,0,0,0,0c-0.4-0.1-0.9-0.2-1.3-0.3h0c0,0,0,0-0.1,0h0c-2-0.4-4-0.8-6-1.2c0,0,0,0-0.1,0c-5.4-1-10.6-1.6-15.5-1.9  c-1.2-0.1-2.4-0.1-3.5-0.1c-9.1-0.2-17.3,1-23.6,4.2c-4.3,2.2-7.9,5.4-10.3,9.6c-2.5,4.4-5.9,11.4-9.7,20.3  c-7.1,16.5-15.7,39.3-23,63.3h173.5l0.4-4.9c0,0,0,0,0,0l0.9-9.7l4.3-47.1l0-0.1C1922.2,773.9,1921.8,773.7,1920.9,773.3z"/>
<path class="st10" d="M1997.3,576.2v259.5h-10.1c-7.2-1-14.3-2.1-21.2-3.3h0c-11.8-2-23.1-4.3-32.8-6.8c-2.9-0.7-5.6-1.5-8.2-2.3  c-1.6-0.5-3.1-0.9-4.5-1.4c-0.8-0.3-1.6-0.5-2.4-0.8c-10.9-3.8-18-8-18.9-12.5c-0.8-4.1,1.2-13.8,4.9-26.9c0,0,0,0,0,0  c0.7-2.4,1.4-4.9,2.2-7.5c0.4-1.2,0.7-2.4,1.1-3.7c0.1-0.5,0.3-0.9,0.5-1.4l0.2-0.6c0.1-0.4,0.3-0.9,0.4-1.3c0-0.1,0.1-0.2,0.1-0.3  v0c0.9-2.8,1.8-5.6,2.8-8.6c1.4-4.2,2.8-8.5,4.4-13c2-5.8,4.1-11.9,6.3-18c0.6-1.8,1.3-3.6,1.9-5.4c2.3-6.4,4.7-12.9,7.1-19.4  c6.2-16.7,12.6-33.5,18.6-48.9c1.8-4.6,3.5-9.1,5.3-13.4c0,0,0,0,0,0c1.2-3,2.3-5.9,3.4-8.8c3.3-8.3,5.6-16.2,7.7-23.4v0  c3.2-10.7,6.1-19.7,11.4-25.3c3.1-3.3,6.9-5.5,12.2-6.2c0.3,0,0.6-0.1,0.9-0.1c0,0,0,0,0,0h0c1-0.1,2.1-0.2,3.2-0.2H1997.3z"/>
<path class="st10" d="M1966,832.5L1966,832.5l-17.5-57.6l-0.3-0.9c0,0-2-0.2-5.5-0.5c-2-0.2-4.5-0.4-7.4-0.6  c-4.6-0.4-10.4-0.9-16.9-1.4h0c-0.2,0-0.4,0-0.6,0h0c-0.3,0-0.6,0-0.9-0.1h0c-1.2-0.1-2.5-0.2-3.8-0.3h0c-0.6,0-1.2-0.1-1.8-0.1  c-1.4-0.1-2.7-0.2-4.1-0.3c-9.9-0.7-20.9-1.3-32.5-1.9c-2.8-0.1-5.7-0.3-8.6-0.4c-1,0-2-0.1-3-0.1c-6.9-0.3-13.9-0.5-20.9-0.6h0  c-9.5-0.1-18.8-0.1-27.8,0h0c-0.7,0-1.4,0-2.1,0.1c-4.5,0.1-8.8,0.3-13,0.5c-8,0.4-15.4,1.1-22,2c-4,0.6-7.8,1.3-11.1,2  c-7.6,1.8-13.3,4.2-16.2,7.3c-6.3,6.8-10.9,28.5-14.2,56H1967L1966,832.5z"/>
<path class="st11" d="M1901.4,661.5c0,0-9.9,3.5-17.7,19.4c-7.8,15.8-11,58.5-14.9,58.9c-3.9,0.4-33.2-5.3-33.2-5.3l0.7,7.3  c0,0,30.5,20.3,36.9,16.7c6.4-3.7,24-52.9,25.1-60.4C1899.4,690.6,1901.4,661.5,1901.4,661.5z"/>
<path class="st12" d="M1969.6,656c0,0-39.7-8.4-68.2,5.5c0,0-18.3,39.3-17.7,46s6.9,34.5,1.2,44.9c-5.8,10.5,52.8,29.1,63.4,22.6  C1958.8,768.6,1971.3,663.2,1969.6,656z"/>
<path class="st13" d="M1827.1,815c-2.7,6.2-6.2,13.3-10.2,20.8h-54c6.2-32.3,11.7-54.8,14.5-65.4c1.2-4.5,1.8-6.9,1.8-6.9  c2.6-4.6,5.8-7.2,9.2-8.2c0,0,0,0,0,0c7.3-2.1,15.8,2.8,23.4,9.9c0.9,0.8,1.8,1.7,2.6,2.6h0c2.9,3,5.6,6.2,7.9,9.4  c5.4,7.3,9.2,14.5,9.7,18.1C1832.7,799.7,1830.7,806.6,1827.1,815z"/>
<path class="st13" d="M1788.1,755.5c0,0,12.1-7,39.8-1c27.6,6,50.2,20.3,50.2,20.3l-70.4,2.9L1788.1,755.5z"/>
<path class="st11" d="M1958.6,655.9c0,0,17.6-3.2,20.1,11.1c2.4,14.3,0.3,100.9-13.2,105.3c-13.5,4.4-68.8-20-68.8-20l1.7-9.2  c0,0,52.9,7.2,54.9,6.4C1955,748.7,1958.6,655.9,1958.6,655.9z"/>
<path class="st13" d="M1822.4,721.2l-2.5-23.1l32.7,43c0,0-13.7,6.8-14.5,5.5C1837.3,745.3,1822.4,721.2,1822.4,721.2z"/>
<polygon class="st2" points="1871.3,721.2 1901.4,767.2 1850.8,767.2 1822.4,721.2 "/>
<polygon class="st12" points="1822.4,721.2 1820,698.3 1837.1,719.6 "/>
<polygon class="st12" points="1899.9,764.9 1902.2,763.2 1872.2,718.7 1871.3,721.2 "/>
<polygon class="st12" points="1872.2,718.7 1824.5,720 1822.4,721.2 1871.3,721.2 "/>
<path class="st7" d="M1888.2,835.8h-54c-2.6-7.4-5-14.4-7.1-20.8c-5.4-16.3-9.4-29.1-11.9-37.5c-1.3-4.5-2.3-7.8-2.8-9.6  c-0.4-1.2-0.5-1.9-0.5-1.9c0-0.3,0-0.5,0-0.8c0.1-6,2.1-10,5.5-12.4c0.2-0.1,0.4-0.3,0.5-0.4c0,0,0,0,0,0c5.5-3.6,14-3.5,22.9-1.5h0  c7.9,1.8,16,5,22.3,8.4c5.1,2.7,9,5.5,10.6,7.5c0.1,0.1,0.2,0.3,0.4,0.5c0.3,0.5,0.6,1,0.9,1.5c0.8,1.5,1.6,3.4,2.4,5.6  c0,0.1,0.1,0.2,0.1,0.3c0,0.1,0,0.1,0.1,0.2c3,9.1,5.8,23.5,8.1,40v0C1886.5,821.6,1887.4,828.6,1888.2,835.8z"/>
<path class="st7" d="M1817.8,752.4c0,0,20.9-18.8,106.2,21.6l-70,1.1L1817.8,752.4z"/>
<path class="st11" d="M1898.3,743.1c0,0-7.8-5.2-10.6-5.6c-3.4-0.5-7-4.7-6.6-2.3c0.4,2.4,4.1,5.5,5.1,6.5c1,1-5.8,0.8-8.6-0.5  c-1.3-0.6-8.2-2.4-8.1,0.1c0,1.5,2.7,8.6,9.5,10.1c3.1,0.7,18.2,1.1,18.2,1.1L1898.3,743.1z"/>
<path class="st13" d="M1933.7,615.7c0,0,14.8,8.1,3.4,24.3c0,0,12.9,1.9,16.2-1.8c0,0-0.5,1.6-1.1,2.4c0,0,12.5-1.3,17.2-5.9  c4.6-4.6-7.6-68-41.2-56.1c0,0-29.7,1.9-22.2,35.5c7.5,33.6-3.6,35.1-3.6,35.1s3.3,1.1,4.8,0.9c0,0,2.1-1.1,2.3-2.4  c0,0-0.2,1.9-0.6,2.6c0,0,12.1-0.5,17.5-5.9C1931.5,639.2,1936.4,622.5,1933.7,615.7z"/>
<path class="st13" d="M1938.9,632.6c0,0,8.1-11.4,10.4-21.3c1.7-7.1,10.6-36.3-16.3-33.9c0,0-19,2.8-26.6,7.3  c-6,3.6-14.8,11.6-6.7,35.3l2,8L1938.9,632.6z"/>
<path class="st11" d="M1921.6,666.7c2,1.5,10.8,3.3,17.8-0.2c6.6-3.3,9.6-10.4,8.6-13.2c-1-2.9-4.1-3.9-7.4-21.4l-1.3,0.5l-21.6,8.8  c0,0,1.9,7,3.2,13.6C1922,660.5,1920.4,665.9,1921.6,666.7z"/>
<path class="st14" d="M1917.7,641.2c0,0,1.9,7,3.2,13.6c12.5-2.8,16.9-15.6,18.4-22.5L1917.7,641.2z"/>
<path class="st11" d="M1914.7,648.4c0,0,29.9-5.3,26.3-23.9c-3.6-18.6-2.2-31.7-21.4-29.1c-19.2,2.6-21.5,10.4-21.9,16.9  C1897.5,618.8,1906.9,649.3,1914.7,648.4z"/>
<path class="st13" d="M1906.7,591c0,0,14.7,24.8,29.2,26.4c14.5,1.7,17.8-4.7,17.8-4.7s-11.9-7-16.2-21.6  C1937.5,591.2,1912,578.5,1906.7,591z"/>
<path class="st13" d="M1909.2,592.7c0,0-6.1,6.4-7,11.9c-0.9,5.5-0.2,16.5-3.4,16.6c0,0-9.2-15.6-2.7-26  C1902.9,584,1909.2,592.7,1909.2,592.7z"/>
<path class="st13" d="M1908.1,593.7c0,0,10,24.6,28.8,30.3c0,0-19.8-13.2-23.7-29.8C1909.4,577.5,1908.1,593.7,1908.1,593.7z"/>
<path class="st13" d="M1969.3,634.7c-4.6,4.6-17.2,5.9-17.2,5.9c0.6-0.8,1.1-2.4,1.1-2.4c-6.6,5-22.2,0.8-22.2,0.8  c12.7-2.4,9.1-20.7,4.8-21.6c-2.1-13.8-6.6-31-8.7-38.7c0.6-0.1,0.9-0.1,0.9-0.1C1961.7,566.7,1973.9,630.1,1969.3,634.7z"/>
<path class="st12" d="M1952.8,654.4c0,0,19.4,0.3,24.5,4.5c5.1,4.2,7.5,64.1,7.5,64.1s-9.2-2.5-17.5-0.6c-8.3,1.9-19.1,0-19.1,0  L1952.8,654.4z"/>
<path class="st12" d="M1920,655.5c0,0-24.5,4.9-30.1,11.4c-5.6,6.5-16.8,39.2-16.8,39.2s4.3,0.7,6.6,3.7c2.2,3,9.5,1.6,9.5,1.6  L1920,655.5z"/>
<g>
	<path class="st9" d="M1875.4,835.8c3.3-7.3,6.8-14.3,10.1-20.9v0c6.7-13.1,13.1-24.6,18.5-33.1c0,0,0,0,0,0c1.8-2.9,3.5-5.4,5-7.5   c0.7-1,1.3-1.9,1.9-2.7c0.2-0.2,0.3-0.4,0.5-0.7c0.1-0.1,0.2-0.2,0.3-0.4c0.2-0.3,0.4-0.5,0.7-0.7c0.1-0.2,0.3-0.3,0.4-0.5   c0.1-0.1,0.2-0.2,0.3-0.3c2.8-2.6,6.3-4.6,10.3-6c4.4-1.5,9.5-2.4,14.9-2.8c5.2-0.3,10.8-0.2,16.4,0.3h0c5.7,0.5,11.4,1.3,16.9,2.3   c1.9,0.3,3.8,0.7,5.6,1.1c0,0,0.1,0,0.1,0h0c7.5,1.5,14.4,3.3,19.9,4.8v67H1875.4z"/>
	<path class="st9" d="M1915.3,835.8c0.6-1.6,1.2-3.3,1.7-4.9c0,0,0,0,0,0c1.1-3,2.2-6,3.3-8.9c3.1-8.1,6.1-15.7,8.9-22.2   c4.1-9.7,7.8-17.4,10.4-22.1c0.3-0.4,0.5-0.9,0.8-1.3c0.7-1.1,1.5-2.1,2.3-3c1-1.1,2.2-2.2,3.5-3.1c2-1.5,4.2-2.7,6.7-3.6   c5.3-2.1,11.6-3,18.5-3c1.9,0,3.9,0.1,5.9,0.2c0,0,0.1,0,0.1,0h0c3.3,0.2,6.7,0.6,10.2,1.1c0.6,0.1,1.2,0.2,1.8,0.3   c0.1,0,0.3,0,0.4,0.1c2.5,0.4,5,0.9,7.5,1.4v69H1915.3z"/>
</g>
<path class="st3" d="M2018.1,835.7h-6.3V544.8v-16.1v-83.4h-308v83.4v16.1v290.9h-6.3c-15.7,0-28.5,12.7-28.5,28.5v1h377.5v-1  C2046.5,848.4,2033.8,835.7,2018.1,835.7z M1718.1,459.6h279.3v69h-279.3V459.6z M1718.1,544.8h279.3v290.9h-279.3V544.8z"/>
<g>
	<g>
		<rect x="1723.2" y="465.8" class="st12" width="270.1" height="13.6"/>
		<rect x="1723.2" y="487.1" class="st12" width="270.1" height="13.6"/>
		<rect x="1723.2" y="508.4" class="st12" width="270.1" height="13.6"/>
		<rect x="1723.2" y="528.4" class="st12" width="270.1" height="13.6"/>
		<rect x="1723.2" y="550.9" class="st12" width="270.1" height="13.6"/>
	</g>
	<rect x="1735.7" y="459.4" class="st12" width="2.6" height="116.1"/>
	<rect x="1979.7" y="459.4" class="st12" width="2.6" height="116.1"/>
</g>
<g>
	<g>
		<rect x="1717.2" y="1131.3" class="st0" width="293.7" height="390.4"/>
	</g>
	<path class="st12" d="M1869.8,1138.4c0,0,0.7,115.4-116.3,212.9c0,0,24.4,127.1,20.9,163.2h-56.2v-376H1869.8z"/>
	<g>
		<path class="st11" d="M1880,1334.9c0,0-12.2,1.3-19.3,13.4c-7.1,12-21,64.2-31.1,74.8c-10.1,10.6-45.7,31.9-45.7,31.9l9,5.9    c0,0,54.3-16.5,62.2-26.1s19.2-60.9,19.2-60.9L1880,1334.9z"/>
		<path class="st13" d="M1892,1261.5c0,0,0.7-17.2,25.4-18.2c24.7-1.1,42.5,19.8,43.3,31.2c0.8,11.4-4.2,29.1,12,40.9    s8.2,66.5-30.1,66.5c-38.3,0-61.1-2.2-61.3-22c-0.1-19.8-0.8-37.7,14.4-43.2C1911,1311.1,1892,1261.5,1892,1261.5z"/>
		<g>
			<path class="st15" d="M1933.8,1481.4c0,0-0.1,0.2-0.1,0.5c0,0.1-0.1,0.3-0.1,0.4c-0.1,0.3-0.2,0.8-0.4,1.3c0,0.1-0.1,0.3-0.1,0.4     c-0.1,0.4-0.3,0.9-0.4,1.5c-0.1,0.3-0.2,0.7-0.3,1c-0.9,2.9-2,6.8-3.5,11.6c-0.3,1.2-0.7,2.5-1.1,3.9c-0.2,0.7-0.4,1.3-0.6,2     c-0.1,0.2-0.1,0.5-0.2,0.7c-0.1,0.5-0.3,0.9-0.4,1.4c-0.2,0.5-0.3,1.1-0.5,1.7c-0.4,1.3-0.8,2.6-1.1,4c-0.9,3.2-1.8,6.5-2.8,10     h-57.9c0.1-3.6,0.3-7.1,0.5-10.3c0-0.8,0.1-1.5,0.1-2.2c0.3-3.6,0.5-7,0.8-10c0.1-0.8,0.1-1.6,0.2-2.3c0.2-1.5,0.3-3,0.5-4.3     c0-0.3,0.1-0.5,0.1-0.7c0-0.3,0.1-0.5,0.1-0.7c0.2-1.4,0.3-2.8,0.5-4c0.1-0.4,0.1-0.8,0.2-1.2c0.1-0.4,0.1-0.7,0.2-1.1     c0.1-0.3,0.1-0.7,0.2-1s0.1-0.6,0.2-0.9c0-0.2,0-0.3,0.1-0.4c0.1-0.4,0.1-0.8,0.2-1.2c0-0.2,0.1-0.5,0.1-0.7     c0-0.2,0.1-0.4,0.1-0.6c0.1-0.8,0.4-1.5,0.7-2.1c0.1-0.2,0.2-0.3,0.3-0.5c0.1-0.2,0.2-0.3,0.3-0.4c0.2-0.3,0.4-0.6,0.7-0.8     c0.1-0.1,0.2-0.2,0.4-0.4c0.1-0.1,0.3-0.3,0.4-0.4c0.1-0.1,0.2-0.2,0.3-0.3c0.2-0.2,0.4-0.3,0.6-0.4c0.1-0.1,0.3-0.2,0.4-0.3     c0.3-0.2,0.6-0.3,0.9-0.5c0.2-0.1,0.3-0.2,0.5-0.2c0.2-0.1,0.4-0.2,0.6-0.3c0.2-0.1,0.4-0.1,0.6-0.2c0.2-0.1,0.4-0.1,0.6-0.2     c0.7-0.2,1.4-0.4,2.1-0.5c0.2,0,0.3-0.1,0.5-0.1c0.3-0.1,0.5-0.1,0.8-0.2c0.4,0,0.7-0.1,1.1-0.2c0.3,0,0.5-0.1,0.8-0.1     c0.2,0,0.4,0,0.6-0.1c0.3,0,0.7-0.1,1.1-0.1c0.4,0,0.9,0,1.3-0.1c2-0.1,4.2,0,6.4,0.1c0.5,0,1,0.1,1.5,0.1     c0.8,0.1,1.7,0.1,2.6,0.2c1.2,0.1,2.5,0.3,3.8,0.5h0c0.1,0,0.2,0,0.4,0c0.6,0.1,1.2,0.2,1.8,0.3c1.8,0.3,3.6,0.6,5.3,0.9     c0.7,0.1,1.4,0.3,2.1,0.4l1.9,0.4c1.8,0.4,3.6,0.8,5.3,1.2c0.6,0.2,1.3,0.3,1.9,0.5c0.2,0,0.3,0.1,0.5,0.1     c0.3,0.1,0.6,0.1,0.9,0.2c0.5,0.1,0.9,0.2,1.3,0.3c0.7,0.2,1.4,0.4,2.1,0.5c0.3,0.1,0.5,0.1,0.8,0.2c0.4,0.1,0.9,0.2,1.3,0.3     c1.1,0.3,2.2,0.6,3.2,0.9c0.5,0.1,0.9,0.3,1.3,0.4c0.4,0.1,0.7,0.2,1,0.3c0.1,0,0.1,0,0.2,0c0.3,0.1,0.6,0.2,0.8,0.2     c0.3,0.1,0.5,0.2,0.7,0.2c0.3,0.1,0.6,0.2,0.8,0.3c0.2,0.1,0.3,0.1,0.5,0.2c0.2,0,0.3,0.1,0.5,0.2     C1933.3,1481.3,1933.8,1481.4,1933.8,1481.4z"/>
		</g>
		<path class="st16" d="M1933.8,1481.4c0,0-0.1,0.2-0.1,0.5c0,0.1-0.1,0.3-0.1,0.4c-0.1,0.3-0.2,0.8-0.4,1.3c0,0.1-0.1,0.3-0.1,0.4    c-0.1,0.4-0.3,0.9-0.4,1.5c-0.1,0.3-0.2,0.7-0.3,1c-0.9,2.9-2,6.8-3.5,11.6c-0.3,1.2-0.7,2.5-1.1,3.9c-0.2,0.7-0.4,1.3-0.6,2    c-0.1,0.2-0.1,0.5-0.2,0.7c-0.1,0.5-0.3,0.9-0.4,1.4c-0.2,0.5-0.3,1.1-0.5,1.7c-0.4,1.3-0.8,2.6-1.1,4c-0.9,3.2-1.8,6.5-2.8,10    h-57.9c0.1-3.6,0.3-7.1,0.5-10.3c0-0.8,0.1-1.5,0.1-2.2c0.3-3.6,0.5-7,0.8-10c0.1-0.8,0.1-1.6,0.2-2.3c0.2-1.5,0.3-3,0.5-4.3    c0-0.3,0.1-0.5,0.1-0.7c0-0.3,0.1-0.5,0.1-0.7c0.2-1.4,0.3-2.8,0.5-4c0.1-0.4,0.1-0.8,0.2-1.2c0.1-0.4,0.1-0.7,0.2-1.1    c0.1-0.3,0.1-0.7,0.2-1s0.1-0.6,0.2-0.9c0-0.2,0-0.3,0.1-0.4c0.1-0.4,0.1-0.8,0.2-1.2c0-0.2,0.1-0.5,0.1-0.7    c0-0.2,0.1-0.4,0.1-0.6c0.1-0.8,0.4-1.5,0.7-2.1c0.1-0.2,0.2-0.3,0.3-0.5c0.1-0.2,0.2-0.3,0.3-0.4c0.2-0.3,0.4-0.6,0.7-0.8    c0.1-0.1,0.2-0.2,0.4-0.4c0.1-0.1,0.3-0.3,0.4-0.4c0.1-0.1,0.2-0.2,0.3-0.3c0.2-0.2,0.4-0.3,0.6-0.4c0.1-0.1,0.3-0.2,0.4-0.3    c0.3-0.2,0.6-0.3,0.9-0.5c0.2-0.1,0.3-0.2,0.5-0.2c0.2-0.1,0.4-0.2,0.6-0.3c0.2-0.1,0.4-0.1,0.6-0.2c0.2-0.1,0.4-0.1,0.6-0.2    c0.7-0.2,1.4-0.4,2.1-0.5c0.2,0,0.3-0.1,0.5-0.1c0.3-0.1,0.5-0.1,0.8-0.2c0.4,0,0.7-0.1,1.1-0.2c0.3,0,0.5-0.1,0.8-0.1    c0.2,0,0.4,0,0.6-0.1c0.3,0,0.7-0.1,1.1-0.1c0.4,0,0.9,0,1.3-0.1c2-0.1,4.2,0,6.4,0.1c0.5,0,1,0.1,1.5,0.1    c0.8,0.1,1.7,0.1,2.6,0.2c1.2,0.1,2.5,0.3,3.8,0.5h0c0.1,0,0.2,0,0.4,0c0.6,0.1,1.2,0.2,1.8,0.3c1.8,0.3,3.6,0.6,5.3,0.9    c0.7,0.1,1.4,0.3,2.1,0.4l1.9,0.4c1.8,0.4,3.6,0.8,5.3,1.2c0.6,0.2,1.3,0.3,1.9,0.5c0.2,0,0.3,0.1,0.5,0.1    c0.3,0.1,0.6,0.1,0.9,0.2c0.5,0.1,0.9,0.2,1.3,0.3c0.7,0.2,1.4,0.4,2.1,0.5c0.3,0.1,0.5,0.1,0.8,0.2c0.4,0.1,0.9,0.2,1.3,0.3    c1.1,0.3,2.2,0.6,3.2,0.9c0.5,0.1,0.9,0.3,1.3,0.4c0.4,0.1,0.7,0.2,1,0.3c0.1,0,0.1,0,0.2,0c0.3,0.1,0.6,0.2,0.8,0.2    c0.3,0.1,0.5,0.2,0.7,0.2c0.3,0.1,0.6,0.2,0.8,0.3c0.2,0.1,0.3,0.1,0.5,0.2c0.2,0,0.3,0.1,0.5,0.2    C1933.3,1481.3,1933.8,1481.4,1933.8,1481.4z"/>
		<path class="st15" d="M1962.3,1521.7h-57.2c-1.4-8-2.8-15.5-4-21.9c-2-11-3.7-19.3-4.4-23c-0.3-1.4-0.4-2.2-0.4-2.2    s0.5-0.6,1.5-1.7h0c5.9-6.7,28.3-30.4,39.1-19.5c1.8,1.8,3.6,3.7,5.5,5.7c6.4,7,13.1,15.8,17.1,28.3    C1962.4,1496.7,1963.7,1507.9,1962.3,1521.7z"/>
		<path class="st11" d="M1892,1343l9.7,14.5l19.5-1l9-23.3c0,0-2.8-0.5-4.1-29.5l-24.3,7.4c0,0,1.3,7.6-0.4,15.8    C1900.1,1332.7,1897.5,1338.8,1892,1343z"/>
		<path class="st11" d="M1889.3,1332.7c1.3,0,24.2-7.7,56.9,5.7c0,0-15.5,88.9-8.9,105.8c6.7,17,9.2,32,9.2,32l-72.4,0.9    c0,0,1-58.2-2.3-78.8C1868.4,1377.7,1889.3,1332.7,1889.3,1332.7z"/>
		<path class="st8" d="M1960.7,1485.6c-1.2,2.6-3.9,4.6-7.3,6.2c-4.4,2.1-9.7,3.5-13.9,4.5c-3.3,0.8-8.4,1.6-14.2,2.3    c-3.1,0.4-6.4,0.6-9.8,0.8c-0.5,0-1,0.1-1.4,0.1c-21.8,1.1-46.2,0.6-49.4-9.8c-0.3-1-0.3-3-0.1-5.6c0.4-5.4,1.7-13.4,2.9-20.8    c1.2-7.2,2.3-13.9,2.6-17.3c1.7-18.4-1.8-44.8-2.4-61.9c-0.4-14.2,12.3-49.1,12.3-49.1s2.4-1.4,11.9-2.7c0,0,1.4,17.1,10.1,18.5    c15.2,2.5,27.4-11.4,31-17c0,0,17.4,4.4,22.6,10.2c3.7,4.2,3.2,14.2,2.1,20.5c-0.3,2-0.8,3.6-1.1,4.6c-1.1,2.9-5.2,23.8-7,32.2    c0,0.2-0.1,0.4-0.1,0.6c-0.1,0.6-0.2,1.1-0.3,1.5c0,0,0,0,0,0c-0.1,0.4-0.2,0.8-0.3,1c0,0.1-0.1,0.3-0.1,0.4c0,0,0,0,0,0    c-2.7,8.6-4.3,17.3-3.4,28.1c0.1,1.3,0.4,2.8,0.8,4.5C1948.5,1449.8,1958.6,1474.3,1960.7,1485.6z"/>
		<path class="st14" d="M1901.3,1326.9c10.1-0.8,24.8-23.2,24.8-23.2l-24.3,7.4C1901.7,1311.1,1903,1318.7,1901.3,1326.9z"/>
		<path class="st8" d="M1891.8,1332.2c0,0-23.3,2.5-31.2,13.5c-7.8,11-12.8,27.4-12.8,27.4s5.6,16.7,21.9,14.6    C1886,1385.6,1891.8,1332.2,1891.8,1332.2z"/>
		<path class="st11" d="M1897.7,1317.7c0,0,29.7-0.9,28.9-19.4c-0.8-18.5,2.4-31.1-16.6-31.3c-19-0.2-22.4,7-23.6,13.3    C1885.1,1286.6,1889.9,1317.5,1897.7,1317.7z"/>
		<path class="st13" d="M1899.9,1264.7c0,0,0.9,6.1,12.6,14.2s13.7,26.7,13.7,26.7s8.9-33.2-1.7-40.7    C1913.9,1257.4,1899.9,1264.7,1899.9,1264.7z"/>
		<path class="st13" d="M1909.5,1254.2c0,0-15.2-1.4-26,15.6c-4.6,7.3-1,18.8,3.8,24.8c0,0,1.6-15.7,9.9-20.9    C1905.5,1268.5,1909.5,1254.2,1909.5,1254.2z"/>
		<path class="st12" d="M1904.5,1306.9c0,0-0.3,2.3-5.8,2.6c0,0-4.7,0.2-4.8-2.2C1893.8,1307.3,1898.1,1305,1904.5,1306.9z"/>
		<g>
			<g>
				<path class="st7" d="M1808,1430.1c0,0-7.8-9.1-0.5-14.9c0,0,5.4-3.3,9.7-3c0,0-6.2,10.4-4.2,11.4c2,1,6.1-12.1,6.1-12.1      s12.2-1.2,16.1,0.7c0,0-10.4,8.5-8.2,9.1c2.2,0.5,13.5-7.9,13.5-7.9s11.4,1.9,10.8,8.9s-4.5,9.1-6.2,8.9s-11.8-4-12-2.6      c-0.2,1.4,5.8,6,10.1,6.2c0,0-8,8.8-13.3,6.3c-5.3-2.6-5.8-6.6-9.1-8.1c-3.3-1.5-6.2-1.5-4.8,0s7.4,3,9.3,6.4s3.6,5.6-1.9,4.8      c-5.5-0.8-14.5-4.9-14.9-9.5C1808,1430.1,1808,1430.1,1808,1430.1z"/>
				<g>
					<path class="st7" d="M1845.7,1422.4c0,0-30.9-1.2-37.7,7.6c0,0-1.5,4.5-6.1,8.6l-0.7,2c0,0,5.4-5.6,7.3-6       C1808.4,1434.7,1805.4,1423.7,1845.7,1422.4z"/>
					<path class="st7" d="M1801.8,1438.7c0,0-6.6,4.9-7.1,13.7l1.2,0.1c0,0,2.1-9.1,5.9-12.6       C1805.7,1436.3,1801.8,1438.7,1801.8,1438.7z"/>
				</g>
			</g>
			<g>
				<path class="st7" d="M1780.6,1418.6c0,0,12.5-7,6.6-16.4c0,0-4.7-5.8-9.6-7.3c0,0,2.7,14.1,0,14.5c-2.7,0.3-1.8-15.9-1.8-15.9      s-13.1-6.3-18.3-5.8c0,0,8.1,13.8,5.5,13.5c-2.7-0.3-11.8-14.3-11.8-14.3s-13.5-2.5-15.6,5.5c-2.2,8,1.3,12,3.3,12.5      c2,0.5,14.8,0.3,14.5,2s-9,4.3-13.8,2.8c0,0,5.3,13.1,12.3,12.5c7-0.7,9.1-5,13.5-5.3c4.3-0.3,7.5,0.8,5.3,2      c-2.2,1.2-9.5,0.4-13,3.3c-3.5,3-6.3,4.8,0.2,6.1c6.5,1.3,18.1,0.5,20.4-4.5C1780.6,1418.6,1780.6,1418.6,1780.6,1418.6z"/>
				<g>
					<path class="st7" d="M1741.7,1394.6c0,0,34.9,11.3,38.9,23.9c0,0-0.2,5.6,3.3,12.1v2.5c0,0-3.7-8.5-5.6-9.6       C1778.3,1423.6,1786.1,1412.6,1741.7,1394.6z"/>
					<path class="st7" d="M1783.9,1430.7c0,0,5.4,8.2,2.3,18.1l-1.4-0.4c0,0,1.3-11-1.5-16.5       C1780.6,1426.5,1783.9,1430.7,1783.9,1430.7z"/>
				</g>
			</g>
			<g>
				<path class="st7" d="M1800.4,1408.9c0,0-16.4-9.2-8.8-21.7c0,0,6.1-7.7,12.7-9.6c0,0-3.5,18.6,0,19c3.5,0.4,2.4-21,2.4-21      s17.3-8.3,24.1-7.7c0,0-10.7,18.2-7.2,17.7c3.5-0.4,15.5-18.8,15.5-18.8s17.7-3.3,20.6,7.2c2.8,10.5-1.8,15.8-4.4,16.4      c-2.6,0.7-19.5,0.4-19,2.6c0.4,2.2,11.8,5.7,18.2,3.7c0,0-7,17.3-16.2,16.4c-9.2-0.9-12-6.6-17.7-7c-5.7-0.4-9.9,1.1-7,2.6      c2.8,1.5,12.5,0.5,17.1,4.4c4.6,3.9,8.3,6.3-0.2,8.1c-8.5,1.8-23.9,0.7-26.9-5.9C1800.4,1408.9,1800.4,1408.9,1800.4,1408.9z"/>
				<g>
					<path class="st7" d="M1851.7,1377.4c0,0-46,14.9-51.2,31.5c0,0,0.2,7.4-4.4,16v3.3c0,0,4.8-11.2,7.4-12.7       C1803.5,1415.5,1793.2,1401.1,1851.7,1377.4z"/>
					<path class="st7" d="M1796,1424.9c0,0-7.1,10.8-3,23.9l1.8-0.5c0,0-1.8-14.4,1.9-21.7C1800.5,1419.4,1796,1424.9,1796,1424.9z"/>
				</g>
			</g>
			<path class="st7" d="M1832,1445.1c0,17.8-14.4,32.2-32.2,32.2c-3.7,0-7.3-0.6-10.6-1.8c-12.6-4.4-21.6-16.3-21.6-30.4H1832z"/>
			<path class="st7" d="M1799.9,1477.2c-1.3,0.2,5.3,0,3.9,0c-17.8,0-32.2-14.4-32.2-32.2h8     C1779.6,1461.5,1784,1475.3,1799.9,1477.2z"/>
			<path class="st7" d="M1832.5,1478.9h-65.2c0-1.1,0.4-2.1,1.2-2.8c0.7-0.7,1.7-1.2,2.8-1.2h57.3     C1830.7,1474.9,1832.5,1476.7,1832.5,1478.9z"/>
			<rect x="1766.6" y="1445.1" class="st7" width="66.1" height="1"/>
		</g>
		<path class="st11" d="M1834.1,1457.1c-0.7-1.7-7.7-3.4-10.5-4.6c0,0-1.8,1.3,0.6,3.4c0.6,0.6,1.8,1.4,2.9,2.2    c-0.3-0.1-0.7-0.2-1-0.3c-2.5-0.7-18.6,4.8-20.5,8.4c-1.9,3.6,9.2,12.5,17.6,9.7c4.3-1.4,18.2-4,18.2-4l-2.3-11.3    C1839.1,1460.6,1834.8,1458.8,1834.1,1457.1z"/>
		<path class="st11" d="M1958.2,1351.2c0,0,3.3,23-20.6,57c-23.9,34-22.5,36.2-36.3,45.2c-13.7,9-59.9,18.5-59.9,18.5l-2.3-11.3    c0,0,44.8-28.8,49-34.5s33-69.6,33-69.6L1958.2,1351.2z"/>
		<path class="st8" d="M1935.2,1342.7c0,0-19.1,15-24.2,22.3c-5.1,7.3-9.7,23.7-9.7,23.7s20,12.5,54.5,3.5c0,0,9.2-42.6-0.2-48.2    c-9.4-5.5-18.1-1.3-18.1-1.3H1935.2z"/>
	</g>
	<path class="st12" d="M1877.4,1138.4c0,0,21.4,94.5,120,127.9c0,0-0.9,145.6-12.1,183.9s-13.9,64.3-13.9,64.3h26v-376H1877.4z"/>
	<path class="st3" d="M2018.1,1514.4h-6.3v-290.9v-16.1v-83.4h-308v83.4v16.1v290.9h-6.3c-15.7,0-28.5,12.7-28.5,28.5v1h377.5v-1   C2046.5,1527.2,2033.8,1514.4,2018.1,1514.4z M1718.1,1138.4h279.3v69h-279.3V1138.4z M1718.1,1223.5h279.3v290.9h-279.3V1223.5z"/>
</g>
<rect x="1066.3" y="1635" class="st17" width="1103.4" height="151"/>
<path class="st18" d="M1328.4,1786.9c0,0-20.4-73.5-105.4-98.1s-79.5-12.3-156.2-56.2c-76.7-43.8-197.3-16.4-222,19.2  c-24.7,35.6-82.2,54.8-161.7,53.4c-79.5-1.4-83.5,76-83.5,76L1328.4,1786.9z"/>
<path class="st19" d="M2749.1,1788.3H250.9c-1.7,0-3.1-1.4-3.1-3.1v-1.6c0-1.7,1.4-3.1,3.1-3.1h2498.1c1.7,0,3.1,1.4,3.1,3.1v1.6  C2752.1,1786.9,2750.7,1788.3,2749.1,1788.3z"/>
<rect x="1243.2" y="1131.3" class="st4" width="293.7" height="390.4"/>
<rect x="1250.4" y="1138.5" class="st0" width="279.3" height="376"/>
<path class="st13" d="M1364.3,1469.6c0,0-16.1,22-16.1,44.9h109.3c0,0-5.9-35.6-30.8-44.9  C1401.8,1460.4,1364.3,1469.6,1364.3,1469.6z"/>
<path class="st11" d="M1498.1,1351.3c0,0-17.2,43.7-19.1,45.3c-5.2,4.2-36.9-44.3-41.8-52.8c-4.9-8.5-35-1.2-37.6-17  c-0.8-4.8-2.4-10.1-2.4-13.5c0-0.4,0-0.8,0-1.2c0-3.1,0.2-6.4,0.7-9.9l-1.5,0.1l-25.3,2c0,0,2.5,6.1,1.7,13.5  c-0.3,2.4-0.4,6.9-0.7,11.3c-0.3,4.9-3.7,9.1-8.4,10.5c-10.8,3.2-24.3,8-26.6,14c-4.6,11.7-14.8,64.7-16.8,82.7  c-2,18-20.2,70.6-20.2,70.6h9.1c0,0,34.2-57.5,37.1-66.4c0.9-2.8,4.2-13.7,8.2-27.7c3.8,15.1,9.2,30.2,10.4,36.4  c2.1,10.7-17.7,45.4-15.7,55s106.4,14.8,105,0s-16.1-39.9-19.1-51.6c-2.2-8.8,2.9-38.3,4.5-55.8c16,18.2,37.7,35.2,44.3,31.7  c17.1-8.9,22.5-75,22.5-75L1498.1,1351.3z"/>
<path class="st13" d="M1379.2,1288.4c0,0-13.6,10.8-2.1,26.5c0,0-13.3-0.5-16.7-4c0,0,0.6,1.6,1.2,2.3c0,0-12.3-1-16.9-5.5  c-4.6-4.4,6.1-66.8,39.4-55.8c0,0,29.1,1.3,22.5,34.4c-6.7,33.1,4.2,34.4,4.2,34.4s-3.2,1.1-4.7,1c0,0-2-1.1-2.3-2.3  c0,0,0.2,1.9,0.7,2.6c0,0-11.9-0.3-17.2-5.4C1381.7,1311.4,1376.7,1295.1,1379.2,1288.4z"/>
<path class="st13" d="M1367.2,1302.1c0,0-5.9-12.3-6.5-22.3c-0.4-7.1,6.2-32.6,31.9-25.8c0,0,7.5,1.6,14,7.3  c5.2,4.5,12.4,13.7,0.6,35.2l-3.3,7.4L1367.2,1302.1z"/>
<path class="st14" d="M1399.5,1326.8c-18.3-2.7-28.6-21.9-28.6-21.9c7.5-0.8,17.8,3,26.2,7.1c0,0.4,0,0.8,0,1.2  C1397.1,1316.6,1398.3,1322,1399.5,1326.8z"/>
<path class="st11" d="M1399.7,1319.5c0,0-32.8-3.4-30.4-23.8c2.4-20.4-0.2-34.6,20.8-33.3c21,1.3,24.2,9.5,25,16.6  C1416.1,1286,1408.3,1319.8,1399.7,1319.5z"/>
<path class="st13" d="M1405.2,1263.7c0,0-11.8,22.9-26,24.7c-14.2,1.9-19.7-2.5-19.7-2.5s11.6-7.1,15.5-21.5  C1375,1264.5,1399.8,1251.5,1405.2,1263.7z"/>
<path class="st13" d="M1402.7,1265.4c0,0,6.1,6.1,7.1,11.5c1,5.4,0.5,16.2,3.6,16.2c0,0,8.7-15.5,2.2-25.6  C1408.7,1256.8,1402.7,1265.4,1402.7,1265.4z"/>
<path class="st13" d="M1403.9,1266.3c0,0-9.4,24.3-27.7,30.2c0,0,19.2-13.3,22.6-29.7C1402.3,1250.5,1403.9,1266.3,1403.9,1266.3z"/>
<path class="st12" d="M1393,1307.5c0,0,0.8,2.9,2.8,3.4s7.3,1,7.7,0.6c0.5-0.4,2-3,2-3S1397.2,1306.6,1393,1307.5z"/>
<path class="st11" d="M1497.7,1353.7c0,0-0.6-15.6,1.1-20.9c1.7-5.3,5.3-14,6.1-13.6c0.8,0.4,2.4,12,1.7,14.6  c-0.7,2.6,0.7,8.8,1.7,7.6s2.7-9.5,4-9c1.4,0.5,0.1,5.5,0.7,6.8s0.6,4.6-2,8.9s-5.2,9.2-5.2,9.2L1497.7,1353.7z"/>
<path class="st11" d="M1302,1506.7c0,0-13.2-3.2-17.5-1.7c-4.3,1.5-12.2,9.2-10.2,9.3c2,0.1,11.1-2.3,12.4-2c1.3,0.3,5,0.8,5,0.8  s-5.4,0.3-5.1,1.3c0.3,1,13.9,1.1,15.5,0s7.1-7.8,7.1-7.8H1302z"/>
<path class="st12" d="M1349.5,1344.3c0,0,16.6,14.2,37.6,13.1c21.1-1.1,37.7-18.4,37.7-18.4s9.6,0.1,14.6,5.4  c5,5.4,24.2,29.4,24.2,29.4s1.7,18.1-19.9,30.7l-2.2-3.9c0,0-3.6,45-1.4,49.2c2.3,4.2,20.2,48.5,17.2,55.3  c-2.9,6.8-100.9,23.5-108.3-1.1c-7.4-24.6,11.1-45.9,10.3-54.7c-0.8-8.8-5-36.7-5-36.7s-28.3-4.3-29.3-21.3  C1325.2,1391.4,1330.2,1344,1349.5,1344.3z"/>
<path class="st3" d="M1550.5,1514.4h-6.3v-290.9v-16.1v-83.4h-308v83.4v16.1v290.9h-6.3c-15.7,0-28.5,12.7-28.5,28.5v1H1579v-1  C1579,1527.2,1566.2,1514.4,1550.5,1514.4z M1250.6,1138.4h279.3v69h-279.3V1138.4z M1250.6,1223.5h279.3v290.9h-279.3V1223.5z"/>
<g>
	<g>
		<rect x="1255.6" y="1144.6" class="st12" width="270.1" height="13.6"/>
		<rect x="1255.6" y="1165.9" class="st12" width="270.1" height="13.6"/>
		<rect x="1255.6" y="1187.2" class="st12" width="270.1" height="13.6"/>
		<rect x="1255.6" y="1207.2" class="st12" width="270.1" height="13.6"/>
		<rect x="1255.6" y="1229.7" class="st12" width="270.1" height="13.6"/>
	</g>
	<rect x="1268.2" y="1138.2" class="st12" width="2.6" height="116.1"/>
	<rect x="1512.1" y="1138.2" class="st12" width="2.6" height="116.1"/>
</g>
<g>
	<g>
		<path class="st20" d="M1454.8,1503.5h-39.8v-14h39.9c3.1,0,5.6,2.5,5.6,5.6v2.7C1460.6,1501,1458,1503.5,1454.8,1503.5z"/>
		<path class="st21" d="M1494.5,1495.3v2.1c0,1.1-0.3,2.2-0.8,3.1c-1.1,1.8-3,3.1-5.3,3.1h-74.5c-0.5,0-0.9-0.4-0.9-0.9v-0.3    c0-0.5,0.4-0.9,0.9-0.9h45.4c0.2-0.3,0.5-0.6,0.6-1c0.4-0.8,0.7-1.7,0.7-2.7v-2.7c0-0.5-0.1-1-0.2-1.4c-0.2-0.8-0.6-1.5-1.1-2.1    h-45.5c-0.5,0-0.9-0.4-0.9-0.9v-0.3c0-0.5,0.4-0.9,0.9-0.9h74.9c2.6,0,4.9,1.8,5.6,4.2C1494.4,1494.2,1494.5,1494.7,1494.5,1495.3    z"/>
		<path class="st22" d="M1494.3,1493.7h-33.9c-0.2-0.8-0.6-1.5-1.1-2.1h-45.5c-0.5,0-0.9-0.4-0.9-0.9v-0.3c0-0.5,0.4-0.9,0.9-0.9    h74.9C1491.3,1489.5,1493.6,1491.3,1494.3,1493.7z"/>
	</g>
	<polygon class="st23" points="1415.1,1496.5 1420.6,1496.8 1415.1,1496.9  "/>
	<polygon class="st23" points="1415.1,1498.7 1428.2,1499 1415.1,1499.1  "/>
</g>
<g>
	<g>
		<g>
			<path class="st13" d="M1423.6,1514.4h42.3v-10.9h-42.7c-2.9,0-5.3,2.4-5.3,5.3l0,0C1417.9,1511.9,1420.4,1514.4,1423.6,1514.4z"/>
			<path class="st20" d="M1463.5,1514.4h48.2v-10.9h-48.3c-3,0-5.4,2.4-5.4,5.4v0C1458,1512,1460.4,1514.4,1463.5,1514.4z"/>
			<path class="st13" d="M1454.7,1514.4h58.6c0.5,0,0.8-0.4,0.8-0.8l0,0c0-0.5-0.4-0.8-0.8-0.8h-58.6c-0.5,0-0.8,0.4-0.8,0.8l0,0     C1453.9,1514.1,1454.3,1514.4,1454.7,1514.4z"/>
			<path class="st13" d="M1454.7,1505.1h58.6c0.5,0,0.8-0.4,0.8-0.8l0,0c0-0.5-0.4-0.8-0.8-0.8h-58.6c-0.5,0-0.8,0.4-0.8,0.8l0,0     C1453.9,1504.8,1454.3,1505.1,1454.7,1505.1z"/>
		</g>
		<polygon class="st23" points="1511.6,1509 1505.1,1509.1 1511.6,1509.3   "/>
		<polygon class="st23" points="1511.6,1506.5 1496.1,1506.6 1511.6,1506.7   "/>
	</g>
	<g>
		<path class="st21" d="M1496.3,1506.6c0,0,0.7,0.5,0.9,1.2c0,0.1,0.1,0.3,0.1,0.4c0,1,0,3.3,0,3.3l2-1.2l2,1.2v-3.1    c0-0.6-0.2-1.2-0.5-1.6c-0.2-0.2-0.3-0.3-0.5-0.3H1496.3z"/>
		<path class="st24" d="M1496.3,1506.6c0,0,0.7,0.5,0.9,1.2l3.9,0c0,0-0.2-1.1-1-1.3H1496.3z"/>
	</g>
</g>
<g>
	<rect x="1237.1" y="452.6" class="st0" width="293.7" height="390.4"/>
</g>
<path class="st12" d="M1378.3,459.6c0,0-0.7,115.4,116.3,212.9c0,0-24.4,127.1-20.9,163.2h56.2v-376H1378.3z"/>
<g>
	<path class="st25" d="M1273.5,678.5c0,0-24.5,3.5-30.8,9c-10.7,9.3-2.8,151.3-2.8,151.3s36.8,3,36.8,0   C1276.7,835.7,1273.5,678.5,1273.5,678.5z"/>
	<path class="st26" d="M1369.5,839l-52.6,3.9l-36.7,2.7l-7.7,0.6l-0.5-3.3l-0.4-2.9l-0.1-0.6l-1.8-12.8l0,0l-0.7-5.1l-2.3-15.6   l-11.5-79.8l-3.2-22.3c0,0-2.4-21,17.1-24.4c1.4-0.3,2.9-0.5,4.5-0.8c0,0,0,0,0.1,0c6.6-1.2,14.2-2.5,21.6-3.5   c6.1-0.8,12.2-1.3,17.6-1.2c2.3,0,4.5,0.2,6.5,0.5c2.6,0.4,4.9,1,6.8,1.9c0.2,0.1,0.4,0.2,0.6,0.3c0.8,0.4,1.4,0.8,2.1,1.3   c0.3,0.2,0.5,0.4,0.7,0.7c0.7,0.7,1.4,2.1,2.3,4.1c0.9,2.2,2,5.2,3.1,8.8c1.6,5,3.3,11.1,5.2,18.1c5.2,19.5,11.1,45.1,16.3,68.5   c0.2,0.7,0.3,1.4,0.5,2.1c0.7,3,1.3,6,2,8.9c0,0.1,0.1,0.3,0.1,0.4c0.1,0.5,0.2,1.1,0.3,1.6c0.3,1.4,0.6,2.9,0.9,4.3   c0.6,2.8,1.2,5.5,1.8,8.1c3.8,17.7,6.6,31.2,7.3,34.7C1369.5,838.7,1369.5,839,1369.5,839z"/>
</g>
<path class="st27" d="M1336.2,690.9c0,0,8.3,12.3,13.1,38.2c4.2,22.7,7.8,31,13.8,35.7c6,4.6,39.4,18.4,39.4,18.4l-2.5,5.9  c0,0-49-6.7-54.5-14.9c-5.5-8.2-26.5-56.6-24.9-67.7C1322.3,695.3,1336.2,690.9,1336.2,690.9z"/>
<path class="st7" d="M1448.5,842.9H1408c-1-4-2.5-6.6-5.4-6.7c-2.6-0.1-16.5,1.3-33.4,1.9c-26.8,0.9-60.9-0.4-68.5-13.9  c-1.8-3.2-3.2-6.5-4.1-9.6v0c-0.2-0.5-0.3-0.9-0.4-1.4c-1.6-5.8-1.9-11.4-1.5-16.2c0.2-2.8,0.6-5.4,1.1-7.6c1.2-5.6,2.8-9.1,2.8-9.1  l13.2,9.7c0,0,0,0,0,0l1.5,1.1c0,0,11.3-0.8,27-1.5c3.5-0.1,7.1-0.3,10.9-0.4c1.9-0.1,3.8-0.1,5.8-0.1c0.6,0,1.3,0,1.9,0  c4.7-0.1,9.6-0.1,14.4-0.1c0.5,0,1,0,1.4,0c1.1,0,2.3,0,3.4,0c18.6,0.2,36.4,1.4,45.3,4.8c1.3,0.5,2.4,1,3.3,1.6c0,0,0.1,0,0.1,0.1  C1433.2,799.5,1441.1,819.3,1448.5,842.9z"/>
<path class="st8" d="M1411.4,842.9h-94.5l-36.7,2.7c-1.8-0.8-3.4-1.7-4.8-2.7c-1.3-0.9-2.4-1.9-3.4-2.9c-0.2-0.2-0.4-0.4-0.5-0.6  c-0.6-0.7-1.1-1.5-1.5-2.3c-1.8-3.6-2.5-7-2.3-10.3v0c0.1-1.9,0.5-3.6,1.2-5.4c1.5-4.1,4.2-7.8,7.3-11.1  c7.9-8.2,18.5-13.3,18.5-13.3s0,0,0.1,0c1.1,0.1,12.1,0.6,26.6,1.8h0c1.4,0.1,2.8,0.2,4.3,0.4c0,0,0,0,0,0c11.4,1,24.4,2.4,36.3,4.3  c15.4,2.4,29,5.5,34.9,9.6C1401.5,816.2,1406.5,827.7,1411.4,842.9z"/>
<path class="st13" d="M1334.3,646.1c0-0.1,0-0.1,0-0.2c0,0,0,0,0,0c0-1.6-0.1-3.2-0.2-4.8c-0.3-4.8-1-9.5-1.8-13.6  c-0.5-2.4-1.1-4.6-1.7-6.6c-0.1-0.3-0.2-0.6-0.3-0.9v0c-1.5-4.6-3.4-8-5.5-9.3c-3.8-2.5-8.4-3-11.7-3.1c0.9-0.8,2.6-1,2.6-1  c-2-0.4-6.7,1.3-6.7,1.3c-27.5-12.8-34.7,28.5-34.8,38.2c-0.1,9.7-0.7,20.8-15.4,28.6c-5.6,3-9.4,6.5-11.7,10.4  c-9.7,15.9,4.2,36.2,4.2,36.2c0.1,0,1.6,2,3.7,4.9c5.6,7.4,15.5,20.5,15.5,20.5s0,0,0,0c0-1.8,1.5-5.2,4.1-9.6c1.9-3.3,4.4-7,7.3-11  c1.4-1.9,2.8-3.9,4.4-5.8c2-2.6,4.2-5.3,6.4-7.9c0.9-1,1.7-2,2.6-3c3.9-4.5,8-8.8,12.1-12.6c0.9-0.9,1.9-1.7,2.8-2.5h0  c1.1-1,2.3-2,3.4-2.9c2.2-1.7,4.3-3.3,6.3-4.5c0.1-0.1,0.2-0.1,0.3-0.2h0c0.3-0.2,0.5-0.3,0.8-0.5c0.9-1.1,1.6-2.3,2.3-3.6  c0.3-0.5,0.5-1,0.8-1.5c0.7-1.5,1.3-3,1.9-4.5c1.6-4.6,2.5-8.7,2.7-9.4c-0.6,3.9-1.3,7.1-2,9.7c-0.5,1.7-1,3.2-1.5,4.4  c-0.4,0.9-0.7,1.7-1.1,2.3c-0.2,0.3-0.3,0.6-0.5,0.9c0.2-0.2,0.4-0.4,0.6-0.5c0.8-0.7,1.5-1.5,2.2-2.4c0.8-1,1.5-2.1,2.2-3.4  C1333,669.8,1334.6,657.8,1334.3,646.1z"/>
<path class="st11" d="M1320.5,680.2c-0.5-0.2-1-0.4-1.6-0.6c0-1.3,0.1-2.6,0.2-3.9c0.4-6.2,1.3-12.7,1.3-12.7l-20.6-5.5l-1.2-0.3  c-0.6,9.1-2.4,15.3-4,19.5c-2.1,0.1-3.5,0.2-3.5,0.2c-0.3,1.2,0,3.2,1.1,5.3c-0.2,0.4-0.3,0.7-0.3,1c-1.3,5.8,13.2,13.9,20,14.2  c3.9,0.2,6-1.4,7.1-3.4C1327.2,691.8,1326.6,682.7,1320.5,680.2z"/>
<path class="st27" d="M1320.4,662.9c0,0-0.9,6.5-1.3,12.7c-11.7-1.1-17.1-12.2-19.3-18.3L1320.4,662.9z"/>
<path class="st13" d="M1297.8,654.9c0,0-5.5-10.1-6.4-18.5c-0.7-6,3.8-27.7,25.6-23.1c0,0,6.4,1.1,12.1,5.5c4.6,3.5,11,11,2,29.6  l-2.4,6.3L1297.8,654.9z"/>
<path class="st11" d="M1324,669c0,0-27.7-1.4-26.6-18.6c1.1-17.2-1.7-29,16-28.9c17.7,0.2,20.7,7,21.7,12.8  C1336.2,640.2,1331.2,668.9,1324,669z"/>
<path class="st13" d="M1326.1,621.9c0,0-8.9,19.7-20.7,21.9c-11.8,2.2-16.7-1.2-16.7-1.2s9.4-6.5,12.1-18.7  C1300.7,623.9,1321,611.9,1326.1,621.9z"/>
<path class="st13" d="M1324.1,623.5c0,0,5.4,4.9,6.4,9.4c1.1,4.5,1.1,13.6,3.8,13.4c0,0,6.6-13.4,0.7-21.6  C1328.8,616,1324.1,623.5,1324.1,623.5z"/>
<path class="st10" d="M1351.7,792.5c-2.2,2.7-9.2,3.5-16.7,4.7c-5.9,1-12.1,2.2-16.5,4.8c-10,5.9-42.6,25.7-52.1,24.8  c-3.7-0.3-3-7.4-0.8-16.8c3.5-14.8,10.9-35.4,10.9-44.4c0-4.9,1.6-16.4,3.8-29.7c0.2-1.1,0.4-2.1,0.5-3.2c4.3-25.7,10.2-56,10.2-56  s6.6,14.5,19.6,14.5c12.9,0,9.9-11,9.9-11s11.8,1.4,14.6,4.4c2.8,3,9.9,16,11.3,19.5c0,0,0.3,4.5-10.9,6.6c0,0,2.7,12.2,3,20.4  c0.2,6-4.1,24.8-5.4,36.6c-0.4,4.1-0.5,7.4,0.2,8.9c0.9,1.9,3.7,3.8,6.8,5.6C1346.5,785.8,1354.3,789.3,1351.7,792.5z"/>
<path class="st8" d="M1340.2,782.2c7.2,12.2-19.4,15.9-23.8,18.4c-10,5.9-40.5,27.1-50.1,26.2c-3.7-0.3-3-7.4-0.8-16.8  c3.5-14.8,10.9-35.4,10.9-44.4c0-4.9,1.6-16.4,3.8-29.7l11.5-11c0,0,12.3,31.9,24.1,37.1c6.2,2.7,12.6,4.5,17.3,5.6  c-0.4,4.1-0.5,7.4,0.2,8.9C1334.2,778.4,1337,780.3,1340.2,782.2z"/>
<g>
	<rect x="1342.7" y="791" class="st13" width="36.2" height="4.3"/>
	<path class="st13" d="M1371.2,794.7c0.4-1.4,33.3-53.1,33.3-53.1h73.2l-36.7,51.7L1371.2,794.7z"/>
	<path class="st28" d="M1374.3,795.3c0.4-1.4,33.4-53.7,33.4-53.7h70.1l-35,53.7H1374.3z"/>
	<path class="st5" d="M1432.2,770.3c-0.7,2.1-3,3.8-5.1,3.8s-3.2-1.7-2.5-3.8c0.7-2.1,3-3.8,5.1-3.8   C1431.9,766.5,1433,768.2,1432.2,770.3z"/>
</g>
<path class="st11" d="M1362.6,777.6c-1.5-0.6-13.2,1.5-16.5,2.1c-10.6-2.1-45.4-9-47.1-11.2c-2-2.6-6.4-80.9-11.4-82.2  c0,0-9.8-6-19.3,5.4c-9.5,11.3,6.8,92.3,20.9,96.5c15.7,4.6,60.9-0.7,60.9-0.7v0c3.7,1.3,10.2,2,13.7,3.1c4.6,1.5,8.6,0.3,9.6-1.5  C1374.2,787.3,1364.3,778.4,1362.6,777.6z"/>
<path class="st10" d="M1291.1,676.8c0,0-20.2,1.8-26.1,8.5c-5.9,6.6-7.6,24.6-7.6,24.6s17.8,14.4,39.2,8.8L1291.1,676.8z"/>
<path class="st12" d="M1370.6,459.6c0,0-21.4,94.5-120,127.9c0,0,0.9,145.6,12.1,183.9c11.1,38.3,13.9,64.3,13.9,64.3h-26v-376  H1370.6z"/>
<path class="st3" d="M1201.5,864.1v1H1579v-1c0-15.7-12.7-28.5-28.5-28.5h-6.3V544.8v-16.1v-83.4h-308v83.4v16.1v290.9h-6.3  C1214.2,835.7,1201.5,848.4,1201.5,864.1z M1529.9,528.6h-279.3v-69h279.3V528.6z M1529.9,835.7h-279.3V544.8h279.3V835.7z"/>
<g>
	<path class="st29" d="M1482.4,807.3c0,0,9.9,4,17-6.1C1499.4,801.2,1488,799.3,1482.4,807.3z"/>
	<path class="st29" d="M1481.7,803.1c0,0-0.7-3.5-4.9-3.7C1476.9,799.5,1478.4,803.1,1481.7,803.1z"/>
	<path class="st29" d="M1483.8,782.4c0,0,4.8,0.5,6.6-4.8C1490.4,777.6,1485.2,778.2,1483.8,782.4z"/>
	<g>
		<path class="st29" d="M1495.2,712.7c-9.7-2.1-9.9-10-9.9-10C1496.8,706.3,1495.2,712.7,1495.2,712.7z"/>
		<path class="st29" d="M1495.9,710.9c0,0,6.1,2.5,10.4-3.7C1506.3,707.2,1499.3,706,1495.9,710.9z"/>
		<g>
			<path class="st29" d="M1482.6,830.6l-1.3,1.4c-0.2,0.2-0.6,0.1-0.6-0.2c0.1-40.9,5.3-77.1,9.6-98.6c4.8-23.4,9.6-37.2,9.6-37.3     l0,0c0,0.1-4.4,14.2-9.1,37.5c-4.4,21.4-9.4,49.5-8.1,96.6C1482.8,830.2,1482.7,830.4,1482.6,830.6z"/>
		</g>
		<path class="st8" d="M1500,690.4c-1.5,1.2-7.5,6.5-1.7,10.6c0,0,4.4,1.4,5.9-2c1.1-2.6,1.4-5.5,1.5-6.7c0-0.3-0.2-0.6-0.5-0.6    c-0.3,0-0.8-0.1-1.2-0.3c-0.5-0.2-0.8-1-1.6-1.2c-0.5-0.1-0.9-0.2-1.5-0.2C1500.5,690,1500.2,690.2,1500,690.4z"/>
		<path class="st29" d="M1496.7,699.5c0,0,1.8,1.4,1.1,3.7l0,0.8c0,0,0.5-2.1,2.6-2.7C1500.4,701.3,1498.4,701.5,1496.7,699.5z"/>
		<path class="st30" d="M1495.2,712.7c-9.7-2.1-9.9-10-9.9-10S1493,706.9,1495.2,712.7z"/>
	</g>
	<g>
		<path class="st29" d="M1485.9,707.3c0,0-6.1,2.3-10.3-3.9C1475.6,703.4,1482.6,702.3,1485.9,707.3z"/>
		<g>
			<path class="st29" d="M1496.8,827.2l1.2,1.5c0.2,0.2,0.5,0.1,0.6-0.2c0.7-40.8-3.7-77.2-7.6-98.7c-4.3-23.5-8.8-37.4-8.9-37.5     l0,0c0,0.1,4.1,14.3,8.4,37.7c3.9,21.5,8.4,49.7,6.2,96.8C1496.6,826.8,1496.7,827,1496.8,827.2z"/>
		</g>
		<path class="st8" d="M1482.3,686.7c1.5,1.3,7.3,6.7,1.5,10.7c0,0-4.4,1.3-5.8-2.1c-1.1-2.6-1.3-5.5-1.4-6.7c0-0.3,0.2-0.6,0.5-0.6    c0.3,0,0.8-0.1,1.3-0.3c0.5-0.2,0.8-1,1.6-1.2c0.5-0.1,0.9-0.2,1.5-0.1C1481.7,686.3,1482,686.5,1482.3,686.7z"/>
		<path class="st29" d="M1485.4,695.9c0,0-1.8,1.4-1.2,3.6l0,0.8c0,0-0.4-2.1-2.6-2.8C1481.6,697.6,1483.6,697.8,1485.4,695.9z"/>
	</g>
	<g>
		<path class="st29" d="M1488.5,700.1c0,0,6.4,1.1,9.3-5.9C1497.8,694.3,1490.7,694.6,1488.5,700.1z"/>
		<g>
			<path class="st29" d="M1501.6,819.8l-0.9,1.7c-0.1,0.3-0.5,0.2-0.6-0.1c-8.8-39.9-11.7-76.4-12.1-98.3     c-0.5-23.8,1.2-38.4,1.3-38.5l0,0c0,0.1-1.2,14.8-0.7,38.6c0.4,21.9,1.7,50.3,13.2,96.1C1501.8,819.4,1501.7,819.6,1501.6,819.8z     "/>
		</g>
		<path class="st8" d="M1488,679.2c-1.2,1.6-5.9,8,0.6,10.8c0,0,4.6,0.4,5.3-3.2c0.5-2.8,0.2-5.7,0-6.9c0-0.3-0.3-0.5-0.7-0.5    c-0.3,0-0.8,0.1-1.3,0c-0.6-0.1-1-0.8-1.8-0.8c-0.5,0-1,0-1.5,0.2C1488.4,678.8,1488.2,678.9,1488,679.2z"/>
		<path class="st29" d="M1486.8,688.8c0,0,2,1,1.9,3.3l0.2,0.8c0,0,0-2.1,2-3.2C1490.8,689.7,1488.9,690.4,1486.8,688.8z"/>
	</g>
	<path class="st29" d="M1493.8,693c0,0,0-5.1,4.4-6.7C1498.2,686.3,1499.2,690.5,1493.8,693z"/>
	<path class="st31" d="M1483.5,684.8c0,0,0.1-3.9-3.5-5C1480,679.8,1479.1,683.4,1483.5,684.8z"/>
	<path class="st31" d="M1495.3,708.2c0.1,0.1,1.9-3.8-1.7-6.9C1493.6,701.3,1492.1,705.4,1495.3,708.2z"/>
	<path class="st29" d="M1497.8,707.9c-0.1,0,0-1.9,1.8-2.2C1499.6,705.7,1499.9,707.3,1497.8,707.9z"/>
	<path class="st29" d="M1479.4,701.3c0,0-1.6-3.2-6.5-2.7C1472.8,698.6,1473.6,702.1,1479.4,701.3z"/>
</g>
<path class="st8" d="M1507,835.4h-32c-2.1,0-3.8-1.9-3.5-4l14.9-102.6c0.1-1,1-1.7,1.9-1.7h4.8c1,0,1.9,0.8,2.1,1.8l15.2,102.6  C1510.7,833.5,1509,835.4,1507,835.4z"/>
<g>
	<path class="st32" d="M1482.1,832.3l7.9-105.2c-0.9,0.1-1.5,0.8-1.7,1.6l-14.9,102.6c-0.3,2.1,1.3,4,3.5,4h6.4   C1482.5,834.6,1482,833.5,1482.1,832.3z"/>
</g>
<g>
	<path class="st1" d="M2356.5,1068.7h-6.7l0.1-0.5l2-17.9c0.1-0.6,0.6-1,1.1-1c0.1,0,0.1,0,0.2,0c0.4,0,0.7,0.2,1,0.5   c0.3,0.3,0.5,0.7,0.6,1.2L2356.5,1068.7z"/>
	<path class="st1" d="M2350.4,1064.7l-0.2,0l1.7-14.4c0.1-0.6,0.6-1,1.1-1c0.1,0,0.1,0,0.2,0c0.1,0.1,0.1,0.1,0.2,0.2   c0.3,0.3,0.5,0.7,0.5,1.2l0.1,10.3C2353.9,1063,2352.4,1064.6,2350.4,1064.7z"/>
	<rect x="2347.8" y="1148.5" class="st1" width="13" height="572"/>
	<rect x="2347.8" y="1148.5" class="st1" width="6" height="572"/>
	<rect x="2333.6" y="1629.2" class="st1" width="41.3" height="151.3"/>
	<rect x="2333.6" y="1629.2" class="st1" width="24.6" height="151.3"/>
	<path class="st1" d="M2376.8,1077.4c0,7.1-10.6,12.8-23.7,12.8c-1,0-2,0-2.9-0.1c-11.7-0.8-20.8-6.2-20.8-12.7s9.1-11.9,20.8-12.7   c1-0.1,1.9-0.1,2.9-0.1C2366.2,1064.6,2376.8,1070.3,2376.8,1077.4z"/>
	<path class="st1" d="M2364.5,1077.4c0,5.7-5.9,10.6-14.4,12.7c-11.7-0.8-20.8-6.2-20.8-12.7s9.1-11.9,20.8-12.7   C2358.6,1066.8,2364.5,1071.7,2364.5,1077.4z"/>
	<polygon class="st1" points="2374.8,1159.8 2333.6,1159.8 2319,1089.7 2387.2,1089.7  "/>
	<rect x="2315.4" y="1084.4" class="st1" width="75.5" height="6.7"/>
	<rect x="2315.4" y="1084.4" class="st1" width="47.4" height="6.7"/>
	<path class="st1" d="M2340.4,1629.2h26.4l-3.9-11.7c-0.3-1-1.3-1.7-2.4-1.7h-12.4c-1.3,0-2.5,0.8-3.1,2L2340.4,1629.2z"/>
	<polygon class="st1" points="2323.9,1093.1 2382.1,1093.1 2370.7,1156.1 2337.3,1156.1  "/>
	<path class="st1" d="M2331,1078.1c0,0,4.4-9.7,13.2-9.4c0,0-5.6,5-5.1,9.4C2339.6,1082.6,2331,1078.1,2331,1078.1z"/>
	<polygon class="st1" points="2386,1084.4 2320.2,1084.4 2325.6,1076.8 2380.9,1076.8  "/>
	<polygon class="st1" points="2369.8,1084.4 2320.2,1084.4 2325.6,1076.8 2364.7,1076.8  "/>
	<polygon class="st1" points="2327.8,1095.3 2341.1,1095.3 2345,1154.1 2341.1,1154.1  "/>
</g>
<rect x="1017.5" y="204.9" transform="matrix(0.9994 -3.600706e-02 3.600706e-02 0.9994 -7.8077 58.4211)" class="st3" width="1201" height="82.2"/>
<rect x="1213.7" y="354" class="st3" width="353.9" height="75.7"/>
<rect x="1680.7" y="354" class="st3" width="353.9" height="75.7"/>
<rect x="1213.7" y="1019.3" class="st3" width="353.9" height="75.7"/>
<rect x="1680.7" y="1019.3" class="st3" width="353.9" height="75.7"/>
</svg>