<svg xmlns="http://www.w3.org/2000/svg" xmlns:xlink="http://www.w3.org/1999/xlink" version="1.1" x="0px" y="0px" viewBox="0 0 1100 800" enable-background="new 0 0 1100 800" xml:space="preserve">
<g id="background">
</g>
<g id="object">
	<path fill="#1E0F00" d="M721,365c0,0,0-25-3-38s3-40,33-37s37,67,35,82s-20,42-41,28S725,393,721,365z"/>
	<path opacity="0.12" d="M864.394,713.116c46.713,0.406,93.387,0.57,139.973,0.35c5.019-0.025,10.185-0.015,14.814,2.4   c12.797,6.678,8.646,20.645-3.445,25.117c-25.216,9.326-59.812,8.372-86.54,10.612c-32.598,2.732-65.29,4.225-97.988,5.052   c-64.493,1.631-129.012,0.621-193.515,1.264c-74.722,0.745-149.45,1.234-224.175,0.666c-72.757-0.553-150.084,4.19-221.941-8.169   c-18-3.096-35.795-7.471-53.94-9.699c-17.148-2.105-34.441-1.135-51.586-3.394c-9.358-1.233-12.487-9.769-4.364-15.609   c9.153-6.574,25.196-2.882,35.765-3.021c18.114-0.238,36.285-1.57,54.385-2.353c80.276-3.472,160.049-11.789,240.292-10.398   c83.248,1.444,166.496,2.888,249.744,4.332C729.361,711.436,796.917,712.529,864.394,713.116z"/>
	<g>
		<g>
			<g>
				<g id="XMLID_69_">
					<path id="XMLID_70_" fill="#E9C4AF" d="M535.572,615.378l0.651,39.571c-0.266,10.979,0.723,21.924,1.391,32.867       c0.62,10.164-1.428,20.641,3.394,30.061c1.512,2.954,4.73,5.011,7.178,1.599c1.887-2.629,1.018-7.18,1.484-10.232       c3.503-22.939,10.022-45.31,13.275-68.293C566.354,616.877,557.04,617.512,535.572,615.378z"/>
				</g>
				<polygon fill="#1E0F00" points="537.82,711.112 535.276,717.713 547.795,728.733 559.264,729.205 562.972,723.154       547.549,709.743     "/>
			</g>
			<g>
				<g id="XMLID_67_">
					<path id="XMLID_68_" fill="#E9C4AF" d="M507.54,615.763c0,0-7.218,38.914-7.218,38.914c-2.502,17.407-8.189,34.36-10.69,51.768       c-0.575,4.003-0.285,8.381-1.958,12.157c-1.636,3.694-4.84,3.84-7.667,1.334c-3.787-3.357-2.04-9.356-1.97-13.942       c0.463-30.549-1.94-60.666-2.518-91.266c-0.008-0.401,0.01-0.861,0.32-1.116c0.252-0.207,0.612-0.203,0.937-0.181       C479.747,613.63,507.384,616.604,507.54,615.763z"/>
				</g>
				<polygon fill="#1E0F00" points="477.947,712.737 473.979,718.594 483.688,732.154 494.754,735.203 499.732,730.145       487.734,713.598     "/>
			</g>
			<polygon fill="#1E0F00" points="576.356,640.556 570.957,583.983 568.354,547.225 559.6,517.203 512.334,509.867      453.897,519.884 451.087,531.237 462.334,636.331 518.699,640.556 517.935,575.146 526.629,615.689 526.26,640.556    "/>
		</g>
		<path fill="#FFBE55" d="M466.302,406.67c-0.079,1.91-0.132,3.82-0.166,5.725c-0.684,38.805,1.455,78.105,1.701,117.232    c20.039-3.137,40.298-4.865,60.579-5.172c4.694-0.071,26.037,3.225,29.008,0.422c4.033-3.803-0.402-3.087-0.107-8.042    c0.382-6.412-2.699-11.662-1.535-19.26c1.368-8.929,4.088-17.761,5.655-26.689c3.142-17.901,5.034-36.022,5.648-54.187    c0.544-16.111-0.04-32.82-6.968-47.376c-17.086-35.895-72.17-35.249-87.285,2.23C468.355,382.654,466.801,394.672,466.302,406.67z    "/>
		<g>
			<path fill="#1E0F00" d="M517,324c-9.839-4.919-25,7-32-12s1-29,11-37s29-4,33,1c0,0,6-4,11,3S537,334,517,324z"/>
			<g>
				<path fill="#E9C4AF" d="M503.289,346.698c0.027,1.943-0.371,3.959,1.343,5.466c0.824,0.724,1.938,1.015,3.022,1.186      c2.801,0.444,5.704,0.238,8.414-0.597c1.115-0.343,2.226-0.81,3.068-1.618c0.994-0.954,1.045-1.86,1.092-3.11      c0.056-1.465,0.352-2.954,0.544-4.439c0.419-3.249,0.608-6.523,0.702-9.796c4.812-0.826,10.471-2.381,12.117-7.422      c0.518-1.588,0.536-3.315,0.549-5.004c0.051-6.983,0.102-13.967,0.153-20.95c0.018-2.415,0.023-4.904-0.804-7.146      c-1.451-3.933-5.139-6.277-8.755-7.752c-9.229-3.764-19.985-3.614-28.503,1.74c-2.267,1.425-4.406,3.258-5.712,5.746      c-2.013,3.836-1.76,8.572-1.447,12.999c0.289,4.086,0.577,8.172,0.866,12.258c0.332,4.699,1.038,10.109,4.687,12.591      c1.938,1.318,4.441,1.56,6.111,3.265c2.915,2.977,1.526,7.423,2.387,11.031C503.244,345.649,503.282,346.171,503.289,346.698z"/>
			</g>
			<path fill="#1E0F00" d="M486,303c0,0,2-11,10-15c0,0-4,5-4,7c0,0,6-7,13-9c0,0-5,5-6,8c0,0,10-6,16-8s9,0,9,0s5,0,7,5s2,12,2,12     s3-2,2-9s-13-15-13-15l-14-1l-8,2l-12,4L486,303"/>
			<path fill="#1E0F00" d="M489,313c0,0-4-19,16-30s-8.163-1.946-8.163-1.946l-9.217,6.557L485,301L489,313z"/>
		</g>
	</g>
	<g>
		<g>
			<g>
				<g>
					<g>
						<g>
							
								<ellipse transform="matrix(0.7071 -0.7071 0.7071 0.7071 29.0817 408.4138)" fill="#FFBE55" cx="507.54" cy="169.102" rx="109.272" ry="109.272"/>
						</g>
					</g>
					<g opacity="0.08">
						<g>
							<path d="M551.17,68.788c13.141,15.308,22.201,34.432,25.217,55.893c8.401,59.762-33.236,115.018-92.997,123.419         c-20.755,2.918-40.965-0.205-58.859-8.022c23.452,27.32,59.901,42.488,98.202,37.104         c59.762-8.401,101.398-63.657,92.997-123.419C610.247,114.757,584.8,83.478,551.17,68.788z"/>
						</g>
					</g>
					<g opacity="0.2">
						<g>
							<path fill="#FFBE55" d="M415.644,193.662c-7.8-55.485,30.857-106.787,86.342-114.587c32.432-4.559,63.43,6.759,85.151,28.028         c-21.582-27.678-56.947-43.383-94.199-38.146c-55.485,7.8-94.142,59.102-86.342,114.587         c3.241,23.053,13.996,43.196,29.436,58.314C425.468,228.31,418.207,211.895,415.644,193.662z"/>
						</g>
					</g>
				</g>
				<g>
					<g>
						<path fill="#1E0F00" d="M464.661,197.711c5.853,22.73,27.968,37.929,51.762,34.584c23.794-3.345,40.861-24.051,40.221-47.515        L464.661,197.711z"/>
					</g>
					<g>
						<path fill="#2895F5" d="M482.877,224.119c9.39,6.667,21.24,9.906,33.546,8.176c11.775-1.655,21.898-7.567,29.047-15.956        l-0.565-0.935C511.903,204.686,483.268,223.856,482.877,224.119z"/>
					</g>
				</g>
			</g>
			<g>
				<g>
					<path fill="#1E0F00" d="M531.913,147.486c1.987-8.085,8.599-14.058,16.842-15.217c8.068-1.134,15.99,2.649,20.182,9.637       c0.802,1.339,0.555,3.011-0.601,4.066c-1.157,1.057-2.847,1.152-4.109,0.231c-6.821-4.978-16.97-8.316-26.579,4.058       c-0.542,0.699-1.306,1.125-2.12,1.239c-0.621,0.087-1.271-0.007-1.875-0.3C532.256,150.525,531.541,148.997,531.913,147.486z"/>
				</g>
				<g>
					<path fill="#1E0F00" d="M438.946,160.554c1.987-8.085,8.598-14.058,16.841-15.217c8.068-1.134,15.99,2.649,20.181,9.636       c0.804,1.337,0.558,3.009-0.598,4.066c-1.156,1.059-2.847,1.154-4.111,0.233c-6.822-4.978-16.969-8.316-26.578,4.058       c-0.542,0.698-1.306,1.124-2.12,1.239c-0.621,0.087-1.271-0.007-1.875-0.3C439.289,163.593,438.574,162.065,438.946,160.554z"/>
				</g>
			</g>
		</g>
		<g>
			
				<ellipse transform="matrix(0.9534 -0.3016 0.3016 0.9534 -37.7925 144.8425)" fill="#2895F5" cx="450.124" cy="194.799" rx="19.078" ry="19.078"/>
		</g>
		<g>
			
				<ellipse transform="matrix(0.9934 -0.1146 0.1146 0.9934 -16.2492 67.8236)" fill="#2895F5" cx="581.911" cy="175.273" rx="19.078" ry="19.078"/>
		</g>
	</g>
	<g>
		<path fill="#E9C4AF" d="M434.083,232.731c0.162,0.266,0.327,0.543,0.403,0.834c0.713,2.717-0.542,4.562-0.6,7.361    c-0.026,1.249,2.635,3.048,0.417,4.42c-0.818,0.507-3.001,1.465-4.757,2.528c-2.56,1.55-4.868,5.063-6.186,8.19    c-2.36,5.638-4.021,11.527-5.227,17.513c-1.072,5.317-3.613,13.49-2.656,18.864c0.866,4.864,7.341,10.965,10.247,15.106    c3.659,5.215,7.242,10.483,10.746,15.803c2.467,3.746,4.939,7.615,5.95,11.985c0.612,2.646,0.591,5.656-1.065,7.809    c-1.07,1.391-2.678,2.242-4.235,3.051c-2.751,1.43-5.72,2.902-8.798,2.525c-3.79-0.464-6.641-3.569-9.046-6.534    c-5.421-6.686-10.443-13.755-14.396-21.417c-2.794-5.416-8.055-14.99-6.82-21.163c2.818-14.079,6.862-27.83,11.206-41.57    c1.194-3.775,4.221-6.444,5.293-9.945c0.684-2.234-0.386-4.48-0.207-6.731c0.177-2.227,0.978-5.106,1.963-7.109    c1.943-3.95,6.42-4.748,10.263-5.83c0.957-0.27,1.602-0.454,2.513-0.258c1.481,0.319,2.436,1.437,3.423,2.512    C433.1,231.31,433.636,231.997,434.083,232.731z"/>
	</g>
	<g>
		<path fill="#E9C4AF" d="M587.952,227.814c-0.162,0.266-0.327,0.543-0.403,0.835c-0.713,2.717,0.542,4.561,0.6,7.361    c0.026,1.249-2.635,3.048-0.417,4.42c0.818,0.507,3.001,1.465,4.757,2.528c2.56,1.55,4.868,5.063,6.186,8.19    c2.36,5.638,4.021,11.527,5.227,17.513c1.072,5.317,3.613,13.49,2.656,18.864c-0.866,4.864-7.341,10.965-10.248,15.106    c-3.659,5.215-7.242,10.483-10.746,15.803c-2.467,3.746-4.939,7.615-5.95,11.985c-0.612,2.646-0.591,5.656,1.065,7.809    c1.07,1.391,2.678,2.242,4.235,3.051c2.751,1.43,5.721,2.902,8.798,2.526c3.79-0.464,6.641-3.569,9.045-6.534    c5.421-6.686,10.443-13.755,14.396-21.417c2.795-5.416,8.055-14.99,6.82-21.163c-2.817-14.079-6.862-27.83-11.206-41.57    c-1.194-3.776-4.221-6.444-5.293-9.945c-0.684-2.234,0.386-4.48,0.207-6.731c-0.177-2.227-0.978-5.106-1.963-7.109    c-1.943-3.95-6.42-4.748-10.263-5.83c-0.957-0.27-1.602-0.454-2.513-0.258c-1.481,0.319-2.436,1.437-3.423,2.512    C588.935,226.394,588.399,227.08,587.952,227.814z"/>
	</g>
	<g>
		<path fill="#2895F5" d="M505.673,347.267l-0.394-4.905c-5.665,1.325-12.682,1.96-18.776,3.519    c-7.814-2.735-16.567-2.905-23.739-7.048c-5.051-2.918-8.844-7.547-12.521-12.075c-4.678-5.761-6.808-11.804-13.656-9.524    c-5.113,1.702-11.886,10.811-15.961,14.5c-1.978,1.791-3.956,3.581-5.935,5.371c-0.462,0.419-0.954,0.891-1.036,1.509    c-0.06,0.451,0.112,0.896,0.284,1.317c5.396,12.843,13.421,25.764,24.168,34.793c6.703,5.631,11.842,11.973,16.726,18.818    c-2.458,17.64-0.021,36.472-0.004,54.012c0.007,7.233-4.881,84.743-1.167,84.931c12.876,0.65,26.395-1.542,39.235-2.7    c5.871-0.529,12.76,0.759,14.061-5.785c0.933-4.687,0.292-10.273,0.427-15.041c0.487-17.156,0.974-34.311,1.461-51.467    c0.128-4.511,1.712-71.345,2.025-71.345l-14.961-27.265L505.673,347.267z"/>
		<path fill="#2895F5" d="M608.381,333.697c-0.082-0.618-0.574-1.09-1.036-1.509c-1.978-1.791-3.956-3.581-5.935-5.372    c-4.075-3.689-10.848-12.797-15.961-14.499c-6.849-2.28-8.978,3.763-13.656,9.524c-3.677,4.528-7.47,9.157-12.521,12.075    c-7.688,4.441-17.193,4.314-25.41,7.677c-0.479,0.196-0.954,0.425-1.411,0.678c-1.517-0.312-3.143-0.663-4.914-1.097    c-3.433-0.842-10.825-3.517-8.969,3.276c1.063,3.888,7.266,8.745,9.89,11.867l-14.961,27.265    c0.782,27.543,1.564,55.085,2.345,82.628c0.36,12.693,0.721,25.386,1.081,38.08c0.125,4.407,0.234,8.815,0.375,13.222    c0.063,1.978-0.483,5.308,0.645,6.923c2.45,3.504,11.403,2.412,15.309,2.719c6.091,0.479,12.271,0.977,18.007,3.08    c3.82,1.4,7.44,3.509,11.468,4.074c0.905,0.127,1.917,0.145,2.628-0.429c0.794-0.643,0.93-1.782,1.005-2.801    c1.4-18.909,1.429-38.402,2.478-57.513c0.858-15.64,3.047-32.167,1.69-47.827c-0.023-0.261-0.048-0.523-0.096-0.781    c-2.596-14.091-0.896-26.381-1.753-38.375c4.452-6.066,9.216-11.707,15.247-16.774c10.747-9.029,18.772-21.95,24.169-34.793    C608.269,334.593,608.441,334.148,608.381,333.697z"/>
	</g>
	<g>
		<g>
			<path fill="#E9C4AF" d="M798.15,308.779c0.329,0.015,0.668,0.034,0.969,0.14c2.8,0.98,3.673,3.167,6.09,4.87     c1.078,0.76,4.224-0.508,4.116,2.244c-0.04,1.015-0.489,3.492-0.595,5.656c-0.154,3.156,1.558,7.25,3.518,10.249     c7.698,11.784,18.39,21.147,29.257,30.076c0.62,0.509,1.274,1.031,2.058,1.197c1.404,0.298,2.752-0.605,3.921-1.438     c5.422-3.864,11.204-7.223,17.246-10.019c5.391-2.495,11.149-4.571,17.089-4.498c5.94,0.073,12.124,2.643,15.243,7.698     c2.336,3.786,2.689,8.724,0.916,12.804c-4.397,10.118-20.514,9.927-29.821,11.597c-8.806,1.58-17.723,2.543-26.663,2.877     c-1.104,0.041-2.243,0.067-3.274-0.329c-1.099-0.422-1.964-1.28-2.792-2.117c-10.661-10.777-20.311-22.435-29.775-34.348     c-2.6-3.274-3.149-7.499-5.581-10.504c-1.552-1.918-4.149-2.307-6.014-3.792c-1.845-1.47-3.893-3.87-5.064-5.915     c-2.311-4.033-0.367-8.423,0.954-12.425c0.329-0.996,0.548-1.671,1.257-2.352c1.153-1.108,2.695-1.284,4.219-1.513     C796.326,308.801,797.244,308.736,798.15,308.779z"/>
		</g>
		<g>
			<path fill="#0E538D" d="M872.52,386.317c-9.664,1.454-19.579,1.994-28.551,1.274c-2.271-0.182-4.604-0.474-6.594-1.584     c-1.649-0.92-2.951-2.341-4.222-3.737c-7.399-8.127-14.799-16.255-22.198-24.382c-1.056-1.159-2.19-2.655-1.688-4.14     c0.303-0.896,1.13-1.493,1.91-2.03c3.57-2.456,7.141-4.912,10.711-7.367c0.648-0.446,1.358-0.91,2.143-0.878     c0.727,0.03,1.364,0.483,1.912,0.961c3.486,3.037,5.317,7.729,9.082,10.412c3.445,2.455,8.04,2.816,12.176,1.925     c17.334-3.731,32.921-17.812,47.973-26.603c7.969-4.654,16.261-9.416,25.446-10.315c19.611-1.92,31.776,20.99,17.412,35.455     c-12.191,12.276-27.893,21.156-44.372,26.241C887.115,383.567,879.891,385.208,872.52,386.317z"/>
		</g>
	</g>
	<g>
		<g>
			<g>
				<g>
					<g>
						<polygon fill="#ECCDAE" points="916.899,681.614 919.983,703.796 906.838,705.612 903.419,681.02       "/>
					</g>
				</g>
				<g>
					<g>
						<path fill="#1E0F00" d="M907.575,701.985l11.924,2.358l3.871,3.25l0.508,8.781l-30.657,6.263l0,0        c-3.09-3.482-2.032-8.86,2.145-10.903l1.379-0.674L907.575,701.985z"/>
					</g>
				</g>
			</g>
		</g>
		<g>
			<g>
				<g>
					<g>
						<g>
							<g>
								<path fill="#ECCDAE" d="M1012.114,594.021c5.552-1.837,10.948-5.474,16.537-6.776c0.284,4.352,0.703,8.69,1.065,13.035          c-6.756,3.176-13.726,5.695-21.096,7.028C1009.789,602.905,1011.293,598.503,1012.114,594.021z"/>
							</g>
						</g>
						<g>
							<g>
								<path fill="#1E0F00" d="M1030.103,600.036c-0.391-0.554-0.435-0.57-0.765-1.859c-0.818-3.195-2.958-12.048,0.06-14.762          c0.49-0.44,0.719-0.006,1.157,0.202c7.356,3.493,12.663,7.516,18.521,13.437c2.506,2.533,4.924,5.711,5.092,9.396          c0.074,1.616-0.593,2.87-1.205,4.153c-0.902,1.894-1.958,3.548-3.149,5.181c-0.435,0.597-0.796,1.262-1.647,1.205          c-1.704-0.114-2.528-2.069-2.858-3.676c-0.331-1.607-0.464-3.561-1.532-4.912c-0.479-0.606-1.182-0.979-1.761-1.312          C1037.716,604.618,1033.173,604.376,1030.103,600.036z"/>
							</g>
						</g>
					</g>
				</g>
				<g>
					<path fill="#1E0F00" d="M916.508,582.338c10.725,19.055,26.503,27.361,45.493,33.254c21.729,6.744,40.446,3.06,59.805-7.763       c0.334-6.461-0.287-12.883,0.194-18.948c-21.526,3.414-31.924,2.659-46.455-16.575c-21.001-27.798-0.147-68.721-5.902-102.301       c-0.662-3.86-1.714-7.703-3.677-11.092c-22.804-39.381-63.854-13.064-68.924,22.996       C892.505,514.177,900.512,553.918,916.508,582.338z"/>
				</g>
			</g>
		</g>
		<path fill="#1E0F00" d="M956.268,466.935c-1.459-11.99-4.361-23.36-7.701-31.891c-18.61,1.314-39.247,5.962-57.068,11.95    c-17.418,5.852-28.078,11.131-25.793,30.525c4.206,35.686-5.946,67.795-7.693,102.817c-1.015,20.353,7.247,37.415,16.241,55.027    c10.291,20.153,19.497,40.86,27.563,62.003c6.188-0.808,12.376-1.617,18.563-2.426c2.684-28.259-3.395-56.506-6.385-84.734    c-2.078-19.616-2.57-39.895,2.334-59.153c5.391-21.169,17.777-14.555,29.385-27.888    C956.999,510.202,958.788,487.644,956.268,466.935z"/>
	</g>
	<g>
		<path fill="#0E538D" d="M931.429,328.885c2.13,1.496,4.026,3.332,5.901,5.151c1.679,1.629,3.358,3.259,5.037,4.889    c5.816,5.646,8.964,14.261,11.693,21.695c14.362,39.121,21.424,93.391,15.266,135.265c-30.642,4.107-66.618-1.973-97.515-4.72    c-3.004-0.267-6.417-0.777-8.088-3.288c-1.013-1.522-1.13-3.449-1.216-5.275c-1.238-26.341,2.995-54.913,6.993-81.126    c1.687-11.061,3.89-22.054,6.87-32.843c3.155-11.421,6.737-23.761,14.96-32.676c8.798-9.539,26.253-14.867,38.138-8.304    C930.145,328.028,930.797,328.441,931.429,328.885z"/>
	</g>
	<g>
		<g>
			<g>
				<path fill="#FDDFD3" d="M928.334,334.578c0.387-3.608,0.775-7.217,1.162-10.826c0.73-0.392,1.422-0.821,2.06-1.272      c12.445-8.798,31.898-53.803-2.771-62.04c-31.479-7.478-27.851,35.17-20.951,52.699c1.181,3,2.703,5.815,4.874,8.216      c1.485,1.642,1.785,1.303,1.677,3.292c-0.105,1.925-1.911,4.184-2.25,6.225c-0.361,2.177-0.075,4.557,1.262,6.313      c0.819,1.076,1.978,1.851,3.201,2.427c1.945,0.915,4.175,1.366,6.265,0.867C925.349,339.887,928.057,337.163,928.334,334.578z"/>
			</g>
		</g>
		<g>
			<g>
				<g>
					<g>
						<path fill="#1A3151" d="M899.78,297.345c2.169,5.594,5.087,10.896,8.651,15.722c-0.674-10.507,0.104-21.105,2.304-31.401        c0.168-0.785,0.326-1.673-0.127-2.336c-0.423-0.619-1.233-0.82-1.973-0.944C895.423,276.175,895.999,287.595,899.78,297.345z"/>
					</g>
				</g>
			</g>
			<g>
				<g>
					<g>
						<g>
							<path fill="#1A3151" d="M934.889,311.571c2.238,2.853,6.797,1.842,9.957,0.063c12.979-7.309,20.045-23.764,16.409-38.209         c-3.043-12.087-18.855-20.513-21.253-5.248c-0.85,5.412,2.764,12.686,2.297,18.669         C941.631,295.395,938.052,303.709,934.889,311.571z"/>
						</g>
					</g>
				</g>
				<g>
					<g>
						<g>
							<path fill="#1A3151" d="M897.72,250.673c-1.462,0.659-2.948,1.351-4.515,2.051c-3.245,1.449-5.619,1.998-9.118,0.221         c-1.001-0.508-7.823-6.375-6.312-7.731c-10.017,8.99-0.865,20.993,3.456,29.59c2.912,5.795,3.848,14.126,9.949,17.715         c6.711,3.949,10.924-1.642,16.723-4.332c5.114-2.372,10.697-3.789,15.913-5.932c8.656-3.555,21.496-9.69,18.03-21.25         c-4.049-13.501-18.05-16.254-30.436-14.624C906.119,247.078,902.027,248.731,897.72,250.673z"/>
						</g>
					</g>
				</g>
			</g>
		</g>
	</g>
	<g>
		<g>
			<g>
				<path fill="#E9C4AF" d="M893.411,346.766c0.322-0.066,0.656-0.13,0.973-0.102c2.954,0.263,4.337,2.17,7.098,3.229      c1.231,0.473,3.97-1.527,4.54,1.167c0.21,0.994,0.382,3.506,0.81,5.63c0.624,3.098,3.287,6.647,5.922,9.074      c4.986,4.594,23.503,11.341,22.074,19.952c-3.357,20.231-30.152-11.823-33.143-14.064c-1.975-1.479-4.588-1.219-6.76-2.202      c-2.149-0.973-4.723-2.798-6.359-4.493c-3.229-3.344-2.42-8.076-2.12-12.28c0.075-1.047,0.122-1.754,0.642-2.589      c0.846-1.357,2.299-1.906,3.72-2.501C891.648,347.234,892.521,346.947,893.411,346.766z"/>
			</g>
		</g>
		<path fill="#0E538D" d="M973.599,410.555c-2.601,8.348-18.911,2.899-24.625,0.396c-12.002-5.257-23.345-11.63-33.707-19.689    c-0.645-0.502-1.334-1.09-1.445-1.899c-0.11-0.799,0.38-1.544,0.848-2.202c2.917-4.104,5.833-8.208,8.75-12.312    c0.628-0.883,1.299-1.804,2.282-2.26c3.708-1.721,8.795,3.143,12.568,3.531c1.049-9.259-4.502-17.115-7.236-25.532    c-3.745-11.53,9.433-14.608,16.556-8.688c8.717,7.245,14.587,18.046,18.332,28.563c4.059,11.4,5.964,23.435,7.848,35.389    C974.07,407.762,973.986,409.312,973.599,410.555z"/>
	</g>
	<g>
		<path fill="#E9C4AF" d="M643.494,307.765c-1.654-1.681-3.251-3.423-4.82-4.875c-0.265-2.26-0.53-4.521-0.795-6.781    c-0.041-0.35-0.077-0.729,0.098-1.035c0.153-0.268,0.439-0.429,0.71-0.576c1.204-0.652,2.407-1.304,3.61-1.956    c0.24-0.13,0.489-0.263,0.761-0.279c0.593-0.035,1.06,0.475,1.43,0.94c1.279,1.609,5.835,7.013,5.956,2.634    c0.019-0.671,0.62-1.211,1.269-1.384c0.649-0.173,1.335-0.062,1.997,0.049c0.477,0.08,1.037,0.228,1.196,0.684    c0.072,0.206,0.041,0.432,0.009,0.648c-0.343,2.316-0.804,4.261-0.335,6.608c0.457,2.581,0.915,5.162,1.372,7.743    c0.023,0.132-3.388,1.868-3.698,2.06c-1.799,1.113-1.057,1.604-3.081,0.355C647.188,311.374,645.307,309.607,643.494,307.765z"/>
		<polygon fill="#2895F5" points="728.854,353.587 684.203,359.17 661.635,309.449 649.858,316.439 661.942,389.623     677.557,406.001 708.271,403.471   "/>
	</g>
	<g>
		<g>
			<g>
				<polygon fill="#E9C4AF" points="762.069,507.543 745.688,613.029 751.504,689.234 739.575,692.959 728.895,622.543       706.105,493.867     "/>
			</g>
			<polygon fill="#1E0F00" points="739.599,695.107 738.283,703.002 741.274,718.007 751.125,717.172 752.979,694.946      751.529,691.383    "/>
		</g>
		<g>
			<polygon fill="#E9C4AF" points="665.542,504.406 670.809,593.875 693.084,718.952 705.157,718.807 699.79,602.838      715.45,495.927    "/>
			<polygon fill="#1E0F00" points="693.283,716.813 677.852,726.939 679.778,734.505 708.029,728.476 705.732,717.547    "/>
		</g>
		<polygon fill="#1E0F00" points="662.881,517.816 663.385,621.667 677.581,691.689 709.924,687.003 708.983,606.077     715.697,517.181 712.371,503.719 665.59,508.472   "/>
		<polygon fill="#1E0F00" points="720.27,607.605 730.282,681.259 758.409,677.34 751.959,607.224 762.395,517.567 756.269,493.288     709.009,500.409   "/>
		<path fill="#2895F5" d="M775.956,387.259c-3.107-10.417-8.583-28.169-17.766-33.184c-0.192-0.105-0.385-0.208-0.58-0.311    c-1.822-0.957-3.776-1.813-5.819-2.549c-3.663-2.305-8.931-3.298-14.134-2.953c-4.776-0.315-9.522,0.064-13.803,1.325    c-2.012,0.593-3.911,1.581-5.797,2.564c-5.504,2.868-9.731,4.104-13.151,9.739c-2.97,4.893-4.75,10.604-7.002,15.884    c-18.832,44.145-34.132,103.072-46.35,149.725c5.771-0.554,11.558-1.497,17.322-2.414c26.507,2.989,56.776,10.992,80.154,18.935    c7.007,4.166,13.906,8.555,20.749,13.013c-1.752-1.141,6.593-38.064,7.251-42.225c2.382-15.06,4.464-30.175,5.883-45.353    C785.549,441.268,783.977,414.149,775.956,387.259z"/>
		<g>
			<path fill="#E9C4AF" d="M764.754,314.923c-4.872-18.509-30.565-26.38-37.834-5.637c-2.185,6.233-3.667,12.896-2.802,19.455     c0.865,6.559,4.405,13.013,10.2,16.024c0.033,0.017,0.067,0.029,0.1,0.046c0.997,0.513-4.595,11.149-4.991,11.999     c-0.62,1.333-1.244,2.68-1.548,4.118c-0.676,3.196,0.287,6.497,1.422,9.56c1.038,2.802,2.229,5.547,3.566,8.219     c0.116,0.232,0.242,0.474,0.455,0.622c0.512,0.358,1.207,0.014,1.724-0.338c4.14-2.821,7.798-6.35,10.766-10.386     c0.679-0.923,1.329-1.886,1.705-2.968c0.428-1.233,0.48-2.563,0.481-3.869c0.003-3.639-3.085-12.621-1.251-15.47     c0.698-1.083,4.116-1.876,5.298-2.604c1.957-1.204,3.72-2.725,5.288-4.399C763.203,333.032,767.009,323.491,764.754,314.923z"/>
			<path fill="#1E0F00" d="M744.64,296.96c0,0-6.64,3.04,0.36,15.04s16,13,22,40s13,3,14,2s-8-59.08-35-57.04"/>
			<path fill="#1E0F00" d="M723,325c0,0,4-18,14-20s12-4,12-4s1-7-7-6s-13,6-16,12S723,325,723,325z"/>
		</g>
	</g>
	<g>
		<g>
			<path fill="#E9C4AF" d="M237.943,265.433c-0.166,0.242-0.336,0.494-0.423,0.764c-0.812,2.518,0.272,4.318,0.181,6.954     c-0.041,1.176-2.637,2.729-0.622,4.135c0.743,0.519,2.746,1.534,4.342,2.625c2.327,1.591,4.315,5.014,5.391,8.024     c4.23,11.823,5.125,24.47,5.618,37.007c0.028,0.715,0.046,1.461-0.258,2.108c-0.545,1.159-1.913,1.63-3.135,2.013     c-5.669,1.773-11.172,4.073-16.416,6.863c-4.679,2.489-9.257,5.463-12.406,9.726c-3.149,4.263-4.654,10.043-2.74,14.985     c1.433,3.701,4.753,6.612,8.609,7.551c9.563,2.326,18.112-9.235,24.314-14.953c5.868-5.409,11.358-11.229,16.413-17.406     c0.624-0.763,1.256-1.558,1.53-2.505c0.292-1.009,0.148-2.086,0-3.125c-1.917-13.387-5.006-26.529-8.376-39.677     c-0.926-3.613-3.634-6.28-4.461-9.628c-0.527-2.137,0.596-4.193,0.545-6.319c-0.051-2.104-0.654-4.853-1.476-6.788     c-1.622-3.816-5.791-4.799-9.348-6.017c-0.886-0.303-1.483-0.511-2.35-0.374c-1.41,0.223-2.365,1.224-3.35,2.184     C238.942,264.148,238.402,264.766,237.943,265.433z"/>
		</g>
		<g>
			<path fill="#2895F5" d="M246.598,353.563c-3.351-7.218-6.703-14.437-10.054-21.655c0.215,0.463-33.684,13.203-35.677,14.031     c-7.603,3.158-15.457,6.488-21.045,12.533c-11.933,12.908-2.199,33.902,15.824,31.484c19.566-2.626,39.775-12.943,53.74-26.828     c0.303-0.302,0.616-0.625,0.73-1.038c0.156-0.566-0.097-1.156-0.344-1.689C248.714,358.121,247.656,355.842,246.598,353.563z"/>
		</g>
	</g>
	<g>
		<path fill="#1E0F00" d="M75.286,560.756c-0.448,2.724-0.746,5.459-0.972,7.973c-0.388,4.312,0.298,9.231-0.792,13.433    c-0.432,1.66-1.017,3.273-1.27,4.985c-0.254,1.711-0.135,3.596,0.731,4.996c1.063,1.718,2.964,2.322,4.727,2.718    c1.632,0.366,3.319,0.651,4.945,0.248c3.28-0.814,5.699-4.345,6.699-8.146c1.197-4.548,0.594-9.028,0.429-13.633    c0-7.261-1.943-13.452-1.641-20.767c0.051-1.234,0.076-2.563-0.615-3.587c-0.729-1.08-2.121-1.555-3.424-1.519    c-2.596,0.073-5.102,0.798-6.145,3.274C76.7,553.718,75.867,557.228,75.286,560.756z"/>
	</g>
	<path fill="#E9C4AF" d="M82.069,555.005c-1.411,1.101-2.414,2.63-3.39,4.13c-0.659,1.013-1.326,2.339-0.66,3.348   c0.254,0.384,0.66,0.636,1.054,0.875c1.647,1,3.295,2,4.942,3c0.335,0.204,0.705,0.415,1.094,0.363   c0.321-0.043,0.589-0.259,0.836-0.468c1.59-1.346,3.103-2.784,4.528-4.303C96.907,555.091,87.843,550.502,82.069,555.005z"/>
	<path fill="#0E538D" d="M195.685,493.954c-0.42-1.594-1.785-2.727-3.211-3.696c-14.68-9.96-30.688-16.748-48.007-20.597   c-1.459-0.325-10.753,28.563-11.647,31.366c-3.471,10.88-6.426,21.918-8.958,33.052c-2.774,12.2-5.651,24.376-8.59,36.537   c-5.653-5.541-11.717-10.663-18.132-15.301c-1.104-0.799-2.296-1.611-3.656-1.696c-1.653-0.104-3.16,0.885-4.474,1.894   c-2.288,1.757-4.429,3.704-6.393,5.817c-0.657,0.706-1.321,1.486-1.476,2.438c-0.154,0.948,0.224,1.893,0.595,2.779   c6.374,15.201,16.469,39.647,24.565,54.027c3.916,6.955,11.422,9.337,19.041,8.74c1.951-0.153,3.299-0.698,4.998-1.297   c2.006-0.708,4.189-0.7,6.215-1.4c1.328-0.459,2.37-1.49,3.309-2.535c8.159-9.076,13.716-21.809,18.638-32.865   c5.344-12.003,9.695-24.423,13.623-36.952c0.29-0.924,0.585-1.842,0.885-2.753c6.176-18.737,14.517-34.863,21.98-53.256   C195.556,496.867,196.105,495.548,195.685,493.954z"/>
	<g>
		<g>
			<path fill="#E9C4AF" d="M172.594,707.823c2.66,1.026,5.442,0.846,8.167,1.37c2.771-9.338,4.541-18.568,5.398-28.374     c-5.51,3.27-8.134-0.446-10.654,8.136C174.688,691.735,174.437,703.783,172.594,707.823z"/>
			<path fill="#1E0F00" d="M183.546,706.382c0.007,5.281,4.163,10.967,6.463,15.716c0.271,0.558,0.547,1.14,0.558,1.76     c0.017,0.922-0.547,1.741-1.087,2.489c-0.75,1.038-1.564,2.128-2.757,2.595c-1.171,0.459-2.488,0.229-3.716-0.041     c-2.056-0.451-4.092-0.997-6.098-1.634c-0.5-0.159-1.01-0.33-1.417-0.66c-0.483-0.391-0.773-0.965-1.049-1.522     c-1.418-2.855-2.625-4.881-2.548-8.062c0.079-3.286,0.494-6.69-0.107-9.946c-0.297-1.579-0.691-3.599,0.662-4.466     c1.046-0.67,2.961,0.253,4.1,0.439c2.009,0.328,3.866,0.204,5.717,1.258c0.377,0.215,0.744,0.474,0.976,0.84     C183.478,705.522,183.545,705.942,183.546,706.382z"/>
		</g>
		<path fill="#0E538D" d="M169.855,538.884c1.174,23.448,3.682,46.807,1.906,70.417c-2.193,29.167-0.328,58.856-3.624,87.745    c3.325,1.156,6.737,2.061,10.198,2.707c3.968,0.74,10.363,1.6,13.046-2.149c1.371-1.916,1.705-5.622,2.288-7.874    c1.868-7.213,3.572-14.47,5.26-21.727c4.774-20.534,10.09-41.168,12.562-62.107c2.601-22.027,5.388-44.075,8.455-65.954    c1.585-11.308,2.74-22.676,3.357-34.079c0.159-2.938,1.723-33.243,0.244-33.458c-17.558-2.549-34.932-1.884-52.192,2.217    c-1.677,0.399-3.356,0.973-4.314,2.315c-0.958,1.342-0.913,2.769-0.879,4.268c0.324,14.294,2.349,28.236,2.977,42.57    C169.355,528.761,169.598,533.755,169.855,538.884z"/>
	</g>
	<path fill="#2895F5" d="M159.994,350.716c-0.286,0.096-0.57,0.198-0.852,0.305c-4.714,1.789-8.723,5.008-12.645,8.176   c-5.891,4.758-8.792,6.845-11.067,13.892c-2.122,6.572-3.45,13.513-4.75,20.285c-6.671,34.77-7.96,69.395-12.748,104.427   c-1.303,9.536-2.31,20.746,4.743,27.295c12.513-9.738,28.242-10.3,43.418-10.314c10.658-0.01,21.077-3.461,31.76-2.272   c10.21,1.137,19.127-1.415,29.488-0.741c2.498,0.163,5.681,0.135,6.666-2.167c-3.585-10.748-3.524-22.307-4.335-33.608   c-2.099-29.232-11.784-57.284-15.692-86.319c-1.329-9.869-2.037-26.25-9.68-33.721c-8.306-8.118-27.251-8.284-37.925-6.696   C164.215,349.581,162.062,350.017,159.994,350.716z"/>
	<g>
		<path fill="#1E0F00" d="M130,329c0,0,20.1,15.934,44.3,16.996C198.5,347.058,218,334,218,334s-18.8-0.383-17-14    c1.815-13.731,5.2-34.54-22.3-37.726c-27.5-3.186-29.751,21.757-28.6,30.799C152,328,135.5,329,130,329z"/>
		<g>
			<path fill="#E9C4AF" d="M167.92,350.225c0.176,0.341,0.41,0.668,0.725,0.979c1.24,1.224,2.959,1.917,4.665,2.161     c2.248,0.322,4.534-0.051,6.765-0.477c3.014-0.575,2.908-2.34,3.344-5.076c0.239-1.495,0.388-3.001,0.501-4.511     c0.062-0.827-0.259-3.789,0.269-4.369c0.358-0.393,1.815-0.261,2.453-0.594c1.012-0.528,1.857-1.501,2.465-2.447     c0.98-1.524,1.52-3.283,2.048-5.016c0.919-3.016,1.838-6.032,2.757-9.048c0.939-3.082,1.883-6.189,2.185-9.396     c0.455-4.834-0.327-11.659-3.976-15.194c-3.328-3.224-8.185-4.354-12.638-4.923c-5.897-0.754-12.01,0.326-17.104,3.456     c-2.057,1.264-4.007,2.903-5.221,5.157c-1.872,3.474-1.73,7.812-1.529,11.868c0.186,3.743,0.372,7.487,0.557,11.23     c0.214,4.306,0.75,9.267,3.976,11.602c1.713,1.24,3.952,1.505,5.418,3.094c1.836,1.991,1.717,4.979,1.794,7.504     C167.417,347.669,167.309,349.035,167.92,350.225z"/>
		</g>
		<path fill="#1E0F00" d="M152,316c0,0,12-7,19-18c0,0-1,10-2,11c0,0,5-4,7-10c0,0,1,7,0,10c0,0,5-2,7-10c0,0,7,13,14,17    c0,0,7-26-20-26S152,316,152,316z"/>
	</g>
	<g>
		<g>
			<path fill="#E9C4AF" d="M156.799,487.583c0.062-0.287,0.123-0.584,0.101-0.867c-0.205-2.638-1.892-3.891-2.809-6.364     c-0.409-1.103,1.402-3.526-0.995-4.062c-0.885-0.198-3.123-0.376-5.014-0.779c-2.757-0.588-5.896-2.999-8.035-5.374     c-8.404-9.33-14.037-20.688-19.255-32.099c-0.298-0.65-0.598-1.334-0.562-2.048c0.064-1.279,1.15-2.235,2.136-3.053     c4.57-3.793,8.787-8.012,12.579-12.585c3.383-4.079,6.488-8.57,7.781-13.71c1.294-5.139,0.49-11.059-3.158-14.903     c-2.731-2.879-6.909-4.311-10.832-3.714c-9.73,1.482-13.245,15.423-16.811,23.068c-3.373,7.233-6.241,14.703-8.57,22.336     c-0.288,0.943-0.57,1.918-0.464,2.898c0.113,1.044,0.655,1.986,1.188,2.891c6.859,11.655,14.708,22.639,22.821,33.52     c2.229,2.99,5.747,4.428,7.784,7.212c1.299,1.776,1.042,4.105,1.897,6.052c0.846,1.927,2.448,4.241,3.944,5.718     c2.95,2.914,7.18,2.24,10.933,2.015c0.935-0.056,1.566-0.091,2.316-0.547c1.219-0.741,1.723-2.031,2.269-3.293     C156.363,489.151,156.628,488.374,156.799,487.583z"/>
		</g>
		<g>
			<path fill="#2895F5" d="M115.314,409.347c5.842,5.404,11.684,10.808,17.527,16.212c-0.375-0.347,26.143-25.01,27.672-26.532     c5.833-5.81,11.833-11.873,14.706-19.588c6.135-16.473-10.845-32.196-26.599-23.112c-17.102,9.862-31.876,27.083-39.52,45.232     c-0.166,0.395-0.333,0.812-0.281,1.237c0.071,0.583,0.529,1.033,0.96,1.432C111.624,405.935,113.469,407.641,115.314,409.347z"/>
		</g>
	</g>
	<g>
		<g>
			
				<ellipse transform="matrix(0.7071 -0.7071 0.7071 0.7071 -89.157 198.6071)" fill="#FFBE55" cx="195.161" cy="206.926" rx="91.281" ry="91.281"/>
		</g>
	</g>
	<g opacity="0.08">
		<g>
			<path d="M262.282,144.914c4.895,16.127,5.385,33.797,0.469,51.221c-13.691,48.519-64.122,76.752-112.64,63.062     c-16.851-4.755-31.251-13.944-42.302-25.943c8.735,28.781,31.498,52.645,62.593,61.42c48.519,13.691,98.949-14.543,112.64-63.062     C291.978,199.943,283.049,167.464,262.282,144.914z"/>
		</g>
	</g>
	<g>
		<g>
			<path opacity="0.2" fill="#FFBE55" d="M116.636,194.774c12.711-45.047,59.533-71.26,104.58-58.549     c26.33,7.43,46.221,26.516,55.67,50.088c-7.185-28.425-28.938-52.335-59.182-60.869c-45.047-12.711-91.868,13.502-104.58,58.549     c-5.281,18.716-3.838,37.737,2.879,54.492C112.486,224.571,112.459,209.577,116.636,194.774z"/>
		</g>
	</g>
	<g>
		<g>
			<g>
				<g>
					<path fill="#1E0F00" d="M175.283,178.306c-1.7,6.026-5.977,10.093-9.552,9.084c-3.575-1.009-5.095-6.711-3.394-12.737       c1.7-6.026,5.977-10.093,9.552-9.084C175.464,166.577,176.984,172.28,175.283,178.306z"/>
				</g>
			</g>
			<g>
				<g>
					<path fill="#1E0F00" d="M240.014,196.571c-1.7,6.026-5.977,10.093-9.552,9.084c-3.575-1.009-5.095-6.711-3.394-12.737       c1.7-6.026,5.977-10.093,9.552-9.084C240.195,184.843,241.714,190.545,240.014,196.571z"/>
				</g>
			</g>
		</g>
	</g>
	<g>
		<path fill="#1E0F00" d="M133.785,198.577c-5.02,30.59,13.624,60.728,44.165,69.346c30.54,8.618,62.188-7.329,73.899-36.031    L133.785,198.577z"/>
	</g>
	<g>
		<path fill="#2895F5" d="M141.752,240.191c7.803,13.055,20.403,23.276,36.197,27.733c15.114,4.265,30.495,2.506,43.601-3.83    l-0.185-1.431C187.177,232.145,142.365,240.08,141.752,240.191z"/>
	</g>
	<g>
		<g>
			<g>
				<g>
					
						<ellipse transform="matrix(0.7071 -0.7071 0.7071 0.7071 -191.4402 600.4636)" fill="#FFBE55" cx="629.104" cy="531.321" rx="162.679" ry="162.679"/>
				</g>
			</g>
			<g opacity="0.08">
				<g>
					<path d="M714.215,392.473c16.2,25.292,25.594,55.362,25.594,87.627c0,89.845-72.834,162.679-162.679,162.679       c-31.204,0-60.351-8.792-85.112-24.024c28.912,45.137,79.505,75.053,137.086,75.053c89.845,0,162.68-72.834,162.68-162.679       C791.783,472.487,760.75,421.099,714.215,392.473z"/>
				</g>
			</g>
			<g opacity="0.2">
				<g>
					<path fill="#FFBE55" d="M488.535,548.483c0-83.416,67.622-151.038,151.038-151.038c48.758,0,92.111,23.11,119.727,58.967       c-26.081-45.277-74.965-75.759-130.969-75.759c-83.416,0-151.038,67.622-151.038,151.038c0,34.658,11.682,66.583,31.311,92.071       C495.838,601.601,488.535,575.895,488.535,548.483z"/>
				</g>
			</g>
		</g>
		<g>
			<path fill="#1E0F00" d="M562.423,548.088c-4.19-4.07-10.905,0.432-8.734,5.855c12.02,30.034,41.381,51.25,75.708,51.25     c33.754,0,62.706-20.514,75.091-49.753c2.259-5.334-4.508-9.951-8.667-5.919C672.014,572.604,621.472,605.449,562.423,548.088z"/>
		</g>
		<g>
			<g>
				<g>
					<g>
						<ellipse fill="#1E0F00" cx="569.17" cy="490.654" rx="11.987" ry="20.204"/>
					</g>
				</g>
				<g>
					<g>
						<ellipse fill="#1E0F00" cx="689.036" cy="490.654" rx="11.987" ry="20.204"/>
					</g>
				</g>
			</g>
		</g>
	</g>
	<g>
		<g>
			<g>
				<g>
					<g>
						
							<ellipse transform="matrix(0.0224 -0.9997 0.9997 0.0224 616.5879 1150.637)" fill="#FFBE55" cx="896.628" cy="260.05" rx="95.901" ry="95.901"/>
					</g>
				</g>
				<g opacity="0.08">
					<g>
						<path d="M942.895,175.928c10.241,14.444,16.607,31.89,17.502,50.89c2.492,52.906-38.376,97.815-91.283,100.307        c-18.375,0.866-35.782-3.503-50.785-11.786c18.277,25.777,48.899,41.99,82.806,40.393        c52.906-2.492,93.775-47.401,91.282-100.307C990.791,220.893,971.091,191.494,942.895,175.928z"/>
					</g>
				</g>
				<g>
					<g>
						<path opacity="0.2" fill="#FFBE55" d="M814.329,274.056c-2.314-49.12,35.63-90.815,84.75-93.129        c28.711-1.352,54.881,11.053,72.138,31.402c-16.614-25.939-46.245-42.532-79.223-40.979        c-49.12,2.314-87.064,44.009-84.75,93.129c0.961,20.409,8.726,38.884,20.992,53.348        C820.103,305.132,815.089,290.197,814.329,274.056z"/>
					</g>
				</g>
			</g>
			<g>
				<g>
					<path fill="#1E0F00" d="M870.953,241.17c-3.031-6.649-9.706-10.723-17.004-10.379c-7.142,0.336-13.358,4.889-15.834,11.599       c-0.474,1.285,0.012,2.687,1.181,3.409c1.17,0.723,2.643,0.53,3.581-0.47c5.072-5.404,13.28-9.937,23.583-0.831       c0.581,0.514,1.309,0.757,2.03,0.723c0.55-0.026,1.095-0.213,1.568-0.564C871.153,243.846,871.521,242.412,870.953,241.17z"/>
				</g>
				<g>
					<path fill="#1E0F00" d="M953.255,237.293c-3.031-6.649-9.705-10.723-17.003-10.379c-7.142,0.336-13.358,4.89-15.833,11.598       c-0.475,1.284,0.009,2.686,1.178,3.409c1.169,0.725,2.644,0.532,3.583-0.469c5.072-5.404,13.279-9.937,23.582-0.831       c0.581,0.514,1.309,0.757,2.03,0.723c0.55-0.026,1.095-0.213,1.568-0.564C953.455,239.969,953.823,238.535,953.255,237.293z"/>
				</g>
			</g>
			<g id="XMLID_66_">
				<path fill="#2895F5" d="M854.65,280.127c-0.002-0.051-0.001-0.101-0.003-0.152c-0.45-9.559-7.776-17.986-18.171-17.496      c-8.26,0.389-12.77,6.551-14.143,12.185l0,0c-1.896-5.48-6.965-11.19-15.225-10.801c-10.395,0.49-16.896,9.568-16.446,19.127      c0.002,0.051,0.008,0.101,0.011,0.152c0.042,2.082,1.091,23.242,33.886,38.985l0,0.005l0.005-0.003      c0.002,0.001,0.003,0.001,0.003,0.001l0.006-0.002c0.002,0.001,0.003,0.001,0.003,0.001l0.001-0.004      C855.749,303.368,854.804,282.204,854.65,280.127z"/>
			</g>
			<g>
				<g>
					<path fill="#1E0F00" d="M899.137,313.325c-8.709,0.41-16.127-6.341-16.538-15.05c-0.178-3.788,0.991-7.441,3.265-10.383       c-2.541-2.715-4.048-6.243-4.227-10.031c-0.41-8.709,6.341-16.127,15.05-16.538c5.306-0.25,10.352,2.161,13.499,6.449       c0.886,1.206,0.626,2.903-0.581,3.788c-1.208,0.887-2.904,0.626-3.788-0.581c-2.07-2.82-5.388-4.406-8.875-4.242       c-5.723,0.27-10.16,5.145-9.891,10.868c0.149,3.159,1.707,6.043,4.276,7.913c0.665,0.484,1.074,1.242,1.113,2.064       c0.039,0.821-0.297,1.615-0.914,2.159c-2.382,2.103-3.662,5.12-3.513,8.279c0.27,5.723,5.145,10.16,10.868,9.891       c3.453-0.163,6.591-2.026,8.393-4.983c0.778-1.277,2.447-1.684,3.724-0.904c1.278,0.778,1.683,2.446,0.904,3.724       C909.164,310.245,904.391,313.078,899.137,313.325z"/>
				</g>
			</g>
		</g>
	</g>
	<g>
		<path fill="#E9C4AF" d="M747.555,508.12c-0.497,1.461-1.157,2.866-1.969,4.178c-0.417,0.674-0.884,1.335-1.519,1.809    c-0.448,0.334-0.963,0.563-1.474,0.789c-1.207,0.534-2.414,1.068-3.621,1.602c-0.406,0.18-0.846,0.364-1.282,0.279    c-0.321-0.063-0.595-0.264-0.855-0.461c-1.362-1.031-2.688-2.109-3.977-3.232c-0.211-0.184-0.428-0.379-0.528-0.64    c-0.204-0.531,0.14-1.105,0.496-1.548c1.785-2.221,1.143-3.048,1.715-5.452c0.386-1.622,1.542-2.42,2.766-3.507    c2.042-1.815,4.096-3.617,6.144-5.426c0.231-0.204,4.978,3.148,5.552,3.506c-0.753,1.801-0.414,4.055-0.852,5.988    C747.991,506.719,747.791,507.426,747.555,508.12z"/>
		<path fill="#2895F5" d="M750.274,367.715c-0.858,0.801-1.646,1.787-2.338,2.966c-2.874,4.893-3.298,10.951-2.318,16.555    c1.551,8.871,5.902,17.314,8.444,25.951c2.908,9.879,5.815,19.759,8.723,29.638l-23.482,55.432l11.362,6.388    c0,0,41.11-61.488,41.109-61.489c-4.497-12.926-8.94-25.54-12.597-38.654c-3.278-11.756-4.392-25.093-12.688-34.617    C761.804,364.507,754.987,363.314,750.274,367.715z"/>
	</g>
	<path fill="#1E0F00" d="M303.645,651.12c-2.093,11.359-3.809,24.309,3.566,33.345c7.108,8.709,19.838,10.28,31.228,11.187   c19.021,1.515,39.563,2.691,55.721-7.193c11.196-6.849,18.953-18.777,20.522-31.555c0.099-0.808,0.173-1.642-0.055-2.425   c-0.325-1.115-1.211-1.976-2.064-2.784c-6.864-6.503-13.727-13.006-20.591-19.51c-1.673-1.586-3.376-3.193-5.436-4.264   c-1.739-0.905-3.669-1.394-5.585-1.855c-18.101-4.354-41.691-10.116-60.408-7.257C304.319,621.289,306.115,637.714,303.645,651.12z   "/>
	<g>
		<g>
			<g>
				<path fill="#B87262" d="M314.898,566.621c2.555-4.99,1.664-11.031-2.225-15.089c-7.106-7.414-14.211-14.829-21.317-22.244      c-3.99-4.164-10.059-8.555-12.373-13.701c-4.091-9.097-5.346-20.886-7.35-30.617c-1.017-4.941-3.453-11.496-2.816-16.523      c0.119-0.943,3.802-9.008,3.59-9.156c-0.017-0.014-1.72-1.415-1.72-1.415l-1.396,1.721l-1.558,0.153l2.524-6.055l-7.075-2.473      l-6.786,5.418c1.173,5.326,3.749,10.462,3.628,15.983c-0.051,2.335-0.484,4.644-0.734,6.967      c-0.43,3.989-0.319,8.006-0.374,12.01c-0.053,3.875-0.866,7.75-0.866,11.563c0.001,8.509,0.062,17.018,0.094,25.526l34.638,40.5      C298.959,576.414,310.576,575.064,314.898,566.621z"/>
			</g>
		</g>
		<path fill="#0E538D" d="M284.342,523.02c0.234-1.11,0.475-2.217,0.725-3.321c4.661-0.202,9.357,0.406,14.054,0.064    c5.78-0.421,11.461-1.732,17.229-2.294c2.595-0.253,5.202-0.354,7.807-0.455c11.505-0.446,3.653,16.859,2.124,22.905    c-2.278,9.011-5.056,17.921-8.536,26.544c-1.829,4.533-3.853,8.995-6.188,13.291c-1.187,2.183-3.53,9.193-6.001,9.842    c-1.992,0.523-3.624-1.532-4.727-3.271c-5.467-8.619-12.784-16.059-21.312-21.668c-0.583-0.383-1.21-0.805-1.439-1.464    c-0.165-0.473-0.094-0.99-0.022-1.486C279.937,548.763,281.666,535.711,284.342,523.02z"/>
	</g>
	<g>
		<g>
			<g>
				<path fill="#B87262" d="M379.996,562.81c-2.555-4.99-1.664-11.031,2.225-15.089c7.106-7.415,14.211-14.829,21.317-22.244      c3.99-4.164,10.059-8.555,12.373-13.701c4.091-9.097,5.346-20.886,7.35-30.617c1.017-4.941,3.453-11.496,2.816-16.523      c-0.12-0.942-3.802-9.008-3.59-9.155c0.017-0.014,1.72-1.415,1.72-1.415l1.397,1.721l1.558,0.153l-2.524-6.056l7.075-2.473      l6.786,5.418c-1.173,5.326-3.749,10.461-3.628,15.983c0.051,2.335,0.484,4.644,0.734,6.967c0.43,3.989,0.319,8.006,0.374,12.01      c0.053,3.874,0.866,7.75,0.866,11.563c-0.001,8.509-0.062,17.018-0.094,25.526l-34.638,40.5      C395.935,572.603,384.318,571.253,379.996,562.81z"/>
			</g>
		</g>
		<path fill="#0E538D" d="M410.552,519.209c-0.234-1.11-0.476-2.217-0.725-3.321c-4.661-0.202-9.357,0.406-14.053,0.064    c-5.78-0.422-11.461-1.732-17.229-2.294c-2.595-0.253-5.202-0.354-7.807-0.455c-11.505-0.446-3.653,16.859-2.124,22.905    c2.278,9.011,5.056,17.922,8.536,26.544c1.829,4.533,3.853,8.995,6.188,13.291c1.187,2.183,3.53,9.193,6.002,9.842    c1.992,0.523,3.624-1.532,4.727-3.271c5.467-8.619,12.784-16.058,21.312-21.668c0.583-0.383,1.209-0.805,1.439-1.464    c0.164-0.473,0.094-0.99,0.022-1.486C414.957,544.952,413.228,531.9,410.552,519.209z"/>
	</g>
	<path fill="#0E538D" d="M337.545,512.057c-9.349,1.771-17.42,5.412-22.802,14.674c-3.857,6.638-5.466,14.409-7.094,21.833   c-4.254,19.398-6.147,39.173-8.271,58.886c-2.033,18.867-7.435,38.769-1.43,57.379c0.804,2.49,3.095,5.476,5.375,4.192   c1.183-4.116,2.367-8.232,3.55-12.348c0.509-1.77,1.048-3.598,2.234-5.007c1.029-1.223,2.462-2.026,3.886-2.752   c7.905-4.027,16.615-6.467,25.462-7.134c9.829-0.741,19.673,0.704,29.188,3.118c9.377,2.379,18.426,6.611,27.873,8.366   c6.192,1.15,12.328,2.602,18.379,4.349c0.201,0.058,0.416,0.116,0.615,0.052c0.374-0.12,0.491-0.584,0.54-0.974   c0.526-4.158,0.195-8.422-0.955-12.452c-1.162-4.074-1.086-8.528-1.493-12.772c-0.876-9.125-2.053-18.235-3.934-27.212   c-4.087-19.507-11.179-38.273-14.627-57.93c-1.489-8.489-2.409-22.564-10.424-29.064c-8.709-7.064-28.369-7.42-39.426-6.176   C341.919,511.341,339.698,511.649,337.545,512.057z"/>
	<g>
		<g>
			<path fill="#736052" d="M351.892,514.527c-1.829,1.213-6.393,2.147-11.44,0.877c-1.017-0.256-1.79-1.107-1.909-2.148     c-0.334-2.924-0.471-5.871-0.41-8.814c0.016-0.76-10.38-4.062-11.548-4.908c-6.513-4.717-7.639-13.162-8.004-20.613     c-0.168-3.424-0.245-7.066,1.491-10.022c1.981-3.374,5.88-5.092,9.636-6.185c6.179-1.798,12.679-2.484,19.097-2.015     c5.858,0.428,12.221,2.202,15.416,7.131c4.588,7.079,3.424,20.981-0.479,28.065c-2.257,4.098-5.88,5.397-8.758,8.594     C352.325,507.443,353.109,510.942,351.892,514.527z"/>
			<path fill="#1A1A1A" d="M369.406,459.466c0.91-1.624,1.8-3.205,1.218-4.88c-0.398-1.146-1.423-1.959-1.99-3.032     c-1.389-2.632,0.286-5.98-0.68-8.795c-1.27-3.7-6.613-5.224-6.979-9.119c-1.408-1.255-3.07,1.16-4.647,2.195     c-3.58,2.349-7.856-3.134-12.09-2.499c-3.223,0.483-5.347,4.413-8.603,4.264c-2.436-0.111-4.811-2.553-6.963-1.407     c-0.952,0.507-1.455,1.579-2.29,2.261c-2.667,2.176-7.917-0.004-9.404,3.101c-0.871,1.82-0.501,3.431-2.376,4.653     c-1.643,1.071-4.892-0.686-5.901,1.657c-0.221,0.514-0.187,1.097-0.149,1.655c0.388,5.653,0.775,11.306,1.163,16.959     c0.106,1.546,0.243,3.182,1.152,4.437c0.641,0.886,1.632,1.525,2.062,2.53c0.532,1.241,0.067,2.696,0.387,4.008     c0.518,2.127,7.428,13.045,9.494,9.421c0.742-1.301,0.483-2.916,0.233-4.393c-0.366-2.163-0.633-4.53,0.476-6.423     c1.75-2.99,5.852-3.293,9.31-3.508c3.223-0.201,6.512-0.651,9.367-2.16c1.979-1.046,4.616-2.507,6.128-0.856     c0.393,0.43,0.61,1.015,1.07,1.373c0.82,0.637,2.025,0.287,2.915-0.247c0.891-0.533,1.755-1.247,2.793-1.292     c1.037-0.044,2.138,1.108,1.568,1.976c0.357,1.043,1.857-0.325,2.957-0.255c0.912,0.058,1.32,1.151,1.512,2.045     c0.576,2.688,1.151,5.375,1.727,8.063c2.206,0.315,4.365-1.28,5.267-3.318c2.342-5.294-1.278-10.366-0.069-15.421     C368.309,461.427,368.861,460.439,369.406,459.466z"/>
		</g>
	</g>
	<g>
		<g>
			<g>
				<g>
					
						<ellipse transform="matrix(0.7071 -0.7071 0.7071 0.7071 -203.6401 368.3739)" fill="#FFBE55" cx="342.847" cy="430.002" rx="89.255" ry="89.255"/>
				</g>
			</g>
			<g opacity="0.08">
				<g>
					<path d="M385.722,351.608c9.563,13.42,15.526,29.644,16.401,47.324c2.436,49.234-35.502,91.121-84.736,93.556       c-17.099,0.846-33.31-3.182-47.292-10.857c17.067,23.951,45.602,38.973,77.156,37.411       c49.234-2.436,87.172-44.322,84.736-93.556C430.398,393.352,411.999,366.033,385.722,351.608z"/>
				</g>
			</g>
			<g>
				<g>
					<path opacity="0.2" fill="#FFBE55" d="M266.282,443.218c-2.261-45.711,32.961-84.6,78.672-86.861       c26.718-1.322,51.102,10.167,67.207,29.067c-15.52-24.104-43.134-39.483-73.823-37.964       c-45.711,2.262-80.933,41.151-78.672,86.862c0.94,18.992,8.207,36.17,19.654,49.605       C271.724,472.128,267.025,458.24,266.282,443.218z"/>
				</g>
			</g>
		</g>
		<g>
			<path fill="#1E0F00" d="M306.761,440.998c-2.406-2.117-5.964,0.533-4.628,3.445c7.401,16.132,24.066,26.963,42.876,26.032     c18.497-0.915,33.806-12.941,39.8-29.3c1.093-2.984-2.74-5.331-4.91-3.009C367.48,451.461,340.674,470.83,306.761,440.998z"/>
		</g>
		<g>
			<g>
				<path fill="#1E0F00" d="M364.697,405.344c2.211-6.431,8.03-10.803,14.821-11.139c6.646-0.329,12.813,3.332,15.708,9.325      c0.554,1.148,0.23,2.49-0.788,3.264c-1.019,0.775-2.401,0.728-3.36-0.114c-5.183-4.552-13.193-8.014-21.921,1.345      c-0.493,0.528-1.145,0.819-1.816,0.852c-0.512,0.025-1.033-0.099-1.503-0.382C364.752,407.841,364.283,406.546,364.697,405.344z      "/>
			</g>
			<g>
				<path fill="#1E0F00" d="M288.107,409.134c2.211-6.431,8.029-10.803,14.82-11.139c6.646-0.329,12.813,3.332,15.708,9.324      c0.556,1.147,0.233,2.489-0.786,3.264c-1.018,0.776-2.401,0.73-3.361-0.113c-5.183-4.552-13.192-8.014-21.92,1.345      c-0.493,0.528-1.145,0.819-1.816,0.852c-0.512,0.025-1.033-0.099-1.503-0.382C288.162,411.631,287.693,410.335,288.107,409.134z      "/>
			</g>
		</g>
		<g>
			
				<ellipse transform="matrix(0.8424 -0.5388 0.5388 0.8424 -196.3347 219.9781)" fill="#2895F5" cx="277.919" cy="445.653" rx="15.583" ry="15.583"/>
		</g>
		<g>
			<path fill="#2895F5" d="M424.566,438.398c0.425,8.596-6.198,15.909-14.794,16.334c-8.596,0.425-15.909-6.198-16.334-14.794     s6.198-15.909,14.794-16.334C416.828,423.179,424.141,429.802,424.566,438.398z"/>
		</g>
	</g>
	<g>
		<g>
			<path fill="#B87262" d="M335.303,709.818c-2.574,0.56-5.088,0.002-7.649,0.094c-1.206-8.916-1.514-17.593-0.906-26.664     c4.566,3.765,7.488,0.745,8.573,8.937C335.671,694.836,334.193,705.87,335.303,709.818z"/>
			<path fill="#1E0F00" d="M326.425,705.571c-3.114-0.617-2.728,6.541-2.503,8.204c0.135,0.999,0.405,1.999,0.295,3.001     c-0.121,1.103-0.688,2.1-1.243,3.061c-1.163,2.012-2.326,4.025-3.489,6.037c-0.523,0.905-1.054,1.831-1.254,2.857     c-0.495,2.542,1.344,5.195,3.803,6.01c8.531,2.825,14.331-7.959,15.094-14.622c0.117-1.021,0.16-2.049,0.203-3.076     c0.089-2.125,0.981-6.861-0.139-8.756c-1.307-2.211-3.95-0.074-5.981-0.679C329.328,707.048,327.685,705.822,326.425,705.571z"/>
		</g>
		<path fill="#1E0F00" d="M347.583,582.393c0.759,0.848,1.461,1.743,2.099,2.667c5.101,7.399,6.907,16.673,6.708,25.657    c-0.199,8.985-2.266,17.811-4.322,26.559c-2.481,10.558-5.678,21.092-6.202,31.838c-0.279,5.712-1.233,11.448-1.867,17.128    c-0.566,5.067-1.182,10.139-1.556,15.225c-0.132,1.794-0.426,1.894-2.329,2.188c-2.34,0.362-4.71,0.522-7.077,0.48    c-4.639-0.082-9.267-0.936-13.62-2.546c-3.103-1.147-2.172-7.111-2.441-9.802c-0.781-7.826-1.383-15.671-1.968-23.514    c-1.169-15.673-2.608-31.336-3.068-47.052c-0.398-13.598-2.566-26.988,6.972-38.105c3.588-4.181,8.544-7.56,14.048-7.796    C338.569,575.082,343.787,578.154,347.583,582.393z"/>
	</g>
	<g>
		<g>
			<path fill="#B87262" d="M371.975,705.537c2.66,0.447,5.205-0.248,7.829-0.279c0.797-9.181,0.686-18.072-0.38-27.323     c-4.486,4.076-7.624,1.13-8.332,9.563C370.863,690.228,372.916,701.443,371.975,705.537z"/>
			<path fill="#1E0F00" d="M380.848,700.756c3.155-0.784,3.112,6.558,2.964,8.27c-0.089,1.029-0.316,2.065-0.155,3.085     c0.177,1.123,0.807,2.115,1.422,3.071c1.288,2.002,2.577,4.003,3.865,6.005c0.579,0.9,1.168,1.821,1.422,2.861     c0.631,2.576-1.12,5.38-3.595,6.335c-8.589,3.308-15.051-7.44-16.159-14.218c-0.17-1.039-0.264-2.089-0.359-3.137     c-0.195-2.169-1.34-6.971-0.287-8.964c1.229-2.327,4.038-0.27,6.085-0.987C377.952,702.409,379.572,701.075,380.848,700.756z"/>
		</g>
		<path fill="#1E0F00" d="M355.724,582.55c-0.697,0.858-1.338,1.759-1.913,2.686c-4.608,7.419-5.929,16.506-5.318,25.218    s3.028,17.184,5.431,25.58c2.9,10.133,6.493,20.21,7.502,30.617c0.264,2.724,5.518,33.243,4.946,33.271    c3.691-0.177,7.36,0.833,11.086,0.425c4.021-0.441,8.043-0.703,12.051-1.294c-0.098-2.178,0.649-3.634,0.895-5.688    c0.24-2.007,0.018-4.035,0.122-6.048c0.394-7.633,0.613-15.277,0.816-22.917c0.406-15.268,1.073-30.54,0.789-45.816    c-0.247-13.219,1.235-26.317-8.542-36.664c-3.677-3.892-8.646-6.941-14-6.914C364.134,575.033,359.212,578.258,355.724,582.55z"/>
	</g>
</g>
</svg>