<svg xmlns="http://www.w3.org/2000/svg" xmlns:xlink="http://www.w3.org/1999/xlink" version="1.1" id="Layer_1" x="0px" y="0px" viewBox="0 0 800 800" style="enable-background:new 0 0 800 800;" xml:space="preserve">
<style type="text/css">
	.st0{fill:#CBE8FE;}
	.st1{fill:#F6F6F6;}
	.st2{fill:#D2D2D2;}
	.st3{fill:#10538B;}
	.st4{fill:#0C476F;}
	.st5{fill:#728090;}
	.st6{fill:#2D94F2;}
	.st7{fill:#FEE2CA;}
	.st8{fill:#FED3B0;}
	.st9{fill:#FEBD57;}
	.st10{fill:#376E9E;}
	.st11{fill:#FED74C;}
</style>
<g id="XMLID_109_">
	<path id="XMLID_293_" class="st0" d="M161.8,596.8c-13.7,22.3-57.5,37.2-15.3,94.2s133.6,100.7,166.3,49.5s59.6-51.2,93.6-33.2   s42.8,55.7,83,55.9c123.9,0.8,243.7-76.9,257.3-173.8c10.1-72,15-118.4-69.6-181.8S362.4,191.4,209.9,235.7   c-81.5,23.7-170.6,91.5-136.7,178.8C118.1,530.2,239.2,471.1,161.8,596.8z"/>
	<g id="XMLID_155_">
		<g id="XMLID_371_">
			<g id="XMLID_378_">
				<g id="XMLID_379_">
					<path id="XMLID_385_" class="st1" d="M499.1,24.1c3.7,2,7.4,3.9,11.1,5.9c0.4,0.2,0.7,0.5,1.1,0.7c5.7,3.4,11.4,7.1,16.9,11.7       c4.6,3.8,9,8.1,12.6,13.3c3.5,5.1,5.7,10.2,5.7,15.1c0,3,0,5.9-0.1,8.9c0,9.6,0,19.3,0,28.9c0,1.2,0,2.3-0.1,3.4       c-0.7,6.7-3.9,10.5-10.3,10.5c-4,0-8.2-1.2-12.7-3.6c-13.2-7-26.4-14-39.6-21c-1.9-1-3.8-1.9-5.7-2.7       c-6.4-2.5-11.6-2.4-15.1,1.4c-2.7,2.9-3.9,7-3.9,12c-0.1,6.4,0,12.9,0,19.4c0,0.3,0,0.6,0,1c-0.4-0.2-0.7-0.4-1-0.5       c-4.4-2.4-8.9-4.7-13.3-7.1c-1.7-0.9-3.4-2.1-5-3.4c-5.7-4.8-9.8-10.8-12.8-17.4c-3.7-8.2-5.2-16-6-23.5       c-0.2-1.9-0.3-3.7-0.5-5.6c0-3.2,0-6.4,0-9.6c0.2-1.6,0.3-3.2,0.5-4.7c0.6-5.1,1.8-9.8,4.1-13.6c2.5-4,6-6.4,11.3-6.4       c3.9,0,8,1.6,12.4,3.9c18.6,10,37.2,19.8,55.8,29.7c0.3,0.2,0.7,0.3,1,0.5c0-1.9,0-3.8,0-5.8c-13.7-7.3-27.4-14.6-41.1-21.9       c0-0.4,0-0.8,0-1.1c0-6,0-12.1-0.1-18.2c0-2.8,0.7-4.9,2.4-6.3c1.9-1.6,4.4-2.1,7.2-2.1c6.1,0.1,12.8,2.5,19.5,5.4       C495.3,22.4,497.2,23.3,499.1,24.1z M482.1,42.9c4.1,2.1,7.4,0.6,7.3-3.5c0-4.1-3.3-9.1-7.4-11.3c-4-2.1-7.4-0.5-7.3,3.5       C474.7,35.7,478,40.8,482.1,42.9z"/>
				</g>
			</g>
			<g id="XMLID_372_">
				<g id="XMLID_373_">
					<path id="XMLID_375_" class="st1" d="M508.9,198.5c-1.9-1-3.7-2-5.6-3c-0.4-0.2-0.8-0.5-1.1-0.7c-4.2-2.6-8.5-5.1-12.7-8       c-5.1-3.4-10-7.5-14.6-12.5c-4.2-4.5-7.6-9.4-9.4-14.9c-1-2.8-1.1-5.3-1.1-7.8c0.1-12,0-24.1,0-36.1c0-1.7,0.1-3.4,0.3-4.9       c0.9-5.2,3.5-8.4,8.4-9c4.5-0.6,9.6,0.9,15,3.8c13.1,7,26.2,14,39.4,20.9c2,1,4,2,5.9,2.7c5.5,2.1,10.2,2.1,13.6-0.7       c3.2-2.6,4.7-6.8,4.9-12.1c0.2-6.7,0.1-13.5,0.1-20.2c0-0.3,0-0.6,0-1.1c0.4,0.2,0.7,0.4,1.1,0.6c4.2,2.3,8.5,4.5,12.7,6.8       c1,0.5,1.9,1,2.9,1.7c5.3,3.6,9.4,8.5,12.8,14.3c3.9,6.7,5.9,13.3,7.3,19.9c0.4,2.2,0.8,4.4,1.1,6.6c0,7.9,0,15.9,0,23.8       c-0.1,0.2-0.1,0.4-0.2,0.6c-0.6,3.6-1.5,6.9-3,9.7c-2.1,4.1-5.1,7-9.8,7.8c-4.4,0.7-9.2-0.7-14.5-3.6       c-18.7-10.1-37.5-20-56.2-29.9c-0.3-0.2-0.6-0.3-0.9-0.5c0,2,0,3.9,0,5.8c13.7,7.3,27.4,14.6,41.1,21.9c0,0.4,0,0.8,0,1.1       c0,6-0.1,11.9,0.1,18c0.1,3.7-1.2,6-3.6,7.3c-2,1.1-4.5,1.4-7.1,1.2c-6.8-0.5-14.1-3.3-21.4-6.7       C512.5,200.3,510.7,199.4,508.9,198.5z M528.7,181.2c-4-2.1-7.4-0.6-7.4,3.4c0,4,3.4,9.2,7.4,11.4c4,2.1,7.4,0.6,7.4-3.4       C536.1,188.5,532.7,183.3,528.7,181.2z"/>
				</g>
			</g>
		</g>
	</g>
	<g id="XMLID_29_">
		<g id="XMLID_18_">
			<path id="XMLID_120_" class="st1" d="M353.4,581.7c0,0,10.1-1.3,12.7-4.3c2.6-3.1,8-9.7,12.4-5.8c2.5,2.1,5,4.8,5,4.8     s0.7,4,0.7,4.7c0.2,1.7-0.1,3.5-1.1,5.4c-2.9,5.8-4.5,12.6-8.6,15.1c-4.2,2.6-3.7,3.3-9.9,7c-6.3,3.7-8.3,7.5-11.3,10.2     c-3,2.8-7.3,4.2-13.4,4.5c-6.1,0.2-10.3-2.2-12.5-6.7s-1.3-8.2,0.2-10.3c1.6-2.2,5.5-3.5,7.1-5.5c1.6-2,6.9-4.4,9-5.9     C345.7,593.2,353.4,581.7,353.4,581.7z"/>
			<path id="XMLID_44_" class="st2" d="M352.7,577.6c0,0,10.1-1.3,12.7-4.3c2.6-3.1,8-9.7,12.4-5.8c4.4,3.9,7.6,9.1,4.7,14.9     c-2.9,5.8-4.5,12.6-8.6,15.1c-4.2,2.6-3.7,3.3-9.9,7c-6.3,3.7-8.3,7.5-11.3,10.2s-7.3,4.2-13.4,4.5c-6.1,0.2-10.3-2.2-12.5-6.7     c-2.3-4.6-1.3-8.2,0.2-10.3s5.5-3.5,7.1-5.5c1.6-2,6.9-4.4,9-5.9C345,589.2,352.7,577.6,352.7,577.6z"/>
			<path id="XMLID_98_" class="st3" d="M252.5,519.9c0,0,66.9-29.4,77.1-30.5S363,486,359,521s-5.7,79.7-5.7,79.7s-1.5,9.4-7.5,11.7     c-6,2.3-17.2,2.9-17.2-9.1s5.1-39.8,5.1-45.5s-68.3,14.7-68.3,14.7S231.8,556.4,252.5,519.9z"/>
			<path id="XMLID_45_" class="st1" d="M395.4,611c0,0,10.2,0.4,13.2-2.3s9.4-8.3,13.2-3.8c2.1,2.5,4.2,5.5,4.2,5.5s0,4.1,0,4.7     c-0.1,1.7-0.7,3.5-1.9,5.2c-3.8,5.3-6.4,11.7-10.9,13.6s-4.1,2.6-10.9,5.3c-6.8,2.6-9.4,6-12.8,8.3s-7.9,3-13.9,2.3     c-6-0.8-9.8-3.8-11.3-8.7s0-8.3,1.9-10.2s6-2.5,7.9-4.3c1.9-1.7,7.5-3.2,9.8-4.4S395.4,611,395.4,611z"/>
			<path id="XMLID_22_" class="st2" d="M395.4,606.8c0,0,10.2,0.4,13.2-2.3s9.4-8.3,13.2-3.8c3.8,4.5,6,10.2,2.3,15.4     c-3.8,5.3-6.4,11.7-10.9,13.6s-4.1,2.6-10.9,5.3c-6.8,2.6-9.4,6-12.8,8.3s-7.9,3-13.9,2.3c-6-0.8-9.8-3.8-11.3-8.7     s0-8.3,1.9-10.2c1.9-1.9,6-2.5,7.9-4.3c1.9-1.7,7.5-3.2,9.8-4.4S395.4,606.8,395.4,606.8z"/>
			<path id="XMLID_19_" class="st4" d="M293.5,537.5c0,0,66.9-29.4,77.1-30.5s33.3-3.4,29.4,31.6c-4,35-5.7,79.7-5.7,79.7     s-1.5,9.4-7.5,11.7c-6,2.3-17.2,2.9-17.2-9.1c0-12.1,5.1-39.8,5.1-45.5s-68.3,14.7-68.3,14.7S272.8,574.1,293.5,537.5z"/>
		</g>
		<g id="XMLID_9_">
			<polygon id="XMLID_6_" class="st5" points="474.1,570.5 471.9,746.8 474.1,746.8 494.5,577.6    "/>
			<polygon id="XMLID_7_" class="st5" points="680.8,487.1 689.1,621.5 687.3,623.1 665.1,495    "/>
			<polygon id="XMLID_8_" class="st5" points="147,380.7 130.6,507.2 138.8,511.1 162.5,389.1    "/>
			<path id="XMLID_4_" class="st2" d="M694.6,464v16.5c0,0,1.2,3.2-4.3,6.9c-5.5,3.7-170.4,99.1-170.4,99.1s-14.3,9-37.7-4.9     C458.9,567.7,127.4,376,127.4,376s-6.3-1.8-6.3-10.1s0-12.5,0-12.5L694.6,464z"/>
			<path id="XMLID_5_" class="st1" d="M491.7,569.6L124.4,357.2c-9.3-5.7,4-11,4-11s151.2-86.7,167-96.9c15.8-10.2,31.4,0,31.4,0     l362,208.4c0,0,13,4.8,0.4,13.1s-171.4,98.8-171.4,98.8S505.4,577.6,491.7,569.6z"/>
		</g>
		<g id="XMLID_41_">
			<path id="XMLID_25_" class="st3" d="M427.1,409.6c0,0,0,2.6,0,2.9c0,1.1-0.6,2.3-1.6,3l-26.2,19.8c-1.2,0.8-2.7,0.9-4,0.1     l-84.3-47.7c-1.1-0.6-1.7-1.7-1.8-2.9c-0.1-0.6,0-3.1,0-3.1L427.1,409.6z"/>
			<path id="XMLID_17_" class="st6" d="M340,358.7l85.2,47.5c2.4,1.4,2.5,4.8,0.2,6.3l-26.2,19.8c-1.2,0.8-2.7,0.9-4,0.1l-84.3-47.7     c-2.3-1.3-2.5-4.6-0.4-6.2l25.3-19.6C337,358,338.6,357.9,340,358.7z"/>
			<g id="XMLID_27_">
				<g id="XMLID_790_">
					<polygon id="XMLID_850_" class="st3" points="343.4,364.7 338.8,362 335.2,365 339.9,367.7      "/>
					<polygon id="XMLID_849_" class="st3" points="349,368 344.4,365.3 340.8,368.2 345.5,370.9      "/>
					<polygon id="XMLID_848_" class="st3" points="354.6,371.2 350,368.5 346.4,371.5 351.1,374.2      "/>
					<polygon id="XMLID_847_" class="st3" points="360.2,374.5 355.6,371.8 352,374.7 356.7,377.4      "/>
					<polygon id="XMLID_846_" class="st3" points="365.8,377.7 361.2,375 357.6,378 362.2,380.7      "/>
					<polygon id="XMLID_845_" class="st3" points="371.4,381 366.7,378.3 363.2,381.2 367.8,383.9      "/>
					<polygon id="XMLID_844_" class="st3" points="377,384.2 372.3,381.5 368.8,384.5 373.4,387.2      "/>
					<polygon id="XMLID_843_" class="st3" points="382.6,387.5 377.9,384.8 374.4,387.7 379,390.4      "/>
					<polygon id="XMLID_842_" class="st3" points="388.2,390.7 383.5,388 380,391 384.6,393.7      "/>
					<polygon id="XMLID_841_" class="st3" points="393.8,394 389.1,391.3 385.6,394.2 390.2,396.9      "/>
					<polygon id="XMLID_840_" class="st3" points="399.4,397.2 394.7,394.5 391.2,397.4 395.8,400.1      "/>
					<polygon id="XMLID_839_" class="st3" points="404.9,400.5 400.3,397.8 396.7,400.7 401.4,403.4      "/>
					<polygon id="XMLID_838_" class="st3" points="410.5,403.7 405.9,401 402.3,403.9 407,406.6      "/>
					<polygon id="XMLID_837_" class="st3" points="411.8,404.5 408.3,407.4 416.4,412.1 420,409.2      "/>
					<polygon id="XMLID_836_" class="st3" points="341.4,370.3 336.8,367.6 333.2,370.5 337.9,373.2      "/>
					<polygon id="XMLID_835_" class="st3" points="347,373.5 342.4,370.8 338.8,373.8 343.5,376.5      "/>
					<polygon id="XMLID_834_" class="st3" points="352.6,376.8 348,374.1 344.4,377 349.1,379.7      "/>
					<polygon id="XMLID_833_" class="st3" points="358.2,380 353.5,377.3 350,380.3 354.6,383      "/>
					<polygon id="XMLID_832_" class="st3" points="363.8,383.3 359.1,380.6 355.6,383.5 360.2,386.2      "/>
					<polygon id="XMLID_831_" class="st3" points="369.4,386.5 364.7,383.8 361.2,386.8 365.8,389.5      "/>
					<polygon id="XMLID_830_" class="st3" points="375,389.8 370.3,387.1 366.8,390 371.4,392.7      "/>
					<polygon id="XMLID_829_" class="st3" points="380.6,393 375.9,390.3 372.4,393.3 377,396      "/>
					<polygon id="XMLID_828_" class="st3" points="386.2,396.3 381.5,393.6 378,396.5 382.6,399.2      "/>
					<polygon id="XMLID_827_" class="st3" points="391.7,399.5 387.1,396.8 383.5,399.8 388.2,402.4      "/>
					<polygon id="XMLID_826_" class="st3" points="397.3,402.8 392.7,400.1 389.1,403 393.8,405.7      "/>
					<polygon id="XMLID_825_" class="st3" points="402.9,406 398.3,403.3 394.7,406.2 399.4,408.9      "/>
					<polygon id="XMLID_824_" class="st3" points="400.3,409.5 405,412.2 408.5,409.3 403.9,406.6      "/>
					<polygon id="XMLID_823_" class="st3" points="337.6,375 333,372.3 329.4,375.2 334.1,377.9      "/>
					<polygon id="XMLID_822_" class="st3" points="343.2,378.2 338.5,375.5 335,378.5 339.6,381.2      "/>
					<polygon id="XMLID_821_" class="st3" points="348.8,381.5 344.1,378.8 340.6,381.7 345.2,384.4      "/>
					<polygon id="XMLID_820_" class="st3" points="354.4,384.7 349.7,382 346.2,385 350.8,387.7      "/>
					<polygon id="XMLID_819_" class="st3" points="360,388 355.3,385.3 351.8,388.2 356.4,390.9      "/>
					<polygon id="XMLID_818_" class="st3" points="365.6,391.2 360.9,388.5 357.4,391.5 362,394.2      "/>
					<polygon id="XMLID_817_" class="st3" points="371.2,394.5 366.5,391.8 363,394.7 367.6,397.4      "/>
					<polygon id="XMLID_816_" class="st3" points="376.7,397.7 372.1,395 368.5,398 373.2,400.7      "/>
					<polygon id="XMLID_815_" class="st3" points="382.3,401 377.7,398.3 374.1,401.2 378.8,403.9      "/>
					<polygon id="XMLID_814_" class="st3" points="387.9,404.2 383.3,401.5 379.7,404.5 384.4,407.2      "/>
					<polygon id="XMLID_813_" class="st3" points="393.5,407.5 388.9,404.8 385.3,407.7 390,410.4      "/>
					<polygon id="XMLID_812_" class="st3" points="399.1,410.7 394.5,408 390.9,411 395.6,413.7      "/>
					<polygon id="XMLID_811_" class="st3" points="334.2,380.2 329.5,377.5 326,380.4 330.6,383.1      "/>
					<polygon id="XMLID_810_" class="st3" points="339.8,383.4 335.1,380.7 331.6,383.7 336.2,386.4      "/>
					<polygon id="XMLID_809_" class="st3" points="337.2,386.9 341.8,389.6 345.4,386.7 340.7,384      "/>
					<polygon id="XMLID_808_" class="st3" points="351,389.9 346.3,387.2 342.8,390.2 347.4,392.9      "/>
					<polygon id="XMLID_807_" class="st3" points="356.6,393.2 351.9,390.5 348.4,393.4 353,396.1      "/>
					<polygon id="XMLID_806_" class="st3" points="362.1,396.4 357.5,393.7 353.9,396.7 358.6,399.4      "/>
					<polygon id="XMLID_805_" class="st3" points="367.7,399.7 363.1,397 359.5,399.9 364.2,402.6      "/>
					<polygon id="XMLID_804_" class="st3" points="373.3,402.9 368.7,400.2 365.1,403.2 369.8,405.9      "/>
					<polygon id="XMLID_803_" class="st3" points="370.7,406.4 375.4,409.1 378.9,406.2 374.3,403.5      "/>
					<polygon id="XMLID_802_" class="st3" points="384.5,409.4 379.9,406.7 376.3,409.7 381,412.4      "/>
					<polygon id="XMLID_801_" class="st3" points="381.9,412.9 386.5,415.6 390.1,412.7 385.5,410      "/>
					<polygon id="XMLID_800_" class="st3" points="395.7,415.9 391,413.2 387.5,416.2 392.1,418.9      "/>
					<polygon id="XMLID_799_" class="st3" points="401.7,419.4 397,416.7 393.5,419.6 398.1,422.3      "/>
					<polygon id="XMLID_798_" class="st3" points="315.5,381 320.2,383.7 323.7,380.8 319.1,378.1      "/>
					<polygon id="XMLID_797_" class="st3" points="322.8,385.3 327.5,388 331,385 326.4,382.3      "/>
					<polygon id="XMLID_796_" class="st3" points="330.7,389.9 335.4,392.6 338.9,389.6 334.3,386.9      "/>
					<polygon id="XMLID_795_" class="st3" points="337.6,393.8 370.6,413 374.2,410.1 341.1,390.9      "/>
					<polygon id="XMLID_794_" class="st3" points="374.4,415.2 379,417.9 382.6,415 377.9,412.3      "/>
					<polygon id="XMLID_793_" class="st3" points="383.2,420.4 387.9,423.1 391.4,420.1 386.8,417.4      "/>
					<polygon id="XMLID_792_" class="st3" points="392.2,425.6 396.9,428.3 400.4,425.3 395.8,422.6      "/>
					<polygon id="XMLID_791_" class="st3" points="396.5,414.2 406.3,419.9 409.9,417 400.1,411.3      "/>
				</g>
			</g>
		</g>
		<g id="XMLID_167_">
			<polygon id="XMLID_170_" class="st4" points="448.2,386.9 410.9,363.6 410.9,358.4 456.9,332.3 494.8,353.1    "/>
			<polygon id="XMLID_169_" class="st3" points="448.2,381.8 410.9,358.4 456.9,327.2 493.1,349.3    "/>
			<polygon id="XMLID_174_" class="st4" points="459.7,366.3 454.7,369.8 430.9,357 430.9,304.5 435.5,300 459.2,312.8    "/>
			<polygon id="XMLID_168_" class="st4" points="454.7,369.8 430.9,357 430.9,304.5 454.7,317.3    "/>
			<polygon id="XMLID_166_" class="st3" points="586,410 581.4,414.5 345.1,283.5 345.1,167.5 349.6,163 586,294.1    "/>
			<polygon id="XMLID_20_" class="st4" points="581.4,414.5 345.1,283.5 345.1,167.5 581.4,298.6    "/>
			<path id="XMLID_164_" class="st4" d="M395,366.3"/>
			<g id="XMLID_326_">
				<polygon id="XMLID_327_" class="st3" points="349.6,174.7 349.6,280.2 486.8,355.6 486.8,250     "/>
				<polygon id="XMLID_328_" class="st2" points="577.7,300 486.8,250 486.8,355.6 577.7,405.5     "/>
			</g>
		</g>
		<path id="XMLID_34_" class="st3" d="M421.4,437.4c0,0,19.5-9.2,27.1-5.9s11.9,13.7,1.7,16.1s-8.9,7.5-15.7,10.9    c-6.8,3.4-19.6,0-20.5-7.8C413.3,442.8,411.3,444.2,421.4,437.4z"/>
		<path id="XMLID_33_" class="st6" d="M421.4,434.9c0,0,19.5-9.2,27.1-5.9s11.9,13.7,1.7,16.1s-8.9,7.5-15.7,10.9    c-6.8,3.4-19.6,0-20.5-7.8C413.3,440.4,411.3,441.7,421.4,434.9z"/>
		<g id="XMLID_42_">
			<path id="XMLID_99_" class="st7" d="M337.6,434.8c0,0,12.8,20.7,22.9,18.6c10.1-2.1,51-17.3,51-17.3s8.4-13.1,18.2-10.6     c9.9,2.4,21.8,4.2,18.5,10c-3.3,5.8-2.1,9.4-6.6,9.1s-12.2,0.9-13.4,2.1c-1.2,1.2-8.1,3.9-11.3,2.7c-3.3-1.2-15.2,5.2-21.2,9     c-6,3.8-23.9,18.9-37.9,18s-41.1-21.7-41.4-23.5S337.6,434.8,337.6,434.8z"/>
			<path id="XMLID_104_" class="st8" d="M263.6,400.4c0,0,31.6-11.7,39.2-17.7c7.5-6,7.9-12.4,18.1-13.2s18.1,3.4,20,4.1     s0.4,8.3-4.5,7.9c-4.9-0.4-6.6,3.8-6.8,4.9s-0.6,4.3-9.4,4.7s-13.3,1.3-17.5,4.5c-4.2,3.2-23,21.7-23,21.7L263.6,400.4z"/>
			<path id="XMLID_106_" class="st8" d="M300.6,296.8c0,0,11.3,12.1,8.5,26.6c-2.8,14.5-0.4,26.7-14.1,34.3     c-13.7,7.5-20.3-1.8-21.8,4.1c-1.5,5.9,0,15.5,0,16.1s-27.5,2.2-26.6-2.5c0.9-4.7-3-8.9-2.7-12.4s3.2-14.5,2.6-20.3     c-0.6-5.8,2.7-24.8,6.1-29S295.6,289.5,300.6,296.8z"/>
			<path id="XMLID_107_" class="st4" d="M298.2,308.2c-11.7,2.2-10.2,6.9-9.5,12.9c1.2,11-13.1,10.6-13.5,22.8     c-0.3,9.4-8.5,16-17.5,11.7c-7.9-3.7-7.2-0.9-13-6c-10.9-9.7-13-23.2-13.6-33c-0.9-15.1-0.9-21.5,12.9-37.6     c8.3-9.7,18.1-13.9,30.4-8.8c10.8,4.5,14.9-1.7,24.9,3c11.6,5.5,5.3,5.9,10.3,15.7C315.1,299.7,309.6,306,298.2,308.2z"/>
			<g id="XMLID_15_">
				<g id="XMLID_380_">
					<g id="XMLID_383_">
						<path id="XMLID_384_" class="st6" d="M203.5,495.9c0,0-17.7-71.6-13.2-102.1c4.5-30.5,20.7-39.9,30.9-39.2s26.4,0.8,30.9,9        s21.1,9,21.1,9s7.9,0,12.4,8.7c4.5,8.7,25.2,12.1,21.1,36.5s-5.3,65.9-2.3,78c3,12.1,20.7,44.8,13.2,54.2        c-7.5,9.4-53.9,23-82.1-1.5C207.2,524.1,210.6,515.9,203.5,495.9z"/>
					</g>
					<g id="XMLID_381_">
						<path id="XMLID_382_" class="st6" d="M310.1,405.7l29.2,25.4c0,0,9.2,7.7,2.6,18.1c-6.6,10.4-18.3,14.6-25.2,9.3        c-7-5.2-30.9-26.3-30.9-36.3c0-10,2.1-17.9,7.2-20.3C298,399.5,304.6,400.9,310.1,405.7z"/>
					</g>
				</g>
			</g>
		</g>
		<g id="XMLID_3_">
			<polygon id="XMLID_10_" class="st5" points="275,622.5 266.2,749.6 269.6,750.1 293.5,625.5    "/>
			<polygon id="XMLID_11_" class="st5" points="357.2,593.5 374.9,686.5 376.9,683.9 371.1,587.5    "/>
			<polygon id="XMLID_12_" class="st5" points="161.8,689.9 177.8,562.2 189.5,570.1 163.3,691    "/>
			<path id="XMLID_16_" class="st9" d="M163.4,534.8c0,0-5.5-42.1-6.3-62.4c-0.8-20.3,3.4-45.2,32.4-30.9c29,14.3,69.8,34.6,81,46.3     c20,20.9,26.4,37.7,31.3,60.3c4.9,22.6,4.1,31.6,17.7,27.9c13.6-3.8,41.2-31.1,56.9-36.5c13.9-4.8,21.1,0.8,23.4,5.7     s15.4,27.1,0,38c-15.4,10.9-37.7,16.6-56.5,27.9s-28.2,17.7-35.8,23.4c-8.4,6.3-20.7,5.7-31.6-3.8c-10.9-9.4-83-49.4-85.9-51.2     C182.4,574.5,166,565.3,163.4,534.8z"/>
		</g>
	</g>
	<g id="XMLID_148_">
		<g id="XMLID_145_">
			<path id="XMLID_36_" class="st2" d="M555.1,453.1c0,0,5.4,13.6,6,16.6s4.6,11.2,15.9,11.5s15.1-2,18.5-10.2     c3.3-8.2,7.4-19.7,6.5-23.2s-3.3-15.2-26.1-12.7S550.8,445.3,555.1,453.1z"/>
			<path id="XMLID_37_" class="st5" d="M563.9,456.2c0,0,19.5,7.5,28.3,0c8.8-7.5,5.8-12.9,2.4-15c-3.3-2.1-22.5-6.8-32.9,0     C551.3,448,563.9,456.2,563.9,456.2z"/>
		</g>
		<path id="XMLID_39_" class="st9" d="M572.5,451.2c0,0,6,3.9,11.3,1.2c5.5-2.7-0.2-10.3,0-13.6c0.2-2.4-0.4-5.9,3.2-5.6    c3.6,0.4,7,0.5,6.8-6.5c-0.2-7,7.5-15.4-3.6-13.6c-3.7,0.6-3.9,4.4-3.9,8.3c0,3.9-3.4,3.4-3.5,0c-0.1-3.4,0-16.3-3-18.3    s-9.2-5.2-11-0.7c-1.8,4.5,1.7,8,3,12.1c1.3,4.1,1.1,9.7-0.8,5.6c-1.9-4.1-4.4-10.6-7.9-7.4s-2.6,6.3-0.8,10.6    c1.8,4.3,4.1,9.5,6.8,8.8s5,0.3,4.7,5.2S570.2,447.7,572.5,451.2z"/>
	</g>
	<g id="XMLID_151_">
		<path id="XMLID_227_" class="st10" d="M492.3,31.1c3.7,2,7.4,3.9,11.1,5.9c0.4,0.2,0.7,0.5,1.1,0.7c5.7,3.4,11.4,7.1,16.9,11.7    c4.6,3.8,9,8.1,12.6,13.3c3.5,5.1,5.7,10.2,5.7,15.1c0,3,0,5.9-0.1,8.9c0,9.6,0,19.3,0,28.9c0,1.2,0,2.3-0.1,3.4    c-0.7,6.7-3.9,10.5-10.3,10.5c-4,0-8.2-1.2-12.7-3.6c-13.2-7-26.4-14-39.6-21c-1.9-1-3.8-1.9-5.7-2.7c-6.4-2.5-11.6-2.4-15.1,1.4    c-2.7,2.9-3.9,7-3.9,12c-0.1,6.4,0,12.9,0,19.4c0,0.3,0,0.6,0,1c-0.4-0.2-0.7-0.4-1-0.5c-4.4-2.4-8.9-4.7-13.3-7.1    c-1.7-0.9-3.4-2.1-5-3.4c-5.7-4.8-9.8-10.8-12.8-17.4c-3.7-8.2-5.2-16-6-23.5c-0.2-1.9-0.3-3.7-0.5-5.6c0-3.2,0-6.4,0-9.6    c0.2-1.6,0.3-3.2,0.5-4.7c0.6-5.1,1.8-9.8,4.1-13.6c2.5-4,6-6.4,11.3-6.4c3.9,0,8,1.6,12.4,3.9c18.6,10,37.2,19.8,55.8,29.7    c0.3,0.2,0.7,0.3,1,0.5c0-1.9,0-3.8,0-5.8c-13.7-7.3-27.4-14.6-41.1-21.9c0-0.4,0-0.8,0-1.1c0-6,0-12.1-0.1-18.2    c0-2.8,0.7-4.9,2.4-6.3c1.9-1.6,4.4-2.1,7.2-2.1c6.1,0.1,12.8,2.5,19.5,5.4C488.4,29.4,490.3,30.3,492.3,31.1z M475.2,49.9    c4.1,2.1,7.4,0.6,7.3-3.5c0-4.1-3.3-9.1-7.4-11.3c-4-2.1-7.4-0.5-7.3,3.5C467.9,42.7,471.2,47.8,475.2,49.9z"/>
		<path id="XMLID_224_" class="st11" d="M502,205.5c-1.9-1-3.7-2-5.6-3c-0.4-0.2-0.8-0.5-1.1-0.7c-4.2-2.6-8.5-5.1-12.7-8    c-5.1-3.4-10-7.5-14.6-12.5c-4.2-4.5-7.6-9.4-9.4-14.9c-1-2.8-1.1-5.3-1.1-7.8c0.1-12,0-24.1,0-36.1c0-1.7,0.1-3.4,0.3-4.9    c0.9-5.2,3.5-8.4,8.4-9c4.5-0.6,9.6,0.9,15,3.8c13.1,7,26.2,14,39.4,20.9c2,1,4,2,5.9,2.7c5.5,2.1,10.2,2.1,13.6-0.7    c3.2-2.6,4.7-6.8,4.9-12.1c0.2-6.7,0.1-13.5,0.1-20.2c0-0.3,0-0.6,0-1.1c0.4,0.2,0.7,0.4,1.1,0.6c4.2,2.3,8.5,4.5,12.7,6.8    c1,0.5,1.9,1,2.9,1.7c5.3,3.6,9.4,8.5,12.8,14.3c3.9,6.7,5.9,13.3,7.3,19.9c0.4,2.2,0.8,4.4,1.1,6.6c0,7.9,0,15.9,0,23.8    c-0.1,0.2-0.1,0.4-0.2,0.6c-0.6,3.6-1.5,6.9-3,9.7c-2.1,4.1-5.1,7-9.8,7.8c-4.4,0.7-9.2-0.7-14.5-3.6    c-18.7-10.1-37.5-20-56.2-29.9c-0.3-0.2-0.6-0.3-0.9-0.5c0,2,0,3.9,0,5.8c13.7,7.3,27.4,14.6,41.1,21.9c0,0.4,0,0.8,0,1.1    c0,6-0.1,11.9,0.1,18c0.1,3.7-1.2,6-3.6,7.3c-2,1.1-4.5,1.4-7.1,1.2c-6.8-0.5-14.1-3.3-21.4-6.7    C505.7,207.3,503.8,206.4,502,205.5z M521.8,188.2c-4-2.1-7.4-0.6-7.4,3.4c0,4,3.4,9.2,7.4,11.4c4,2.1,7.4,0.6,7.4-3.4    C529.3,195.5,525.9,190.3,521.8,188.2z"/>
	</g>
	<g id="XMLID_108_">
		<polygon id="XMLID_173_" class="st9" points="357.3,189.7 357.3,193.1 385.9,208.7 385.9,205.3   "/>
	</g>
	<g id="XMLID_176_">
		<g id="XMLID_358_">
			<g id="XMLID_360_">
				<polygon id="XMLID_361_" class="st4" points="468.2,244.4 468.2,282.2 479.3,288.3 479.3,250.6     "/>
			</g>
		</g>
	</g>
	<g id="XMLID_171_">
		<polygon id="XMLID_189_" class="st6" points="357.3,197.4 357.3,200.8 441.2,246.6 441.2,243.2   "/>
	</g>
	<g id="XMLID_172_">
		<polygon id="XMLID_202_" class="st9" points="357.3,251 357.3,254.4 374.1,263.6 374.1,260.3   "/>
	</g>
	<g id="XMLID_157_">
		<g id="XMLID_340_">
			<g id="XMLID_356_">
				<polygon id="XMLID_357_" class="st6" points="357.3,258.7 357.3,262.1 420,296.4 420,293     "/>
			</g>
		</g>
	</g>
	<g id="XMLID_177_">
		<g id="XMLID_335_">
			<g id="XMLID_336_">
				<polygon id="XMLID_337_" class="st6" points="357.3,266.4 357.3,269.8 408.3,297.6 408.3,294.2     "/>
			</g>
		</g>
	</g>
	<g id="XMLID_206_">
		<polygon id="XMLID_212_" class="st6" points="357.3,205 357.3,208.4 395.6,229.4 395.6,226   "/>
	</g>
	<g id="XMLID_217_">
		<polygon id="XMLID_233_" class="st6" points="357.3,212.7 357.3,216.1 409.7,244.8 409.7,241.4   "/>
	</g>
	<g id="XMLID_209_">
		<g id="XMLID_329_">
			<g id="XMLID_332_">
				<polygon id="XMLID_333_" class="st6" points="357.3,220.4 357.3,223.8 420,258 420,254.6     "/>
			</g>
		</g>
	</g>
	<g id="XMLID_205_">
		<g id="XMLID_312_">
			<g id="XMLID_313_">
				<polygon id="XMLID_314_" class="st6" points="357.3,228 357.3,231.4 402.2,256 402.2,252.6     "/>
			</g>
		</g>
	</g>
	<g id="XMLID_154_">
		<polygon id="XMLID_246_" class="st9" points="357.3,235.7 357.3,239.1 376.4,249.6 376.4,246.2   "/>
	</g>
	<polygon id="XMLID_210_" class="st1" points="553.3,377.3 505.2,350.8 505.2,277 553.3,303.5  "/>
	<polygon id="XMLID_133_" class="st2" points="544.7,331.3 509.3,311.6 509.3,285.9 544.7,305.6  "/>
	<polygon id="XMLID_136_" class="st2" points="544.7,339.3 509.3,319.6 509.3,316.6 544.7,336.3  "/>
</g>
</svg>