<svg xmlns="http://www.w3.org/2000/svg" xmlns:xlink="http://www.w3.org/1999/xlink" version="1.1" id="Layer_1" x="0px" y="0px" viewBox="0 0 1920 1080" style="enable-background:new 0 0 1920 1080;" xml:space="preserve">
<style type="text/css">
	.st0{fill:#0B538C;}
	.st1{fill:#4C8DCB;}
	.st2{fill:#D3D3D3;}
	.st3{fill:#084970;}
	.st4{fill:#F2F2F3;}
	.st5{fill:#FDBD57;}
	.st6{fill:#FAB9AF;}
	.st7{opacity:0.17;}
	.st8{opacity:0.38;}
	.st9{opacity:0.25;}
	.st10{fill:#FFFFFF;}
</style>
<g>
	<polygon class="st5" points="894.68,748.86 894.68,668.65 949.17,668.65 949.17,629.17 949.17,597.55 973.56,597.55 973.56,629.17    989.21,629.17 989.21,550.4 1043.7,550.4 1043.7,512.19 1058.9,512.19 1058.9,473.98 1066.26,473.98 1066.26,422.31    1071.55,422.31 1071.55,473.98 1078.92,473.98 1078.92,512.19 1094.11,512.19 1094.11,565.93 1114.83,565.93 1114.83,499.3    1202.34,463.74 1202.34,565.93 1207.82,565.93 1217.02,565.93 1217.02,489.52 1230.53,489.52 1230.53,463.28 1242.19,463.28    1242.19,438.42 1265.05,438.42 1265.05,463.28 1276.71,463.28 1276.71,489.52 1290.22,489.52 1290.22,565.93 1306.6,565.93    1314.9,565.93 1314.9,522.2 1314.9,487.21 1339.79,487.21 1339.79,522.2 1354.21,522.2 1354.21,565.93 1393.16,565.93    1393.16,550.4 1432.46,550.4 1432.46,615.65 1471.77,615.65 1471.77,649.54 1491.42,649.54 1491.42,786.9 1471.77,786.9    1452.12,786.9 1432.46,786.9 1393.16,786.9 1354.21,786.9 1339.79,786.9 1314.9,786.9 1306.6,786.9 1265.05,786.9 1207.82,786.9    1172.57,786.9 1094.11,786.9 1064.19,786.9 1043.7,786.9 1003.66,786.9 989.21,786.9 949.17,786.9 921.92,786.9 894.68,786.9    867.43,786.9 867.43,748.86  "/>
	<polygon class="st7" points="894.68,748.86 894.68,668.65 949.17,668.65 949.17,629.17 949.17,597.55 973.56,597.55 973.56,629.17    989.21,629.17 989.21,550.4 1043.7,550.4 1043.7,512.19 1058.9,512.19 1058.9,473.98 1066.26,473.98 1066.26,422.31    1071.55,422.31 1071.55,473.98 1078.92,473.98 1078.92,512.19 1094.11,512.19 1094.11,565.93 1114.83,565.93 1114.83,499.3    1202.34,463.74 1202.34,565.93 1207.82,565.93 1217.02,565.93 1217.02,489.52 1230.53,489.52 1230.53,463.28 1242.19,463.28    1242.19,438.42 1265.05,438.42 1265.05,463.28 1276.71,463.28 1276.71,489.52 1290.22,489.52 1290.22,565.93 1306.6,565.93    1314.9,565.93 1314.9,522.2 1314.9,487.21 1339.79,487.21 1339.79,522.2 1354.21,522.2 1354.21,565.93 1393.16,565.93    1393.16,550.4 1432.46,550.4 1432.46,615.65 1471.77,615.65 1471.77,649.54 1491.42,649.54 1491.42,786.9 1471.77,786.9    1452.12,786.9 1432.46,786.9 1393.16,786.9 1354.21,786.9 1339.79,786.9 1314.9,786.9 1306.6,786.9 1265.05,786.9 1207.82,786.9    1172.57,786.9 1094.11,786.9 1064.19,786.9 1043.7,786.9 1003.66,786.9 989.21,786.9 949.17,786.9 921.92,786.9 894.68,786.9    867.43,786.9 867.43,748.86  "/>
	<polygon class="st5" points="823.22,761.74 823.22,708.7 787.18,708.7 787.18,682.59 787.18,661.68 771.05,661.68 771.05,682.59    760.7,682.59 760.7,630.5 724.66,630.5 724.66,605.23 714.62,605.23 714.62,579.96 709.75,579.96 709.75,545.79 706.25,545.79    706.25,579.96 701.37,579.96 701.37,605.23 691.33,605.23 691.33,640.77 677.63,640.77 677.63,596.7 619.76,573.19 619.76,640.77    616.13,640.77 610.04,640.77 610.04,590.23 601.11,590.23 601.11,572.88 593.4,572.88 593.4,556.44 578.28,556.44 578.28,572.88    570.57,572.88 570.57,590.23 561.64,590.23 561.64,640.77 550.81,640.77 545.31,640.77 545.31,611.85 545.31,588.71 528.86,588.71    528.86,611.85 519.32,611.85 519.32,640.77 493.56,640.77 493.56,630.5 467.57,630.5 467.57,673.65 441.58,673.65 441.58,696.06    428.58,696.06 428.58,786.9 441.58,786.9 454.57,786.9 467.57,786.9 493.56,786.9 519.32,786.9 528.86,786.9 545.31,786.9    550.81,786.9 578.28,786.9 616.13,786.9 639.45,786.9 691.33,786.9 711.12,786.9 724.66,786.9 751.14,786.9 760.7,786.9    787.18,786.9 805.2,786.9 823.22,786.9 841.24,786.9 841.24,761.74  "/>
	<polygon class="st8" points="823.22,761.74 823.22,708.7 787.18,708.7 787.18,682.59 787.18,661.68 771.05,661.68 771.05,682.59    760.7,682.59 760.7,630.5 724.66,630.5 724.66,605.23 714.62,605.23 714.62,579.96 709.75,579.96 709.75,545.79 706.25,545.79    706.25,579.96 701.37,579.96 701.37,605.23 691.33,605.23 691.33,640.77 677.63,640.77 677.63,596.7 619.76,573.19 619.76,640.77    616.13,640.77 610.04,640.77 610.04,590.23 601.11,590.23 601.11,572.88 593.4,572.88 593.4,556.44 578.28,556.44 578.28,572.88    570.57,572.88 570.57,590.23 561.64,590.23 561.64,640.77 550.81,640.77 545.31,640.77 545.31,611.85 545.31,588.71 528.86,588.71    528.86,611.85 519.32,611.85 519.32,640.77 493.56,640.77 493.56,630.5 467.57,630.5 467.57,673.65 441.58,673.65 441.58,696.06    428.58,696.06 428.58,786.9 441.58,786.9 454.57,786.9 467.57,786.9 493.56,786.9 519.32,786.9 528.86,786.9 545.31,786.9    550.81,786.9 578.28,786.9 616.13,786.9 639.45,786.9 691.33,786.9 711.12,786.9 724.66,786.9 751.14,786.9 760.7,786.9    787.18,786.9 805.2,786.9 823.22,786.9 841.24,786.9 841.24,761.74  "/>
	<polygon class="st5" points="1351.71,738.5 1351.71,636.44 1282.37,636.44 1282.37,586.22 1282.37,545.98 1251.34,545.98    1251.34,586.22 1231.43,586.22 1231.43,485.98 1162.09,485.98 1162.09,437.37 1142.76,437.37 1142.76,388.76 1133.39,388.76    1133.39,323.01 1126.66,323.01 1126.66,388.76 1117.28,388.76 1117.28,437.37 1097.95,437.37 1097.95,505.75 1071.6,505.75    1071.6,420.97 960.26,375.72 960.26,505.75 953.28,505.75 941.57,505.75 941.57,408.52 924.39,408.52 924.39,375.14 909.55,375.14    909.55,343.51 880.46,343.51 880.46,375.14 865.62,375.14 865.62,408.52 848.44,408.52 848.44,505.75 827.59,505.75 817.03,505.75    817.03,450.11 817.03,405.59 785.36,405.59 785.36,450.11 767.02,450.11 767.02,505.75 717.46,505.75 717.46,485.98 667.45,485.98    667.45,569.01 617.44,569.01 617.44,612.13 592.44,612.13 592.44,786.9 617.44,786.9 642.45,786.9 667.45,786.9 717.46,786.9    767.02,786.9 785.36,786.9 817.03,786.9 827.59,786.9 880.46,786.9 953.28,786.9 998.13,786.9 1097.95,786.9 1136.03,786.9    1162.09,786.9 1213.04,786.9 1231.43,786.9 1282.37,786.9 1317.04,786.9 1351.71,786.9 1386.37,786.9 1386.37,738.5  "/>
	<polygon class="st1" points="1034.14,266.97 1034.14,209.68 1028.85,209.68 1028.85,266.97 1000.16,266.97 1000.16,786.9    1062.84,786.9 1062.84,266.97  "/>
	<polygon class="st9" points="1034.14,266.97 1034.14,209.68 1028.85,209.68 1028.85,266.97 1000.16,266.97 1000.16,786.9    1062.84,786.9 1062.84,266.97  "/>
	<g>
		<rect x="628.22" y="647.64" class="st6" width="87.39" height="139.26"/>
		<g>
			<g>
				<rect x="637.39" y="657.46" class="st4" width="13.15" height="13.15"/>
				<rect x="656.02" y="657.46" class="st4" width="13.15" height="13.15"/>
				<rect x="674.66" y="657.46" class="st4" width="13.15" height="13.15"/>
				<rect x="693.29" y="657.46" class="st4" width="13.15" height="13.15"/>
			</g>
			<g>
				<rect x="637.39" y="676.81" class="st4" width="13.15" height="13.15"/>
				<rect x="656.02" y="676.81" class="st4" width="13.15" height="13.15"/>
				<rect x="674.66" y="676.81" class="st4" width="13.15" height="13.15"/>
				<rect x="693.29" y="676.81" class="st4" width="13.15" height="13.15"/>
			</g>
			<g>
				<rect x="637.39" y="696.16" class="st4" width="13.15" height="13.15"/>
				<rect x="656.02" y="696.16" class="st4" width="13.15" height="13.15"/>
				<rect x="674.66" y="696.16" class="st4" width="13.15" height="13.15"/>
				<rect x="693.29" y="696.16" class="st4" width="13.15" height="13.15"/>
			</g>
			<g>
				<rect x="637.39" y="715.51" class="st4" width="13.15" height="13.15"/>
				<rect x="656.02" y="715.51" class="st4" width="13.15" height="13.15"/>
				<rect x="674.66" y="715.51" class="st4" width="13.15" height="13.15"/>
				<rect x="693.29" y="715.51" class="st4" width="13.15" height="13.15"/>
			</g>
			<g>
				<rect x="637.39" y="734.85" class="st4" width="13.15" height="13.15"/>
				<rect x="656.02" y="734.85" class="st4" width="13.15" height="13.15"/>
				<rect x="674.66" y="734.85" class="st4" width="13.15" height="13.15"/>
				<rect x="693.29" y="734.85" class="st4" width="13.15" height="13.15"/>
			</g>
			<g>
				<rect x="637.39" y="754.2" class="st4" width="13.15" height="13.15"/>
				<rect x="656.02" y="754.2" class="st4" width="13.15" height="13.15"/>
				<rect x="674.66" y="754.2" class="st4" width="13.15" height="13.15"/>
				<rect x="693.29" y="754.2" class="st4" width="13.15" height="13.15"/>
			</g>
		</g>
	</g>
	<rect x="802.18" y="447.67" class="st1" width="87.39" height="339.23"/>
	<rect x="889.58" y="515.1" class="st1" width="110.58" height="271.8"/>
	<rect x="1062.84" y="502.15" class="st3" width="145.92" height="284.75"/>
	<polygon class="st1" points="1325.68,661.26 1208.76,619.46 1208.76,786.9 1325.68,786.9  "/>
	<g>
		<rect x="714.79" y="579.87" class="st0" width="87.39" height="207.03"/>
		<g>
			<rect x="721.95" y="588.4" class="st1" width="73.08" height="2.92"/>
			<rect x="721.95" y="597.17" class="st1" width="73.08" height="2.92"/>
			<rect x="721.95" y="605.94" class="st1" width="73.08" height="2.92"/>
			<rect x="721.95" y="614.71" class="st1" width="73.08" height="2.92"/>
			<rect x="721.95" y="623.48" class="st1" width="73.08" height="2.92"/>
			<rect x="721.95" y="632.25" class="st1" width="73.08" height="2.92"/>
			<rect x="721.95" y="641.02" class="st1" width="73.08" height="2.92"/>
			<rect x="721.95" y="649.79" class="st1" width="73.08" height="2.92"/>
			<rect x="721.95" y="658.56" class="st1" width="73.08" height="2.92"/>
			<rect x="721.95" y="667.33" class="st1" width="73.08" height="2.92"/>
			<rect x="721.95" y="676.1" class="st1" width="73.08" height="2.92"/>
			<rect x="721.95" y="684.86" class="st1" width="73.08" height="2.92"/>
			<rect x="721.95" y="693.63" class="st1" width="73.08" height="2.92"/>
			<rect x="721.95" y="702.4" class="st1" width="73.08" height="2.92"/>
			<rect x="721.95" y="711.17" class="st1" width="73.08" height="2.92"/>
			<rect x="721.95" y="719.94" class="st1" width="73.08" height="2.92"/>
			<rect x="721.95" y="728.71" class="st1" width="73.08" height="2.92"/>
			<rect x="721.95" y="737.48" class="st1" width="73.08" height="2.92"/>
			<rect x="721.95" y="746.25" class="st1" width="73.08" height="2.92"/>
		</g>
	</g>
	<rect x="802.18" y="447.67" class="st9" width="87.39" height="339.23"/>
	<g>
		<g>
			<rect x="810.26" y="458.32" class="st5" width="13.15" height="13.15"/>
			<rect x="829.62" y="458.32" class="st5" width="13.15" height="13.15"/>
			<rect x="848.99" y="458.32" class="st5" width="13.15" height="13.15"/>
			<rect x="868.35" y="458.32" class="st5" width="13.15" height="13.15"/>
		</g>
		<g>
			<rect x="810.26" y="477.69" class="st5" width="13.15" height="13.15"/>
			<rect x="829.62" y="477.69" class="st5" width="13.15" height="13.15"/>
			<rect x="848.99" y="477.69" class="st5" width="13.15" height="13.15"/>
			<rect x="868.35" y="477.69" class="st5" width="13.15" height="13.15"/>
		</g>
		<g>
			<rect x="810.26" y="497.05" class="st5" width="13.15" height="13.15"/>
			<rect x="829.62" y="497.05" class="st5" width="13.15" height="13.15"/>
			<rect x="848.99" y="497.05" class="st5" width="13.15" height="13.15"/>
			<rect x="868.35" y="497.05" class="st5" width="13.15" height="13.15"/>
		</g>
		<g>
			<rect x="810.26" y="516.42" class="st5" width="13.15" height="13.15"/>
			<rect x="829.62" y="516.42" class="st5" width="13.15" height="13.15"/>
			<rect x="848.99" y="516.42" class="st5" width="13.15" height="13.15"/>
			<rect x="868.35" y="516.42" class="st5" width="13.15" height="13.15"/>
		</g>
		<g>
			<rect x="810.26" y="535.79" class="st5" width="13.15" height="13.15"/>
			<rect x="829.62" y="535.79" class="st5" width="13.15" height="13.15"/>
			<rect x="848.99" y="535.79" class="st5" width="13.15" height="13.15"/>
			<rect x="868.35" y="535.79" class="st5" width="13.15" height="13.15"/>
		</g>
		<g>
			<rect x="810.26" y="555.15" class="st5" width="13.15" height="13.15"/>
			<rect x="829.62" y="555.15" class="st5" width="13.15" height="13.15"/>
			<rect x="848.99" y="555.15" class="st5" width="13.15" height="13.15"/>
			<rect x="868.35" y="555.15" class="st5" width="13.15" height="13.15"/>
		</g>
		<g>
			<rect x="810.26" y="574.52" class="st5" width="13.15" height="13.15"/>
			<rect x="829.62" y="574.52" class="st5" width="13.15" height="13.15"/>
			<rect x="848.99" y="574.52" class="st5" width="13.15" height="13.15"/>
			<rect x="868.35" y="574.52" class="st5" width="13.15" height="13.15"/>
		</g>
		<g>
			<rect x="810.26" y="593.88" class="st5" width="13.15" height="13.15"/>
			<rect x="829.62" y="593.88" class="st5" width="13.15" height="13.15"/>
			<rect x="848.99" y="593.88" class="st5" width="13.15" height="13.15"/>
			<rect x="868.35" y="593.88" class="st5" width="13.15" height="13.15"/>
		</g>
		<g>
			<rect x="810.26" y="613.25" class="st5" width="13.15" height="13.15"/>
			<rect x="829.62" y="613.25" class="st5" width="13.15" height="13.15"/>
			<rect x="848.99" y="613.25" class="st5" width="13.15" height="13.15"/>
			<rect x="868.35" y="613.25" class="st5" width="13.15" height="13.15"/>
		</g>
		<g>
			<rect x="810.26" y="632.61" class="st5" width="13.15" height="13.15"/>
			<rect x="829.62" y="632.61" class="st5" width="13.15" height="13.15"/>
			<rect x="848.99" y="632.61" class="st5" width="13.15" height="13.15"/>
			<rect x="868.35" y="632.61" class="st5" width="13.15" height="13.15"/>
		</g>
		<g>
			<rect x="810.26" y="651.98" class="st5" width="13.15" height="13.15"/>
			<rect x="829.62" y="651.98" class="st5" width="13.15" height="13.15"/>
			<rect x="848.99" y="651.98" class="st5" width="13.15" height="13.15"/>
			<rect x="868.35" y="651.98" class="st5" width="13.15" height="13.15"/>
		</g>
		<g>
			<rect x="810.26" y="671.35" class="st5" width="13.15" height="13.15"/>
			<rect x="829.62" y="671.35" class="st5" width="13.15" height="13.15"/>
			<rect x="848.99" y="671.35" class="st5" width="13.15" height="13.15"/>
			<rect x="868.35" y="671.35" class="st5" width="13.15" height="13.15"/>
		</g>
		<g>
			<rect x="810.26" y="690.71" class="st5" width="13.15" height="13.15"/>
			<rect x="829.62" y="690.71" class="st5" width="13.15" height="13.15"/>
			<rect x="848.99" y="690.71" class="st5" width="13.15" height="13.15"/>
			<rect x="868.35" y="690.71" class="st5" width="13.15" height="13.15"/>
		</g>
		<g>
			<rect x="810.26" y="710.08" class="st5" width="13.15" height="13.15"/>
			<rect x="829.62" y="710.08" class="st5" width="13.15" height="13.15"/>
			<rect x="848.99" y="710.08" class="st5" width="13.15" height="13.15"/>
			<rect x="868.35" y="710.08" class="st5" width="13.15" height="13.15"/>
		</g>
		<g>
			<rect x="810.26" y="729.44" class="st5" width="13.15" height="13.15"/>
			<rect x="829.62" y="729.44" class="st5" width="13.15" height="13.15"/>
			<rect x="848.99" y="729.44" class="st5" width="13.15" height="13.15"/>
			<rect x="868.35" y="729.44" class="st5" width="13.15" height="13.15"/>
		</g>
		<g>
			<rect x="810.26" y="748.81" class="st5" width="13.15" height="13.15"/>
			<rect x="829.62" y="748.81" class="st5" width="13.15" height="13.15"/>
			<rect x="848.99" y="748.81" class="st5" width="13.15" height="13.15"/>
			<rect x="868.35" y="748.81" class="st5" width="13.15" height="13.15"/>
		</g>
	</g>
	<g>
		<rect x="1010.68" y="282.82" class="st4" width="41.64" height="5.85"/>
		<rect x="1010.68" y="295.24" class="st4" width="41.64" height="5.85"/>
		<rect x="1010.68" y="307.66" class="st4" width="41.64" height="5.85"/>
		<rect x="1010.68" y="320.09" class="st4" width="41.64" height="5.85"/>
		<rect x="1010.68" y="336.28" class="st4" width="10.59" height="10.59"/>
		<rect x="1026.2" y="336.28" class="st4" width="10.59" height="10.59"/>
		<rect x="1041.73" y="336.28" class="st4" width="10.59" height="10.59"/>
		<rect x="1010.68" y="352.18" class="st4" width="10.59" height="10.59"/>
		<rect x="1026.2" y="352.18" class="st4" width="10.59" height="10.59"/>
		<rect x="1041.73" y="352.18" class="st4" width="10.59" height="10.59"/>
		<rect x="1010.68" y="368.07" class="st4" width="10.59" height="10.59"/>
		<rect x="1026.2" y="368.07" class="st4" width="10.59" height="10.59"/>
		<rect x="1041.73" y="368.07" class="st4" width="10.59" height="10.59"/>
		<rect x="1010.68" y="383.97" class="st4" width="10.59" height="10.59"/>
		<rect x="1026.2" y="383.97" class="st4" width="10.59" height="10.59"/>
		<rect x="1041.73" y="383.97" class="st4" width="10.59" height="10.59"/>
		<rect x="1010.68" y="399.86" class="st4" width="10.59" height="10.59"/>
		<rect x="1026.2" y="399.86" class="st4" width="10.59" height="10.59"/>
		<rect x="1041.73" y="399.86" class="st4" width="10.59" height="10.59"/>
		<rect x="1010.68" y="415.76" class="st4" width="10.59" height="10.59"/>
		<rect x="1026.2" y="415.76" class="st4" width="10.59" height="10.59"/>
		<rect x="1041.73" y="415.76" class="st4" width="10.59" height="10.59"/>
		<rect x="1010.68" y="431.65" class="st4" width="10.59" height="10.59"/>
		<rect x="1026.2" y="431.65" class="st4" width="10.59" height="10.59"/>
		<rect x="1041.73" y="431.65" class="st4" width="10.59" height="10.59"/>
		<rect x="1010.68" y="447.54" class="st4" width="10.59" height="10.59"/>
		<rect x="1026.2" y="447.54" class="st4" width="10.59" height="10.59"/>
		<rect x="1041.73" y="447.54" class="st4" width="10.59" height="10.59"/>
		<rect x="1010.68" y="463.44" class="st4" width="10.59" height="10.59"/>
		<rect x="1026.2" y="463.44" class="st4" width="10.59" height="10.59"/>
		<rect x="1041.73" y="463.44" class="st4" width="10.59" height="10.59"/>
		<rect x="1010.68" y="479.33" class="st4" width="10.59" height="10.59"/>
		<rect x="1026.2" y="479.33" class="st4" width="10.59" height="10.59"/>
		<rect x="1041.73" y="479.33" class="st4" width="10.59" height="10.59"/>
		<rect x="1010.68" y="495.23" class="st4" width="10.59" height="10.59"/>
		<rect x="1026.2" y="495.23" class="st4" width="10.59" height="10.59"/>
		<rect x="1041.73" y="495.23" class="st4" width="10.59" height="10.59"/>
		<rect x="1010.68" y="511.12" class="st4" width="10.59" height="10.59"/>
		<rect x="1026.2" y="511.12" class="st4" width="10.59" height="10.59"/>
		<rect x="1041.73" y="511.12" class="st4" width="10.59" height="10.59"/>
		<rect x="1010.68" y="527.02" class="st4" width="10.59" height="10.59"/>
		<rect x="1026.2" y="527.02" class="st4" width="10.59" height="10.59"/>
		<rect x="1041.73" y="527.02" class="st4" width="10.59" height="10.59"/>
		<rect x="1010.68" y="542.91" class="st4" width="10.59" height="10.59"/>
		<rect x="1026.2" y="542.91" class="st4" width="10.59" height="10.59"/>
		<rect x="1041.73" y="542.91" class="st4" width="10.59" height="10.59"/>
		<rect x="1010.68" y="558.81" class="st4" width="10.59" height="10.59"/>
		<rect x="1026.2" y="558.81" class="st4" width="10.59" height="10.59"/>
		<rect x="1041.73" y="558.81" class="st4" width="10.59" height="10.59"/>
		<rect x="1010.68" y="574.7" class="st4" width="10.59" height="10.59"/>
		<rect x="1026.2" y="574.7" class="st4" width="10.59" height="10.59"/>
		<rect x="1041.73" y="574.7" class="st4" width="10.59" height="10.59"/>
		<rect x="1010.68" y="590.59" class="st4" width="10.59" height="10.59"/>
		<rect x="1026.2" y="590.59" class="st4" width="10.59" height="10.59"/>
		<rect x="1041.73" y="590.59" class="st4" width="10.59" height="10.59"/>
		<rect x="1010.68" y="606.49" class="st4" width="10.59" height="10.59"/>
		<rect x="1026.2" y="606.49" class="st4" width="10.59" height="10.59"/>
		<rect x="1041.73" y="606.49" class="st4" width="10.59" height="10.59"/>
		<rect x="1010.68" y="622.38" class="st4" width="10.59" height="10.59"/>
		<rect x="1026.2" y="622.38" class="st4" width="10.59" height="10.59"/>
		<rect x="1041.73" y="622.38" class="st4" width="10.59" height="10.59"/>
		<rect x="1010.68" y="638.28" class="st4" width="10.59" height="10.59"/>
		<rect x="1026.2" y="638.28" class="st4" width="10.59" height="10.59"/>
		<rect x="1041.73" y="638.28" class="st4" width="10.59" height="10.59"/>
		<rect x="1010.68" y="654.17" class="st4" width="10.59" height="10.59"/>
		<rect x="1026.2" y="654.17" class="st4" width="10.59" height="10.59"/>
		<rect x="1041.73" y="654.17" class="st4" width="10.59" height="10.59"/>
		<rect x="1010.68" y="670.07" class="st4" width="10.59" height="10.59"/>
		<rect x="1026.2" y="670.07" class="st4" width="10.59" height="10.59"/>
		<rect x="1041.73" y="670.07" class="st4" width="10.59" height="10.59"/>
		<rect x="1010.68" y="685.96" class="st4" width="10.59" height="10.59"/>
		<rect x="1026.2" y="685.96" class="st4" width="10.59" height="10.59"/>
		<rect x="1041.73" y="685.96" class="st4" width="10.59" height="10.59"/>
		<rect x="1010.68" y="701.86" class="st4" width="10.59" height="10.59"/>
		<rect x="1026.2" y="701.86" class="st4" width="10.59" height="10.59"/>
		<rect x="1041.73" y="701.86" class="st4" width="10.59" height="10.59"/>
		<rect x="1010.68" y="717.75" class="st4" width="10.59" height="10.59"/>
		<rect x="1026.2" y="717.75" class="st4" width="10.59" height="10.59"/>
		<rect x="1041.73" y="717.75" class="st4" width="10.59" height="10.59"/>
		<rect x="1010.68" y="733.64" class="st4" width="10.59" height="10.59"/>
		<rect x="1026.2" y="733.64" class="st4" width="10.59" height="10.59"/>
		<rect x="1041.73" y="733.64" class="st4" width="10.59" height="10.59"/>
		<rect x="1010.68" y="749.54" class="st4" width="10.59" height="10.59"/>
		<rect x="1026.2" y="749.54" class="st4" width="10.59" height="10.59"/>
		<rect x="1041.73" y="749.54" class="st4" width="10.59" height="10.59"/>
	</g>
	<g>
		<rect x="1074.66" y="515.1" class="st5" width="4.38" height="218.54"/>
		<rect x="1085.38" y="515.1" class="st5" width="4.38" height="218.54"/>
		<rect x="1096.09" y="515.1" class="st5" width="4.38" height="218.54"/>
		<rect x="1106.81" y="515.1" class="st5" width="4.38" height="218.54"/>
		<rect x="1117.53" y="515.1" class="st5" width="4.38" height="218.54"/>
		<rect x="1128.25" y="515.1" class="st5" width="4.38" height="218.54"/>
		<rect x="1138.97" y="515.1" class="st5" width="4.38" height="218.54"/>
		<rect x="1149.68" y="515.1" class="st5" width="4.38" height="218.54"/>
		<rect x="1160.4" y="515.1" class="st5" width="4.38" height="218.54"/>
		<rect x="1171.12" y="515.1" class="st5" width="4.38" height="218.54"/>
		<rect x="1181.84" y="515.1" class="st5" width="4.38" height="218.54"/>
		<rect x="1192.56" y="515.1" class="st5" width="4.38" height="218.54"/>
	</g>
	<rect x="1117.53" y="771.46" class="st5" width="36.54" height="15.44"/>
	<g>
		<rect x="903.92" y="532.31" class="st4" width="81.9" height="6.31"/>
		<rect x="903.92" y="545.79" class="st4" width="81.9" height="6.31"/>
		<rect x="903.92" y="559.26" class="st4" width="81.9" height="6.31"/>
		<rect x="903.92" y="572.74" class="st4" width="81.9" height="6.31"/>
		<rect x="903.92" y="586.21" class="st4" width="81.9" height="6.31"/>
		<rect x="903.92" y="599.69" class="st4" width="81.9" height="6.31"/>
		<rect x="903.92" y="613.17" class="st4" width="81.9" height="6.31"/>
		<rect x="903.92" y="626.64" class="st4" width="81.9" height="6.31"/>
		<rect x="903.92" y="640.12" class="st4" width="81.9" height="6.31"/>
		<rect x="903.92" y="653.59" class="st4" width="81.9" height="6.31"/>
		<rect x="903.92" y="667.07" class="st4" width="81.9" height="6.31"/>
		<rect x="903.92" y="680.54" class="st4" width="81.9" height="6.31"/>
		<rect x="903.92" y="694.02" class="st4" width="81.9" height="6.31"/>
		<rect x="903.92" y="707.5" class="st4" width="81.9" height="6.31"/>
		<rect x="903.92" y="720.97" class="st4" width="81.9" height="6.31"/>
		<rect x="903.92" y="734.45" class="st4" width="81.9" height="6.31"/>
		<rect x="903.92" y="747.92" class="st4" width="81.9" height="6.31"/>
	</g>
	<rect x="1221.78" y="678.38" class="st6" width="11.42" height="11.42"/>
	<rect x="1237.67" y="678.38" class="st6" width="11.42" height="11.42"/>
	<rect x="1253.57" y="678.38" class="st6" width="11.42" height="11.42"/>
	<rect x="1269.46" y="678.38" class="st6" width="11.42" height="11.42"/>
	<rect x="1285.36" y="678.38" class="st6" width="11.42" height="11.42"/>
	<rect x="1301.25" y="678.38" class="st6" width="11.42" height="11.42"/>
	<rect x="1221.78" y="694.09" class="st6" width="11.42" height="11.42"/>
	<rect x="1237.67" y="694.09" class="st6" width="11.42" height="11.42"/>
	<rect x="1253.57" y="694.09" class="st6" width="11.42" height="11.42"/>
	<rect x="1269.46" y="694.09" class="st6" width="11.42" height="11.42"/>
	<rect x="1285.36" y="694.09" class="st6" width="11.42" height="11.42"/>
	<rect x="1301.25" y="694.09" class="st6" width="11.42" height="11.42"/>
	<rect x="1221.78" y="709.8" class="st6" width="11.42" height="11.42"/>
	<rect x="1237.67" y="709.8" class="st6" width="11.42" height="11.42"/>
	<rect x="1253.57" y="709.8" class="st6" width="11.42" height="11.42"/>
	<rect x="1269.46" y="709.8" class="st6" width="11.42" height="11.42"/>
	<rect x="1285.36" y="709.8" class="st6" width="11.42" height="11.42"/>
	<rect x="1301.25" y="709.8" class="st6" width="11.42" height="11.42"/>
	<rect x="1221.78" y="725.51" class="st6" width="11.42" height="11.42"/>
	<rect x="1237.67" y="725.51" class="st6" width="11.42" height="11.42"/>
	<rect x="1253.57" y="725.51" class="st6" width="11.42" height="11.42"/>
	<rect x="1269.46" y="725.51" class="st6" width="11.42" height="11.42"/>
	<rect x="1285.36" y="725.51" class="st6" width="11.42" height="11.42"/>
	<rect x="1301.25" y="725.51" class="st6" width="11.42" height="11.42"/>
	<rect x="1221.78" y="741.22" class="st6" width="11.42" height="11.42"/>
	<rect x="1237.67" y="741.22" class="st6" width="11.42" height="11.42"/>
	<rect x="1253.57" y="741.22" class="st6" width="11.42" height="11.42"/>
	<rect x="1269.46" y="741.22" class="st6" width="11.42" height="11.42"/>
	<rect x="1285.36" y="741.22" class="st6" width="11.42" height="11.42"/>
	<rect x="1301.25" y="741.22" class="st6" width="11.42" height="11.42"/>
	<rect x="1221.78" y="756.94" class="st6" width="11.42" height="11.42"/>
	<rect x="1237.67" y="756.94" class="st6" width="11.42" height="11.42"/>
	<rect x="1253.57" y="756.94" class="st6" width="11.42" height="11.42"/>
	<rect x="1269.46" y="756.94" class="st6" width="11.42" height="11.42"/>
	<rect x="1285.36" y="756.94" class="st6" width="11.42" height="11.42"/>
	<rect x="1301.25" y="756.94" class="st6" width="11.42" height="11.42"/>
	<path class="st4" d="M1279.02,786.9h-23.6v-3.13c0-4.37,3.55-7.92,7.92-7.92h7.76c4.37,0,7.92,3.55,7.92,7.92V786.9z"/>
</g>
<path class="st3" d="M956.05,786.9h-22.37v-5.85c0-4.12,3.34-7.45,7.45-7.45h7.47c4.12,0,7.45,3.34,7.45,7.45V786.9z"/>
<path class="st10" d="M769.67,786.9H747.3v-5.85c0-4.12,3.34-7.45,7.45-7.45h7.47c4.12,0,7.45,3.34,7.45,7.45V786.9z"/>
<rect x="834.7" y="773.59" class="st5" width="22.37" height="13.31"/>
<rect x="650.54" y="775.67" class="st4" width="42.75" height="11.23"/>
<rect x="1021.99" y="773.59" class="st5" width="8.78" height="13.31"/>
<rect x="1032.22" y="773.59" class="st5" width="8.78" height="13.31"/>
<path class="st6" d="M1522.06,795.22H397.94c-2.3,0-4.16-1.86-4.16-4.16l0,0c0-2.3,1.86-4.16,4.16-4.16h1124.12  c2.3,0,4.16,1.86,4.16,4.16l0,0C1526.22,793.36,1524.36,795.22,1522.06,795.22z"/>
</svg>